<?xml version="1.0" standalone="no"?>
<!DOCTYPE svg PUBLIC "-//W3C//DTD SVG 20010904//EN"
 "http://www.w3.org/TR/2001/REC-SVG-20010904/DTD/svg10.dtd">
<svg version="1.0" xmlns="http://www.w3.org/2000/svg"
 width="800.000000pt" height="800.000000pt" viewBox="0 0 800.000000 800.000000"
 preserveAspectRatio="xMidYMid meet">
<metadata>
Created by potrace 1.14, written by Peter Selinger 2001-2017
</metadata>
<g transform="translate(0.000000,800.000000) scale(0.100000,-0.100000)"
fill="#000000" stroke="none">
<path d="M0 4000 l0 -4000 4000 0 4000 0 0 4000 0 4000 -4000 0 -4000 0 0
-4000z m4446 2359 c194 -36 388 -164 504 -334 26 -38 697 -1387 822 -1655 15
-30 72 -147 127 -260 154 -310 201 -481 201 -725 0 -213 -43 -400 -135 -593
-69 -143 -137 -243 -249 -360 -187 -195 -384 -311 -656 -385 l-115 -32 -1277
-3 c-1413 -3 -1334 -6 -1463 61 -84 44 -202 164 -242 247 -65 134 -81 281 -45
412 22 77 1656 3213 1727 3314 110 154 300 276 488 314 62 12 245 12 313 -1z"/>
<path d="M4310 4601 c-435 -95 -763 -421 -862 -855 -28 -122 -30 -335 -4 -456
49 -231 152 -416 323 -581 135 -131 298 -223 483 -274 117 -33 322 -44 451
-26 517 74 919 517 946 1041 27 535 -316 1002 -837 1140 -121 32 -378 38 -500
11z"/>
</g>
</svg>
