<svg width="36" height="36" viewBox="0 0 36 36" fill="none" xmlns="http://www.w3.org/2000/svg">
<g clip-path="url(#clip0_106_984)">
<path d="M8.00166 6.31104H13.835L16.7517 13.6027L13.1058 15.7902C14.6676 18.957 17.2307 21.5201 20.3975 23.0819L22.585 19.436L29.8767 22.3527V28.186C29.8767 28.9596 29.5694 29.7015 29.0224 30.2484C28.4754 30.7954 27.7335 31.1027 26.96 31.1027C21.2714 30.757 15.9061 28.3413 11.8762 24.3115C7.84635 20.2816 5.43069 14.9163 5.08499 9.2277C5.08499 8.45415 5.39228 7.71229 5.93926 7.16531C6.48624 6.61833 7.22811 6.31104 8.00166 6.31104" stroke="url(#paint0_linear_106_984)" stroke-width="2" stroke-linecap="round" stroke-linejoin="round"/>
<path d="M22.585 10.686C23.3585 10.686 24.1004 10.9933 24.6474 11.5403C25.1944 12.0873 25.5017 12.8292 25.5017 13.6027" stroke="url(#paint1_linear_106_984)" stroke-width="2" stroke-linecap="round" stroke-linejoin="round"/>
<path d="M22.585 4.85254C24.9056 4.85254 27.1312 5.77441 28.7722 7.41536C30.4131 9.0563 31.335 11.2819 31.335 13.6025" stroke="url(#paint2_linear_106_984)" stroke-width="2" stroke-linecap="round" stroke-linejoin="round"/>
</g>
<defs>
<linearGradient id="paint0_linear_106_984" x1="9.0627" y1="10.7304" x2="25.9584" y2="10.7513" gradientUnits="userSpaceOnUse">
<stop stop-color="#B3F1FF"/>
<stop offset="1" stop-color="#E1FFBB"/>
</linearGradient>
<linearGradient id="paint1_linear_106_984" x1="23.053" y1="11.206" x2="25.0407" y2="11.2084" gradientUnits="userSpaceOnUse">
<stop stop-color="#B3F1FF"/>
<stop offset="1" stop-color="#E1FFBB"/>
</linearGradient>
<linearGradient id="paint2_linear_106_984" x1="23.9889" y1="6.41233" x2="29.9521" y2="6.4197" gradientUnits="userSpaceOnUse">
<stop stop-color="#B3F1FF"/>
<stop offset="1" stop-color="#E1FFBB"/>
</linearGradient>
<clipPath id="clip0_106_984">
<rect width="35" height="35" fill="white" transform="translate(0.709991 0.477539)"/>
</clipPath>
</defs>
</svg>
