<svg width="29" height="29" viewBox="0 0 29 29" fill="none" xmlns="http://www.w3.org/2000/svg">
<g clip-path="url(#clip0_106_1054)">
<path d="M16.7855 7.7471C16.1419 7.57068 15.4736 7.48123 14.7993 7.48123C10.6653 7.48123 7.30212 10.8444 7.30212 14.9785C7.30212 19.1125 10.6653 22.4757 14.7993 22.4757C18.9334 22.4757 22.2966 19.1125 22.2966 14.9785C22.2966 14.3042 22.2071 13.6359 22.0307 12.9923C21.9095 12.5501 22.1697 12.0934 22.6119 11.9722C23.0538 11.851 23.5108 12.1112 23.632 12.5534C23.8476 13.34 23.957 14.1559 23.957 14.9785C23.957 20.028 19.8489 24.1361 14.7993 24.1361C9.74985 24.1361 5.64173 20.028 5.64173 14.9785C5.64173 9.92895 9.74985 5.82084 14.7993 5.82084C15.6219 5.82084 16.4378 5.93016 17.2245 6.14581C17.5932 6.24688 17.8354 6.58135 17.8354 6.94611C17.8354 7.0187 17.8257 7.09249 17.8056 7.16591C17.6845 7.60809 17.2278 7.86846 16.7855 7.7471ZM26.506 10.6428C26.0664 10.7729 25.8155 11.2348 25.9456 11.6745C26.2618 12.7423 26.4221 13.8539 26.4221 14.9785C26.4221 21.3872 21.2081 26.6012 14.7993 26.6012C8.39056 26.6012 3.17662 21.3872 3.17662 14.9785C3.17662 8.56966 8.39056 3.35573 14.7993 3.35573C15.924 3.35573 17.0355 3.51601 18.1032 3.83211C18.5429 3.96234 19.0047 3.71131 19.1349 3.27173C19.1581 3.19312 19.1692 3.11388 19.1692 3.0359C19.1693 2.67762 18.9356 2.34694 18.5745 2.24C17.3537 1.87856 16.0836 1.69534 14.7993 1.69534C11.2513 1.69534 7.91558 3.07704 5.40673 5.58584C2.89794 8.09474 1.51624 11.4304 1.51624 14.9785C1.51624 18.5265 2.89794 21.8622 5.40673 24.3711C7.91553 26.8799 11.2513 28.2616 14.7993 28.2616C18.3474 28.2616 21.6831 26.8799 24.192 24.3711C26.7008 21.8622 28.0825 18.5265 28.0825 14.9785C28.0825 13.6943 27.8992 12.4241 27.5378 11.2031C27.4076 10.7635 26.9456 10.5128 26.506 10.6428ZM14.7993 11.6577C14.9214 11.6577 15.0447 11.6644 15.1658 11.6777C15.6218 11.7279 16.0317 11.3988 16.0816 10.943C16.1316 10.4873 15.8027 10.0772 15.3469 10.0273C15.1658 10.0074 14.9817 9.99729 14.7993 9.99729C12.0527 9.99729 9.81818 12.2318 9.81818 14.9785C9.81818 17.7251 12.0527 19.9596 14.7993 19.9596C17.546 19.9596 19.7805 17.7251 19.7805 14.9785C19.7805 14.5199 19.4088 14.1483 18.9503 14.1483C18.4918 14.1483 18.1201 14.5199 18.1201 14.9785C18.1201 16.8096 16.6304 18.2992 14.7993 18.2992C12.9683 18.2992 11.4786 16.8096 11.4786 14.9785C11.4786 13.1474 12.9683 11.6577 14.7993 11.6577ZM19.0382 9.56564L19.4518 5.41741C19.4707 5.22657 19.5552 5.04829 19.6908 4.91271L22.6651 1.93848C22.8943 1.7094 23.2356 1.63453 23.5396 1.74666C23.8435 1.85879 24.0545 2.13752 24.0798 2.46052L24.3157 5.46219L27.3173 5.69797C27.6403 5.72334 27.919 5.93431 28.0311 6.23822C28.1433 6.54217 28.0684 6.88359 27.8393 7.11267L24.865 10.0869C24.7295 10.2225 24.5512 10.3069 24.3604 10.3259L20.2123 10.7397L15.3864 15.5655C15.2243 15.7276 15.0118 15.8086 14.7993 15.8086C14.5868 15.8086 14.3744 15.7276 14.2123 15.5655C13.8881 15.2413 13.8881 14.7156 14.2123 14.3914L19.0382 9.56564ZM20.7616 9.01631L23.9006 8.70322L25.3915 7.21224L23.4786 7.06198C23.0714 7.02996 22.7479 6.7065 22.7159 6.29934L22.5657 4.38621L21.0746 5.87724L20.7616 9.01631Z" fill="url(#paint0_linear_106_1054)"/>
</g>
<defs>
<linearGradient id="paint0_linear_106_1054" x1="5.77866" y1="6.43106" x2="23.8838" y2="6.45344" gradientUnits="userSpaceOnUse">
<stop stop-color="#B3F1FF"/>
<stop offset="1" stop-color="#E1FFBB"/>
</linearGradient>
<clipPath id="clip0_106_1054">
<rect width="28" height="28" fill="white" transform="translate(0.799347 0.978516)"/>
</clipPath>
</defs>
</svg>
