<svg width="57" height="57" viewBox="0 0 57 57" fill="none" xmlns="http://www.w3.org/2000/svg">
<path d="M42.6208 12.9691C37.0182 12.9691 32.7898 16.669 31.0984 22.4831C28.4557 18.3604 26.3415 13.7091 25.1786 9.69212H19.2589V25.2315C19.2589 28.2971 16.7218 30.8342 13.6562 30.8342C10.5906 30.8342 8.05357 28.2971 8.05357 25.2315V9.79783H2.34521V25.3372C2.34521 31.7856 7.52502 36.9654 13.8676 36.9654C20.2103 36.9654 25.3901 31.7856 25.3901 25.3372V22.6945C26.5529 25.0201 28.0328 27.5572 29.6185 29.7771L25.9186 47.0079H31.9441L34.4811 34.4283C36.8068 35.9083 39.4495 36.754 42.6208 36.754C49.0692 36.754 54.3547 31.4684 54.3547 24.703C54.3547 18.2547 49.0692 12.9691 42.6208 12.9691ZM42.6208 30.8342C40.2952 30.8342 37.8639 29.7771 35.9611 28.1914L36.5954 25.8658V25.7601C37.0182 23.223 38.3924 18.9946 42.7266 18.9946C46.0036 18.9946 48.6463 21.6374 48.6463 24.9144C48.5406 28.1914 45.6864 30.8342 42.6208 30.8342Z" fill="#747D8C"/>
</svg>
