<svg width="57" height="57" viewBox="0 0 57 57" fill="none" xmlns="http://www.w3.org/2000/svg">
<g clip-path="url(#clip0_106_579)">
<path fill-rule="evenodd" clip-rule="evenodd" d="M0.93689 28.2218C0.93689 12.761 13.476 0.221832 28.9369 0.221832C44.3978 0.221832 56.9369 12.761 56.9369 28.2218C56.9369 43.6827 44.3978 56.2218 28.9369 56.2218C13.476 56.2218 0.93689 43.6827 0.93689 28.2218ZM3.37167 28.2218C3.37167 42.3436 14.8151 53.787 28.9369 53.787C43.0586 53.787 54.5021 42.3436 54.5021 28.2218C54.5021 14.1001 43.0586 2.65661 28.9369 2.65661C14.8151 2.65661 3.37167 14.1001 3.37167 28.2218ZM28.9369 9.35226C29.6065 9.35226 30.1543 8.80444 30.1543 8.13487V7.52618C30.1543 6.85661 29.6065 6.30879 28.9369 6.30879C28.2673 6.30879 27.7195 6.85661 27.7195 7.52618V8.13487C27.7195 8.80444 28.2673 9.35226 28.9369 9.35226ZM28.9369 47.0914C28.2673 47.0914 27.7195 47.6392 27.7195 48.3088V48.9175C27.7195 49.587 28.2673 50.1349 28.9369 50.1349C29.6065 50.1349 30.1543 49.587 30.1543 48.9175V48.3088C30.1543 47.6392 29.6065 47.0914 28.9369 47.0914ZM8.24124 27.0044H8.84993C9.5195 27.0044 10.0673 27.5523 10.0673 28.2218C10.0673 28.8914 9.5195 29.4392 8.84993 29.4392H8.24124C7.57167 29.4392 7.02384 28.8914 7.02384 28.2218C7.02384 27.5523 7.57167 27.0044 8.24124 27.0044ZM49.6325 27.0044H49.0238C48.3543 27.0044 47.8065 27.5523 47.8065 28.2218C47.8065 28.8914 48.3543 29.4392 49.0238 29.4392H49.6325C50.3021 29.4392 50.8499 28.8914 50.8499 28.2218C50.8499 27.5523 50.3021 27.0044 49.6325 27.0044ZM13.476 12.761C13.963 12.274 14.6934 12.274 15.1804 12.761L15.6065 13.187C16.0934 13.674 16.0934 14.4044 15.6065 14.8914C15.363 15.1349 15.0586 15.2566 14.7543 15.2566C14.4499 15.2566 14.1456 15.1349 13.9021 14.8914L13.476 14.4653C12.9891 13.9784 12.9891 13.2479 13.476 12.761ZM13.9021 41.5523L13.476 41.9784C12.9891 42.4653 12.9891 43.1957 13.476 43.6827C13.7195 43.9262 14.0238 44.0479 14.3282 44.0479C14.6325 44.0479 14.9369 43.9262 15.1804 43.6827L15.6065 43.2566C16.0934 42.7697 16.0934 42.0392 15.6065 41.5523C15.1195 41.0653 14.3891 41.0653 13.9021 41.5523ZM42.2673 13.187L42.6934 12.761C43.1804 12.274 43.9108 12.274 44.3978 12.761C44.8847 13.2479 44.8847 13.9784 44.3978 14.4653L43.9717 14.8914C43.7282 15.1349 43.4238 15.2566 43.1195 15.2566C42.8152 15.2566 42.5108 15.1349 42.2673 14.8914C41.7804 14.4044 41.7804 13.674 42.2673 13.187ZM30.1543 27.7349V16.6566C30.1543 15.9871 29.6064 15.4392 28.9369 15.4392C28.2673 15.4392 27.7195 15.9871 27.7195 16.6566V28.2218C27.7195 28.5262 27.8412 28.8305 28.0847 29.074L41.4151 42.4044C41.6586 42.6479 41.963 42.7697 42.2673 42.7697C42.5717 42.7697 42.876 42.6479 43.1195 42.4044C43.6064 41.9175 43.6064 41.187 43.1195 40.7001L30.1543 27.7349Z" fill="url(#paint0_linear_106_579)"/>
</g>
<defs>
<linearGradient id="paint0_linear_106_579" x1="9.92182" y1="10.2045" x2="48.0862" y2="10.2517" gradientUnits="userSpaceOnUse">
<stop stop-color="#B3F1FF"/>
<stop offset="1" stop-color="#E1FFBB"/>
</linearGradient>
<clipPath id="clip0_106_579">
<rect width="56" height="56" fill="white" transform="translate(0.93689 0.221832)"/>
</clipPath>
</defs>
</svg>
