<svg width="57" height="57" viewBox="0 0 57 57" fill="none" xmlns="http://www.w3.org/2000/svg">
<path fill-rule="evenodd" clip-rule="evenodd" d="M41.9952 9.62204L39.4812 7.71596C39.1102 7.43465 38.9578 6.94924 39.1017 6.50638C39.2456 6.06352 39.6541 5.76033 40.1196 5.75082L43.274 5.68661L44.31 2.70647C44.4628 2.26657 44.8775 1.9718 45.3431 1.9718C45.8087 1.9718 46.2233 2.26657 46.376 2.70658L47.412 5.68672L50.5664 5.75093C51.0319 5.76044 51.4405 6.06363 51.5843 6.50649C51.7282 6.94935 51.5759 7.43475 51.2048 7.71607L48.6908 9.62215L49.6044 12.642C49.8167 13.3431 49.2904 14.0525 48.5576 14.0525C48.3393 14.0525 48.1208 13.9872 47.9328 13.8565L45.3431 12.0543L42.7532 13.8564C42.371 14.1223 41.8622 14.117 41.4855 13.8435C41.1088 13.5697 40.9467 13.0876 41.0816 12.6419L41.9952 9.62204ZM45.0903 7.12369C44.9401 7.55583 44.537 7.84885 44.0796 7.85815L43.3104 7.87379L43.9235 8.33863C44.288 8.61502 44.442 9.08916 44.3096 9.52699L44.0868 10.2635L44.7184 9.82394C45.094 9.56265 45.5923 9.56265 45.9679 9.82394L46.5996 10.2635L46.3768 9.52699C46.2443 9.08905 46.3983 8.61502 46.7629 8.33863L47.3759 7.87379L46.6066 7.85815C46.1493 7.84874 45.746 7.55583 45.5958 7.12369L45.3431 6.39679L45.0903 7.12369ZM23.0751 19.7472L25.5893 21.6533L24.6757 24.6731C24.5408 25.1188 24.7029 25.601 25.0796 25.8747C25.4563 26.1485 25.9651 26.1536 26.3472 25.8876L28.9369 24.0856L31.5267 25.8877C31.7146 26.0184 31.9331 26.0837 32.1514 26.0837C32.8843 26.0837 33.4106 25.3743 33.1983 24.6732L32.2847 21.6534L34.7986 19.7473C35.1697 19.466 35.322 18.9806 35.1782 18.5377C35.0343 18.0949 34.6257 17.7917 34.1602 17.7822L31.0058 17.718L29.9698 14.7378C29.8172 14.2978 29.4025 14.0031 28.9369 14.0031C28.4713 14.0031 28.0567 14.2978 27.9037 14.7377L26.8679 17.7179L23.7135 17.7821C23.248 17.7916 22.8395 18.0948 22.6955 18.5376C22.5517 18.9805 22.704 19.4659 23.0751 19.7472ZM27.6734 19.8894C28.1308 19.8801 28.5341 19.5871 28.6842 19.1549L28.937 18.428L29.1898 19.1549C29.34 19.5871 29.7432 19.88 30.2005 19.8894L30.9699 19.905L30.3568 20.3699C29.9923 20.6463 29.8383 21.1203 29.9707 21.5582L30.1935 22.2948L29.5619 21.8552C29.1864 21.594 28.688 21.5939 28.3124 21.8552L27.6807 22.2948L27.9035 21.5582C28.036 21.1204 27.882 20.6463 27.5174 20.3699L26.9043 19.905L27.6734 19.8894ZM50.8119 18.3781H39.8744C39.2704 18.3781 38.7806 18.8677 38.7806 19.4718V53.3781C38.7806 53.982 39.2704 54.4718 39.8744 54.4718H50.8119C51.4159 54.4718 51.9056 53.982 51.9056 53.3781V19.4718C51.9056 18.8677 51.4159 18.3781 50.8119 18.3781ZM49.7181 52.2843H40.9681V20.5656H49.7181V52.2843ZM23.4681 30.4093H34.4056C35.0096 30.4093 35.4994 30.8991 35.4994 31.5031V53.3781C35.4994 53.982 35.0096 54.4718 34.4056 54.4718H23.4681C22.8641 54.4718 22.3744 53.982 22.3744 53.3781V31.5031C22.3744 30.8991 22.8641 30.4093 23.4681 30.4093ZM24.5619 52.2843H33.3119V32.5968H24.5619V52.2843ZM7.06189 38.0656H17.9994C18.6035 38.0656 19.0931 38.5553 19.0931 39.1593V53.3781C19.0931 53.982 18.6035 54.4718 17.9994 54.4718H7.06189C6.45781 54.4718 5.96814 53.982 5.96814 53.3781V39.1593C5.96814 38.5553 6.45781 38.0656 7.06189 38.0656ZM8.15564 52.2843H16.9056V40.2531H8.15564V52.2843ZM9.18302 29.3095L6.66881 27.4035C6.2977 27.1221 6.14545 26.6367 6.28928 26.1939C6.43322 25.751 6.84173 25.4478 7.30724 25.4383L10.4616 25.3741L11.4975 22.394C11.6504 21.9541 12.065 21.6593 12.5307 21.6593C12.9963 21.6593 13.4109 21.9541 13.5637 22.3941L14.5996 25.3742L17.754 25.4384C18.2195 25.4479 18.628 25.7511 18.7719 26.194C18.9159 26.6369 18.7636 27.1223 18.3925 27.4036L15.8783 29.3096L16.7919 32.3295C17.004 33.0306 16.4779 33.74 15.745 33.74C15.5267 33.74 15.3082 33.6747 15.1203 33.544L12.5307 31.7418L9.94098 33.5438C9.55872 33.8098 9.05002 33.8046 8.67333 33.5309C8.29664 33.2572 8.13455 32.775 8.26941 32.3294L9.18302 29.3095ZM12.278 26.8112C12.1278 27.2433 11.7246 27.5363 11.2672 27.5456L10.4976 27.5613L11.1109 28.0262C11.4754 28.3026 11.6294 28.7767 11.497 29.2145L11.2742 29.951L11.9058 29.5114C12.2822 29.2496 12.7803 29.2506 13.1553 29.5114L13.7869 29.951L13.5641 29.2145C13.4317 28.7767 13.5857 28.3026 13.9502 28.0262L14.5635 27.5613L13.7942 27.5456C13.3369 27.5362 12.9336 27.2433 12.7833 26.8112L12.5307 26.0843L12.278 26.8112Z" fill="url(#paint0_linear_106_630)"/>
<defs>
<linearGradient id="paint0_linear_106_630" x1="13.3386" y1="11.3305" x2="44.6453" y2="11.3644" gradientUnits="userSpaceOnUse">
<stop stop-color="#B3F1FF"/>
<stop offset="1" stop-color="#E1FFBB"/>
</linearGradient>
</defs>
</svg>
