<svg width="57" height="57" viewBox="0 0 57 57" fill="none" xmlns="http://www.w3.org/2000/svg">
<g clip-path="url(#clip0_106_598)">
<path fill-rule="evenodd" clip-rule="evenodd" d="M14.0729 13.3745C12.0732 11.4798 4.07689 10.8661 1.67359 10.7238C1.3423 10.7075 1.03659 10.8171 0.803296 11.0388C0.56989 11.2581 0.43689 11.5661 0.43689 11.8881V32.8881C0.43689 33.5321 0.959593 34.0548 1.60359 34.0548H8.60359C9.10759 34.0548 9.55559 33.7305 9.71189 33.2498L9.71206 33.2492C9.736 33.1758 9.83365 32.8761 9.98555 32.398C10.1764 32.5952 10.3815 32.8093 10.5948 33.0319L10.8482 33.2963L10.8679 33.3169L10.8679 33.3169C11.9025 34.3978 12.9691 35.5121 13.6879 36.115C18.0326 39.7527 23.2546 43.6797 24.2952 44.3633C25.1539 44.928 27.0042 45.7213 28.4369 45.7213C29.5872 45.7213 30.4716 45.4576 31.0852 44.942C31.9065 45.2617 32.8399 45.264 33.7382 44.914C34.7999 44.5033 35.6725 43.675 36.1672 42.6717C37.0865 42.8677 38.1389 42.73 39.0955 42.2494C40.0312 41.7781 40.7078 41.0571 41.0438 40.2147C41.9725 40.2637 42.9291 39.9347 43.7201 39.2557C44.787 38.3432 45.238 37.0266 44.9859 35.7162L46.8323 34.476C46.9624 34.8954 47.0684 35.2521 47.1456 35.5318C47.2856 36.0381 47.7453 36.3881 48.2703 36.3881H55.2703C55.9143 36.3881 56.437 35.8654 56.437 35.2214V14.2214C56.437 13.5751 55.9143 13.0548 55.2703 13.0548C46.1096 13.0548 41.0276 15.3998 40.8153 15.4978C40.512 15.6401 40.2856 15.9038 40.1923 16.2235C40.1106 16.5035 40.1362 16.8014 40.2614 17.0623C38.498 16.394 36.0375 15.422 33.5796 14.3217C29.3696 12.4397 26.6548 13.0138 23.6459 15.3881H14.3128C14.3626 15.0154 14.4028 14.6589 14.4322 14.3218C14.4626 13.9671 14.3319 13.6171 14.0729 13.3745ZM41.6667 20.0697C40.4487 19.6336 36.5338 18.2023 32.6253 16.4544C28.4953 14.6087 26.54 15.5584 22.7483 19.3524C21.1547 20.9461 19.925 23.3308 20.17 24.3551C20.205 24.5044 20.2703 24.6608 20.6343 24.7821C21.7753 25.1647 23.4833 25.3747 25.133 22.9084C25.3267 22.6191 25.6393 22.4324 25.987 22.3974C26.7708 22.3184 26.9681 22.23 27.547 21.9707L27.5527 21.9681L27.6045 21.945C27.9791 21.7781 28.4557 21.5658 29.207 21.2938C29.6293 21.1421 30.1076 21.2448 30.4273 21.5668C31.7036 22.8431 33.7056 24.4624 35.8243 26.1751L35.8266 26.1769C39.038 28.7749 42.3442 31.4496 43.953 33.5987L46.0848 32.1668C44.8868 28.5743 43.0359 23.3982 41.6667 20.0697ZM12.5352 31.6816C11.8399 30.9555 11.1936 30.2849 10.7655 29.883C11.7404 26.6656 13.1491 21.7354 13.9245 17.7215H21.0799C19.4859 19.3247 17.3397 22.5361 17.8972 24.8941C18.1375 25.9021 18.8469 26.6488 19.9015 26.9964C22.5452 27.8691 24.9578 27.0337 26.7545 24.6491C27.4965 24.5348 27.9002 24.3668 28.5068 24.0938C28.7261 23.9958 28.9828 23.8815 29.3235 23.7438C30.6582 24.9968 32.4595 26.4551 34.3565 27.9881L34.3631 27.9934C37.7915 30.7664 41.6768 33.909 42.5512 35.7278C42.9829 36.6261 42.5185 37.2118 42.2035 37.4801C41.7622 37.859 41.1656 37.9909 40.8141 37.7925C39.9498 37.1015 36.2445 33.308 33.9481 30.9142C33.5024 30.4475 32.7628 30.4312 32.2984 30.8792C31.8317 31.3249 31.8177 32.0645 32.2634 32.5289C32.8047 33.0933 37.1664 37.6397 38.9154 39.2341C38.7804 39.7399 38.2887 40.0419 38.0502 40.1611C37.3232 40.5291 36.5653 40.4769 36.2566 40.2241C36.2285 40.1964 36.1987 40.17 36.1672 40.1448C34.7695 39.0271 31.2579 35.2961 30.4645 34.4328C30.0258 33.9568 29.2908 33.9288 28.8148 34.3628C28.3411 34.7991 28.3085 35.5388 28.7448 36.0125L28.7699 36.0394L28.7699 36.0395C29.0872 36.3805 32.2935 39.8268 34.1441 41.4845C33.9243 42.038 33.4612 42.5162 32.8981 42.7347C32.549 42.867 32.046 42.948 31.5898 42.5545C31.5687 42.5339 31.5468 42.5138 31.5238 42.4945C29.8601 41.0922 26.4558 37.4685 25.7908 36.7568C25.3498 36.2855 24.6101 36.2598 24.1411 36.7008C23.6698 37.1418 23.6464 37.8791 24.0851 38.3505C24.8742 39.1953 27.2284 41.6927 28.994 43.3562C28.845 43.3761 28.662 43.388 28.4368 43.388C27.6598 43.388 26.2621 42.863 25.5785 42.4103C24.7595 41.8713 19.6238 38.04 15.1882 34.3253C14.5652 33.8003 13.4872 32.6756 12.5352 31.6816ZM7.75189 31.7215H2.77019V13.1388C6.51989 13.4351 10.5659 14.0791 12.0359 14.7931C11.4176 19.9031 8.61989 28.9821 7.75189 31.7215ZM49.143 34.0548H54.1037V15.4022C48.5527 15.5328 44.7283 16.5712 42.948 17.1755C44.7703 21.0581 48.037 30.4521 49.143 34.0548Z" fill="url(#paint0_linear_106_598)"/>
</g>
<defs>
<linearGradient id="paint0_linear_106_598" x1="9.42184" y1="16.9612" x2="47.5862" y2="17.0367" gradientUnits="userSpaceOnUse">
<stop stop-color="#B3F1FF"/>
<stop offset="1" stop-color="#E1FFBB"/>
</linearGradient>
<clipPath id="clip0_106_598">
<rect width="56" height="56" fill="white" transform="translate(0.43689 0.221832)"/>
</clipPath>
</defs>
</svg>
