<svg width="57" height="57" viewBox="0 0 57 57" fill="none" xmlns="http://www.w3.org/2000/svg">
<path d="M24.0272 48.547H23.9423L23.846 48.1628C23.3675 46.2559 22.8725 44.2842 22.4148 42.3409C21.7087 39.3423 20.9849 37.4288 16.9644 36.2883L13.0779 33.4966C12.433 33.0335 11.6446 32.8482 10.8571 32.9741L8.26856 26.864C6.51572 22.7264 4.23788 23.2097 3.58163 23.4566C1.9655 24.0641 1.01678 26.2053 1.59133 27.949C1.59133 27.949 4.96074 38.1771 4.99661 38.2872C5.5355 39.9411 6.20608 41.9993 7.74936 43.0601L12.2482 46.1519C12.7501 46.4969 13.0495 46.9335 13.1904 47.526L13.4331 48.5465H12.926C12.4319 48.5465 11.9688 48.7376 11.6219 49.0849C11.275 49.4322 11.0841 49.8955 11.0846 50.3896L11.0872 53.1186C11.0881 54.1328 11.9141 54.958 12.9284 54.958L24.0297 54.9588C24.5238 54.9588 24.9869 54.7676 25.3338 54.4203C25.6807 54.0731 25.8716 53.6098 25.871 53.1156L25.8684 50.3868C25.8674 49.3722 25.0415 48.547 24.0272 48.547ZM14.6801 47.1714C14.4524 46.2145 13.9261 45.4468 13.1155 44.8898L8.6167 41.798C7.50119 41.0313 6.91975 39.2466 6.4525 37.8126C6.41608 37.7008 3.04569 27.4697 3.04569 27.4697C2.70214 26.4269 3.34942 25.1796 4.12041 24.8899C5.01094 24.5549 6.03491 25.5165 6.85872 27.4612L9.45583 33.5914C9.24561 33.7598 9.05738 33.9578 8.89627 34.182C8.43077 34.8301 8.24581 35.6229 8.37564 36.4145C8.50547 37.206 8.93378 37.8983 9.58172 38.3638L14.8932 42.1791C15.2367 42.4257 15.7151 42.3472 15.9617 42.0039C16.2084 41.6604 16.13 41.182 15.7866 40.9353L10.4751 37.1199C10.1592 36.8931 9.95031 36.5545 9.88666 36.1665C9.823 35.7786 9.91291 35.3911 10.1398 35.0752C10.3667 34.7593 10.7052 34.5503 11.0932 34.4867C11.4811 34.423 11.8686 34.513 12.1845 34.7399L16.1813 37.6108C16.2551 37.6638 16.3377 37.7032 16.4253 37.7272C19.8342 38.6629 20.2902 39.9988 20.9243 42.6915C21.3846 44.6457 21.8808 46.623 22.3608 48.5352L22.3636 48.5466L15.007 48.5461L14.6801 47.1714ZM24.2505 53.3377C24.2098 53.3785 24.1383 53.4272 24.0297 53.4272L12.9284 53.4264C12.7575 53.4264 12.6185 53.2874 12.6184 53.1167L12.6159 50.3878C12.6158 50.2792 12.6643 50.2078 12.7051 50.1669C12.7459 50.1261 12.8174 50.0774 12.926 50.0774L23.3427 50.078C23.3434 50.078 23.3439 50.0781 23.3446 50.0781C23.3454 50.0781 23.3462 50.078 23.3471 50.078H24.0273C24.198 50.078 24.3372 50.2171 24.3373 50.3878L24.3399 53.1167C24.3399 53.2255 24.2912 53.2969 24.2505 53.3377ZM53.2922 23.4565C52.6354 23.2099 50.3578 22.7269 48.6052 26.8639L46.0166 32.974C45.229 32.8481 44.4407 33.0333 43.7959 33.4965L39.9093 36.2881C35.8887 37.4287 35.1651 39.3422 34.459 42.3407C34.0022 44.28 33.5084 46.2478 33.0307 48.1506L32.9313 48.5468H32.8465C31.8322 48.5468 31.0062 49.372 31.0053 50.3863L31.0027 53.1153C31.0023 53.6093 31.1931 54.0726 31.5401 54.4199C31.887 54.7672 32.3501 54.9584 32.8449 54.9584L43.9455 54.9576C44.9598 54.9576 45.7858 54.1323 45.7867 53.1181L45.7893 50.3892C45.7898 49.8951 45.599 49.4317 45.2521 49.0845C44.9051 48.7372 44.442 48.546 43.9479 48.546H43.4407L43.6834 47.5256C43.8244 46.933 44.1238 46.4963 44.6257 46.1515L49.1245 43.0597C50.6679 41.9989 51.3385 39.9405 51.8774 38.2865C51.9131 38.1764 55.2825 27.9485 55.2825 27.9485C55.857 26.2052 54.9084 24.064 53.2922 23.4565ZM43.9479 50.0775C44.0566 50.0775 44.1279 50.1262 44.1688 50.167C44.2096 50.2078 44.2582 50.2792 44.2581 50.3879L44.2555 53.1169C44.2553 53.2876 44.1162 53.4266 43.9455 53.4266L32.8442 53.4273C32.7355 53.4273 32.6642 53.3786 32.6233 53.3378C32.5824 53.2971 32.534 53.2256 32.5341 53.1169L32.5367 50.3879C32.5368 50.2172 32.6759 50.0783 32.8467 50.0783H33.5269C33.5277 50.0783 33.5285 50.0784 33.5294 50.0784C33.5299 50.0784 33.5306 50.0783 33.5312 50.0783L43.9479 50.0775ZM53.8281 27.4698C53.8281 27.4698 50.4577 37.7008 50.4214 37.8125C49.9542 39.2465 49.3727 41.0313 48.2572 41.798L43.7585 44.8897C42.9479 45.4469 42.4215 46.2145 42.1937 47.1714L41.8667 48.5464L34.5101 48.5468L34.5159 48.5235C34.9949 46.6152 35.49 44.6421 35.9494 42.6918C36.5835 39.9991 37.0395 38.6632 40.4484 37.7275C40.536 37.7035 40.6187 37.6641 40.6925 37.6111L44.6892 34.7403C45.005 34.5133 45.3925 34.4233 45.7806 34.4871C46.1685 34.5506 46.507 34.7596 46.734 35.0755C46.9608 35.3914 47.0507 35.7789 46.9872 36.1669C46.9237 36.5548 46.7146 36.8934 46.3988 37.1203L41.0873 40.9356C40.7439 41.1824 40.6654 41.6608 40.9122 42.0042C41.1588 42.3476 41.6372 42.4261 41.9807 42.1794L47.2921 38.3641C47.9402 37.8986 48.3685 37.2062 48.4982 36.4148C48.628 35.6233 48.4431 34.8304 47.9776 34.1824C47.8165 33.958 47.6281 33.7602 47.418 33.5917L50.0151 27.4615C50.8391 25.5166 51.8626 24.5556 52.7535 24.8902C53.5244 25.1796 54.1717 26.4269 53.8281 27.4698ZM31.5152 3.61883C31.6358 3.21359 32.062 2.98314 32.4673 3.10312C35.8328 4.10358 38.6789 6.31897 40.4814 9.341C42.0111 11.9057 42.6696 14.853 42.3905 17.7841L44.0867 16.5379C44.4273 16.2872 44.9066 16.3608 45.157 16.7015C45.4074 17.0422 45.3341 17.5214 44.9933 17.7717L41.7832 20.1303C41.651 20.2275 41.492 20.2789 41.3299 20.2789C41.2914 20.2789 41.2527 20.2761 41.2142 20.2702C41.0135 20.2394 40.8331 20.1303 40.7129 19.9667L38.3543 16.7564C38.104 16.4157 38.1773 15.9364 38.5181 15.6862C38.8588 15.4355 39.338 15.5091 39.5884 15.8498L40.8692 17.593C41.3875 11.8088 37.7246 6.2633 32.0312 4.57072C31.6256 4.45051 31.3947 4.02417 31.5152 3.61883ZM38.1064 26.5937C35.5506 29.0143 32.2012 30.3718 28.6752 30.4164C25.6942 30.4527 22.8239 29.5505 20.4306 27.8471L20.6617 29.939C20.7082 30.3593 20.4051 30.7377 19.9849 30.7842C19.9564 30.7872 19.9279 30.7889 19.8998 30.7889C19.5147 30.7889 19.1831 30.499 19.1398 30.1073L18.7023 26.148C18.68 25.9462 18.7387 25.7439 18.8657 25.5853C18.9927 25.4267 19.1773 25.3252 19.3791 25.3029L23.3385 24.8654C23.7593 24.8194 24.1371 25.1221 24.1836 25.5423C24.2301 25.9626 23.927 26.3409 23.5067 26.3874L21.3566 26.625C26.1078 29.9685 32.7356 29.5713 37.0534 25.4821C37.3605 25.1913 37.845 25.2045 38.1358 25.5115C38.4265 25.8183 38.4133 26.303 38.1064 26.5937ZM14.9434 19.732C14.126 16.3125 14.623 12.7367 16.3427 9.663C17.799 7.0602 20.0203 5.02014 22.6956 3.79765L20.7685 2.95197C20.3813 2.782 20.2052 2.33039 20.3751 1.94309C20.5449 1.55601 20.9964 1.38003 21.3838 1.54967L25.0315 3.15048C25.4187 3.32045 25.5948 3.77206 25.4249 4.15936L23.8241 7.80701C23.6542 8.19409 23.2026 8.37019 22.8153 8.20044C22.4281 8.03047 22.252 7.57875 22.4219 7.19156L23.2912 5.21067C18.0214 7.65367 15.0509 13.5957 16.4325 19.3762C16.5309 19.7874 16.2771 20.2004 15.8659 20.2988C15.806 20.3131 15.7461 20.32 15.6873 20.32C15.3413 20.3198 15.0274 20.0835 14.9434 19.732ZM28.0925 13.941C24.778 14.1549 22.1465 16.9177 22.1465 20.2851C22.1465 21.0278 22.5366 22.0568 24.3956 22.7412C25.4926 23.1451 26.9523 23.3676 28.5058 23.3676C31.4393 23.3676 34.8651 22.5603 34.8651 20.2851C34.8651 16.9177 32.2337 14.1549 28.9194 13.941C30.5726 13.7365 31.8568 12.3242 31.8568 10.6165C31.8568 8.76897 30.3536 7.26594 28.5059 7.26594C26.6581 7.26594 25.155 8.76897 25.155 10.6165C25.155 12.3241 26.4391 13.7365 28.0925 13.941ZM33.3337 20.2851C33.3337 21.0187 31.351 21.8363 28.5057 21.8363C25.6604 21.8363 23.6776 21.0187 23.6776 20.2851C23.6776 17.623 25.8436 15.4572 28.5059 15.4572C31.168 15.4572 33.3337 17.623 33.3337 20.2851ZM28.5059 8.79718C29.5092 8.79718 30.3256 9.61334 30.3256 10.6165C30.3256 11.6199 29.5093 12.4362 28.5059 12.4362C27.5025 12.4362 26.6862 11.6199 26.6862 10.6165C26.6862 9.61334 27.5026 8.79718 28.5059 8.79718Z" fill="url(#paint0_linear_106_571)" stroke="url(#paint1_linear_106_571)" stroke-width="0.5"/>
<defs>
<linearGradient id="paint0_linear_106_571" x1="10.0912" y1="11.0174" x2="46.9121" y2="11.0634" gradientUnits="userSpaceOnUse">
<stop stop-color="#B3F1FF"/>
<stop offset="1" stop-color="#E1FFBB"/>
</linearGradient>
<linearGradient id="paint1_linear_106_571" x1="10.0912" y1="11.0174" x2="46.9121" y2="11.0634" gradientUnits="userSpaceOnUse">
<stop stop-color="#B3F1FF"/>
<stop offset="1" stop-color="#E1FFBB"/>
</linearGradient>
</defs>
</svg>
