<svg width="27" height="27" viewBox="0 0 27 27" fill="none" xmlns="http://www.w3.org/2000/svg">
<path d="M11.1595 18.5238H16.222M13.6913 3.35718V4.44051M20.5856 6.21284L19.8197 6.97876M23.4413 13.1072H22.358M5.02462 13.1072H3.94128M7.56287 6.97876L6.79695 6.21284M9.86062 16.9378C9.10323 16.1803 8.58748 15.2151 8.37859 14.1644C8.16971 13.1137 8.27706 12.0247 8.68707 11.035C9.09709 10.0453 9.79136 9.19942 10.6821 8.60429C11.5728 8.00917 12.62 7.69152 13.6913 7.69152C14.7625 7.69152 15.8097 8.00917 16.7005 8.60429C17.5912 9.19942 18.2855 10.0453 18.6955 11.035C19.1055 12.0247 19.2129 13.1137 19.004 14.1644C18.7951 15.2151 18.2793 16.1803 17.522 16.9378L16.9283 17.5304C16.5889 17.8699 16.3197 18.2729 16.136 18.7164C15.9524 19.1599 15.8579 19.6352 15.858 20.1153V20.6905C15.858 21.2651 15.6297 21.8162 15.2233 22.2226C14.817 22.6289 14.2659 22.8572 13.6913 22.8572C13.1166 22.8572 12.5655 22.6289 12.1592 22.2226C11.7529 21.8162 11.5246 21.2651 11.5246 20.6905V20.1153C11.5246 19.1457 11.139 18.2151 10.4543 17.5304L9.86062 16.9378Z" stroke="url(#paint0_linear_106_765)" stroke-width="1.7" stroke-linecap="round" stroke-linejoin="round"/>
<defs>
<linearGradient id="paint0_linear_106_765" x1="7.06997" y1="6.83328" x2="20.3594" y2="6.84971" gradientUnits="userSpaceOnUse">
<stop stop-color="#B3F1FF"/>
<stop offset="1" stop-color="#E1FFBB"/>
</linearGradient>
</defs>
</svg>
