<svg width="69" height="69" viewBox="0 0 69 69" fill="none" xmlns="http://www.w3.org/2000/svg">
<path fill-rule="evenodd" clip-rule="evenodd" d="M63.3788 25.0447H63.91C64.896 25.0458 65.8412 25.4379 66.5384 26.1351C67.2355 26.8322 67.6277 27.7775 67.6288 28.7634V53.2009C67.6277 54.1869 67.2355 55.1321 66.5384 55.8293C65.8412 56.5264 64.896 56.9186 63.91 56.9197H50.0975C49.1116 56.9186 48.1664 56.5264 47.4692 55.8293C46.772 55.1321 46.3799 54.1869 46.3788 53.2009V49.4822H41.3651L41.8964 51.6072H44.2538C44.5356 51.6072 44.8058 51.7191 45.0051 51.9184C45.2043 52.1176 45.3163 52.3879 45.3163 52.6697V55.8572C45.3163 56.139 45.2043 56.4092 45.0051 56.6085C44.8058 56.8077 44.5356 56.9197 44.2538 56.9197H25.1288C24.847 56.9197 24.5767 56.8077 24.3775 56.6085C24.1782 56.4092 24.0663 56.139 24.0663 55.8572V52.6697C24.0663 52.3879 24.1782 52.1176 24.3775 51.9184C24.5767 51.7191 24.847 51.6072 25.1288 51.6072H27.4862L28.0175 49.4822H18.7538V53.2009C18.7527 54.1869 18.3605 55.1321 17.6634 55.8293C16.9662 56.5264 16.021 56.9186 15.035 56.9197H5.47253C4.48659 56.9186 3.54135 56.5264 2.84418 55.8293C2.14702 55.1321 1.75487 54.1869 1.75378 53.2009V35.1384C1.75487 34.1525 2.14702 33.2072 2.84418 32.5101C3.54135 31.8129 4.48659 31.4208 5.47253 31.4197H6.00378V14.9509C6.00487 13.965 6.39702 13.0197 7.09418 12.3226C7.79135 11.6254 8.73659 11.2333 9.72253 11.2322H59.66C60.646 11.2333 61.5912 11.6254 62.2884 12.3226C62.9855 13.0197 63.3777 13.965 63.3788 14.9509V25.0447ZM16.1616 54.3275C16.4604 54.0287 16.6284 53.6235 16.6288 53.2009V35.1384C16.6284 34.7158 16.4604 34.3107 16.1616 34.0119C15.8628 33.7131 15.4576 33.545 15.035 33.5447H14.2076L13.3868 36.0057C13.3163 36.2173 13.181 36.4013 13.0001 36.5317C12.8192 36.662 12.6018 36.7322 12.3788 36.7322H8.12878C7.90577 36.7322 7.68841 36.662 7.50749 36.5317C7.32657 36.4013 7.19126 36.2173 7.12074 36.0057L6.29996 33.5447H5.47253C5.04995 33.545 4.64478 33.7131 4.34597 34.0119C4.04716 34.3107 3.87914 34.7158 3.87878 35.1384V53.2009C3.87914 53.6235 4.04716 54.0287 4.34597 54.3275C4.64478 54.6263 5.04995 54.7943 5.47253 54.7947H15.035C15.4576 54.7943 15.8628 54.6263 16.1616 54.3275ZM11.9671 33.5447H8.5405L8.89511 34.6072H11.6125L11.9671 33.5447ZM43.1913 54.7947V53.7322H26.1913V54.7947H43.1913ZM30.2089 49.4822L29.6776 51.6072H39.705L39.1737 49.4822H30.2089ZM18.7538 43.1072V47.3572H46.3788V43.1072H18.7538ZM46.3788 40.9822V28.7634C46.3799 27.7775 46.772 26.8322 47.4692 26.1351C48.1664 25.4379 49.1116 25.0458 50.0975 25.0447H61.2538V14.9509C61.2534 14.5283 61.0854 14.1232 60.7866 13.8244C60.4878 13.5256 60.0826 13.3575 59.66 13.3572H9.72253C9.29995 13.3575 8.89478 13.5256 8.59597 13.8244C8.29716 14.1232 8.12914 14.5283 8.12878 14.9509V31.4197H15.035C16.021 31.4208 16.9662 31.8129 17.6634 32.5101C18.3605 33.2072 18.7527 34.1525 18.7538 35.1384V40.9822H46.3788ZM58.3625 28.2322L58.7171 27.1697H55.2905L55.6451 28.2322H58.3625ZM65.0366 54.3275C65.3354 54.0287 65.5034 53.6235 65.5038 53.2009V28.7634C65.5034 28.3408 65.3354 27.9357 65.0366 27.6369C64.7378 27.3381 64.3326 27.17 63.91 27.1697H60.9576L60.1368 29.6307C60.0663 29.8423 59.931 30.0263 59.7501 30.1567C59.5692 30.287 59.3518 30.3572 59.1288 30.3572H54.8788C54.6558 30.3572 54.4384 30.287 54.2575 30.1567C54.0766 30.0263 53.9413 29.8423 53.8707 29.6307L53.05 27.1697H50.0975C49.675 27.17 49.2698 27.3381 48.971 27.6369C48.6722 27.9357 48.5041 28.3408 48.5038 28.7634V53.2009C48.5041 53.6235 48.6722 54.0287 48.971 54.3275C49.2698 54.6263 49.675 54.7943 50.0975 54.7947H63.91C64.3326 54.7943 64.7378 54.6263 65.0366 54.3275ZM54.8788 51.6072H59.1288C59.4106 51.6072 59.6808 51.7191 59.8801 51.9184C60.0793 52.1176 60.1913 52.3879 60.1913 52.6697C60.1913 52.9515 60.0793 53.2217 59.8801 53.421C59.6808 53.6202 59.4106 53.7322 59.1288 53.7322H54.8788C54.597 53.7322 54.3267 53.6202 54.1275 53.421C53.9282 53.2217 53.8163 52.9515 53.8163 52.6697C53.8163 52.3879 53.9282 52.1176 54.1275 51.9184C54.3267 51.7191 54.597 51.6072 54.8788 51.6072ZM12.3788 51.6072H8.12878C7.84699 51.6072 7.57674 51.7191 7.37748 51.9184C7.17823 52.1176 7.06628 52.3879 7.06628 52.6697C7.06628 52.9515 7.17823 53.2217 7.37748 53.421C7.57674 53.6202 7.84699 53.7322 8.12878 53.7322H12.3788C12.6606 53.7322 12.9308 53.6202 13.1301 53.421C13.3293 53.2217 13.4413 52.9515 13.4413 52.6697C13.4413 52.3879 13.3293 52.1176 13.1301 51.9184C12.9308 51.7191 12.6606 51.6072 12.3788 51.6072ZM33.6288 44.1697H35.7538C36.0356 44.1697 36.3058 44.2816 36.5051 44.4809C36.7043 44.6801 36.8163 44.9504 36.8163 45.2322C36.8163 45.514 36.7043 45.7842 36.5051 45.9835C36.3058 46.1827 36.0356 46.2947 35.7538 46.2947H33.6288C33.347 46.2947 33.0767 46.1827 32.8775 45.9835C32.6782 45.7842 32.5663 45.514 32.5663 45.2322C32.5663 44.9504 32.6782 44.6801 32.8775 44.4809C33.0767 44.2816 33.347 44.1697 33.6288 44.1697Z" fill="url(#paint0_linear_106_739)"/>
<defs>
<linearGradient id="paint0_linear_106_739" x1="12.3231" y1="19.3765" x2="57.2173" y2="19.4565" gradientUnits="userSpaceOnUse">
<stop stop-color="#B3F1FF"/>
<stop offset="1" stop-color="#E1FFBB"/>
</linearGradient>
</defs>
</svg>
