<svg width="27" height="27" viewBox="0 0 27 27" fill="none" xmlns="http://www.w3.org/2000/svg">
<path d="M5.0246 6.60722C5.0246 6.03258 5.25287 5.48148 5.6592 5.07515C6.06553 4.66882 6.61663 4.44055 7.19126 4.44055H9.35793C9.93257 4.44055 10.4837 4.66882 10.89 5.07515C11.2963 5.48148 11.5246 6.03258 11.5246 6.60722V8.77389C11.5246 9.34852 11.2963 9.89962 10.89 10.306C10.4837 10.7123 9.93257 10.9406 9.35793 10.9406H7.19126C6.61663 10.9406 6.06553 10.7123 5.6592 10.306C5.25287 9.89962 5.0246 9.34852 5.0246 8.77389V6.60722ZM15.8579 6.60722C15.8579 6.03258 16.0862 5.48148 16.4925 5.07515C16.8989 4.66882 17.45 4.44055 18.0246 4.44055H20.1913C20.7659 4.44055 21.317 4.66882 21.7233 5.07515C22.1297 5.48148 22.3579 6.03258 22.3579 6.60722V8.77389C22.3579 9.34852 22.1297 9.89962 21.7233 10.306C21.317 10.7123 20.7659 10.9406 20.1913 10.9406H18.0246C17.45 10.9406 16.8989 10.7123 16.4925 10.306C16.0862 9.89962 15.8579 9.34852 15.8579 8.77389V6.60722ZM5.0246 17.4406C5.0246 16.8659 5.25287 16.3148 5.6592 15.9085C6.06553 15.5022 6.61663 15.2739 7.19126 15.2739H9.35793C9.93257 15.2739 10.4837 15.5022 10.89 15.9085C11.2963 16.3148 11.5246 16.8659 11.5246 17.4406V19.6072C11.5246 20.1819 11.2963 20.733 10.89 21.1393C10.4837 21.5456 9.93257 21.7739 9.35793 21.7739H7.19126C6.61663 21.7739 6.06553 21.5456 5.6592 21.1393C5.25287 20.733 5.0246 20.1819 5.0246 19.6072V17.4406ZM15.8579 17.4406C15.8579 16.8659 16.0862 16.3148 16.4925 15.9085C16.8989 15.5022 17.45 15.2739 18.0246 15.2739H20.1913C20.7659 15.2739 21.317 15.5022 21.7233 15.9085C22.1297 16.3148 22.3579 16.8659 22.3579 17.4406V19.6072C22.3579 20.1819 22.1297 20.733 21.7233 21.1393C21.317 21.5456 20.7659 21.7739 20.1913 21.7739H18.0246C17.45 21.7739 16.8989 21.5456 16.4925 21.1393C16.0862 20.733 15.8579 20.1819 15.8579 19.6072V17.4406Z" stroke="url(#paint0_linear_106_761)" stroke-width="1.7" stroke-linecap="round" stroke-linejoin="round"/>
<defs>
<linearGradient id="paint0_linear_106_761" x1="7.80565" y1="7.53042" x2="19.6184" y2="7.54503" gradientUnits="userSpaceOnUse">
<stop stop-color="#B3F1FF"/>
<stop offset="1" stop-color="#E1FFBB"/>
</linearGradient>
</defs>
</svg>
