<svg width="27" height="27" viewBox="0 0 27 27" fill="none" xmlns="http://www.w3.org/2000/svg">
<g clip-path="url(#clip0_106_749)">
<path fill-rule="evenodd" clip-rule="evenodd" d="M2.4274 3.06785C2.81647 2.67878 3.34415 2.46021 3.89438 2.46021H19.8143C20.3646 2.46021 20.8923 2.67878 21.2813 3.06785C21.6704 3.45691 21.889 3.9846 21.889 4.53482V7.35861H23.4882C24.6339 7.35861 25.5628 8.28745 25.5628 9.43322V21.6793C25.5628 22.8251 24.6339 23.754 23.4882 23.754H16.1405C14.9947 23.754 14.0659 22.8251 14.0659 21.6793V21.3048H3.89438C3.34416 21.3048 2.81647 21.0862 2.4274 20.6971C2.03834 20.3081 1.81976 19.7804 1.81976 19.2302V4.53482C1.81976 3.9846 2.03834 3.45691 2.4274 3.06785ZM21.039 9.05866L21.0301 9.05861H16.1405C15.9336 9.05861 15.7659 9.22633 15.7659 9.43322V20.45L15.7659 20.4548L15.7659 20.4596V21.6793C15.7659 21.8862 15.9336 22.054 16.1405 22.054H23.4882C23.6951 22.054 23.8628 21.8862 23.8628 21.6793V9.43322C23.8628 9.22633 23.6951 9.05861 23.4882 9.05861H21.0478L21.039 9.05866ZM20.189 4.53482V7.35861H16.1405C14.9947 7.35861 14.0659 8.28745 14.0659 9.43322V19.6048H3.89438C3.79502 19.6048 3.69974 19.5653 3.62948 19.4951C3.55923 19.4248 3.51976 19.3295 3.51976 19.2302V4.53482C3.51976 4.43546 3.55923 4.34018 3.62948 4.26993C3.69974 4.19967 3.79502 4.16021 3.89438 4.16021H19.8143C19.9137 4.16021 20.009 4.19967 20.0792 4.26993C20.1495 4.34018 20.189 4.43546 20.189 4.53482ZM18.7332 9.42467C18.2637 9.42467 17.8832 9.80523 17.8832 10.2747C17.8832 10.7441 18.2637 11.1247 18.7332 11.1247H20.8954C21.3649 11.1247 21.7454 10.7441 21.7454 10.2747C21.7454 9.80523 21.3649 9.42467 20.8954 9.42467H18.7332Z" fill="url(#paint0_linear_106_749)"/>
</g>
<defs>
<linearGradient id="paint0_linear_106_749" x1="5.62922" y1="6.25607" x2="21.8102" y2="6.27837" gradientUnits="userSpaceOnUse">
<stop stop-color="#B3F1FF"/>
<stop offset="1" stop-color="#E1FFBB"/>
</linearGradient>
<clipPath id="clip0_106_749">
<rect width="26" height="26" fill="white" transform="translate(0.691284 0.107178)"/>
</clipPath>
</defs>
</svg>
