<svg width="57" height="57" viewBox="0 0 57 57" fill="none" xmlns="http://www.w3.org/2000/svg">
<g clip-path="url(#clip0_1_289)">
<path d="M24.3374 49.0439H24.2525L24.1562 48.6596C23.6776 46.7528 23.1827 44.7811 22.725 42.8377C22.0189 39.8392 21.2951 37.9257 17.2746 36.7851L13.3881 33.9934C12.7432 33.5303 11.9548 33.3451 11.1673 33.4709L8.57876 27.3608C6.82592 23.2233 4.54807 23.7066 3.89182 23.9535C2.2757 24.5609 1.32698 26.7022 1.90153 28.4458C1.90153 28.4458 5.27093 38.6739 5.30681 38.7841C5.8457 40.4379 6.51628 42.4961 8.05956 43.557L12.5584 46.6488C13.0603 46.9937 13.3596 47.4304 13.5006 48.0228L13.7433 49.0433H13.2362C12.7421 49.0433 12.279 49.2345 11.9321 49.5818C11.5851 49.929 11.3943 50.3923 11.3948 50.8865L11.3974 53.6154C11.3983 54.6296 12.2243 55.4549 13.2386 55.4549L24.3399 55.4556C24.834 55.4556 25.2971 55.2645 25.644 54.9172C25.9909 54.5699 26.1818 54.1066 26.1812 53.6125L26.1786 50.8837C26.1776 49.8691 25.3517 49.0439 24.3374 49.0439V49.0439ZM14.9903 47.6683C14.7626 46.7113 14.2363 45.9436 13.4257 45.3867L8.9269 42.2949C7.81138 41.5282 7.22995 39.7435 6.7627 38.3095C6.72628 38.1977 3.35588 27.9665 3.35588 27.9665C3.01234 26.9238 3.65962 25.6764 4.4306 25.3867C5.32113 25.0518 6.3451 26.0133 7.16892 27.958L9.76602 34.0883C9.55581 34.2567 9.36757 34.4547 9.20646 34.6789C8.74096 35.3269 8.55601 36.1198 8.68584 36.9113C8.81567 37.7029 9.24398 38.3951 9.89192 38.8606L15.2034 42.6759C15.5469 42.9226 16.0253 42.8441 16.2719 42.5007C16.5186 42.1573 16.4402 41.6789 16.0968 41.4321L10.7853 37.6168C10.4694 37.39 10.2605 37.0513 10.1969 36.6634C10.1332 36.2754 10.2231 35.8879 10.4499 35.572C10.6769 35.2562 11.0154 35.0471 11.4034 34.9836C11.7913 34.9198 12.1788 35.0098 12.4947 35.2368L16.4915 38.1077C16.5653 38.1606 16.6479 38.2001 16.7355 38.2241C20.1444 39.1598 20.6004 40.4957 21.2345 43.1884C21.6948 45.1426 22.191 47.1198 22.671 49.032L22.6738 49.0434L15.3172 49.043L14.9903 47.6683ZM24.5607 53.8346C24.5199 53.8754 24.4485 53.9241 24.3399 53.9241L13.2386 53.9233C13.0677 53.9233 12.9287 53.7843 12.9286 53.6135L12.9261 50.8846C12.926 50.776 12.9745 50.7046 13.0153 50.6637C13.0561 50.6229 13.1276 50.5742 13.2362 50.5742L23.6529 50.5749C23.6536 50.5749 23.6541 50.575 23.6548 50.575C23.6556 50.575 23.6564 50.5749 23.6573 50.5749H24.3375C24.5082 50.5749 24.6474 50.7139 24.6475 50.8846L24.6501 53.6135C24.6501 53.7224 24.6014 53.7938 24.5607 53.8346ZM53.6024 23.9534C52.9456 23.7067 50.668 23.2237 48.9154 27.3607L46.3268 33.4708C45.5392 33.3449 44.7509 33.5301 44.1061 33.9933L40.2195 36.785C36.1989 37.9256 35.4753 39.8391 34.7691 42.8376C34.3124 44.7768 33.8186 46.7447 33.3409 48.6475L33.2415 49.0436H33.1567C32.1424 49.0436 31.3164 49.8689 31.3155 50.8831L31.3129 53.6121C31.3125 54.1062 31.5033 54.5695 31.8503 54.9168C32.1972 55.264 32.6603 55.4552 33.1551 55.4552L44.2557 55.4544C45.27 55.4544 46.096 54.6292 46.0969 53.615L46.0995 50.8861C46.1 50.3919 45.9092 49.9286 45.5623 49.5813C45.2153 49.2341 44.7522 49.0429 44.2581 49.0429H43.7509L43.9936 48.0224C44.1346 47.4298 44.434 46.9932 44.9359 46.6483L49.4347 43.5565C50.9781 42.4958 51.6487 40.4374 52.1876 38.7834C52.2233 38.6733 55.5927 28.4454 55.5927 28.4454C56.1672 26.7021 55.2186 24.5608 53.6024 23.9534V23.9534ZM44.2581 50.5743C44.3668 50.5743 44.4381 50.623 44.479 50.6638C44.5198 50.7046 44.5684 50.776 44.5683 50.8848L44.5656 53.6138C44.5655 53.7845 44.4264 53.9234 44.2557 53.9234L33.1544 53.9242C33.0457 53.9242 32.9744 53.8755 32.9335 53.8347C32.8926 53.7939 32.8441 53.7225 32.8443 53.6138L32.8469 50.8848C32.847 50.714 32.9861 50.5751 33.1569 50.5751H33.8371C33.8379 50.5751 33.8387 50.5752 33.8396 50.5752C33.8401 50.5752 33.8408 50.5751 33.8414 50.5751L44.2581 50.5743ZM54.1383 27.9666C54.1383 27.9666 50.7679 38.1977 50.7316 38.3094C50.2644 39.7434 49.6829 41.5282 48.5673 42.2949L44.0686 45.3866C43.2581 45.9437 42.7316 46.7113 42.5039 47.6683L42.1769 49.0432L34.8203 49.0436L34.8261 49.0203C35.3051 47.1121 35.8002 45.139 36.2596 43.1887C36.8936 40.496 37.3497 39.1601 40.7586 38.2244C40.8462 38.2003 40.9289 38.1609 41.0026 38.108L44.9994 35.2371C45.3152 35.0102 45.7027 34.9202 46.0908 34.9839C46.4787 35.0475 46.8172 35.2565 47.0442 35.5724C47.271 35.8882 47.3609 36.2758 47.2974 36.6637C47.2339 37.0517 47.0248 37.3903 46.709 37.6171L41.3975 41.4325C41.0541 41.6792 40.9756 42.1576 41.2224 42.5011C41.469 42.8445 41.9474 42.9229 42.2909 42.6763L47.6023 38.8609C48.2504 38.3954 48.6787 37.7031 48.8084 36.9117C48.9382 36.1201 48.7533 35.3273 48.2878 34.6792C48.1267 34.4549 47.9383 34.257 47.7282 34.0886L50.3253 27.9583C51.1493 26.0134 52.1728 25.0525 53.0636 25.387C53.8346 25.6764 54.4819 26.9238 54.1383 27.9666V27.9666ZM31.8254 4.11568C31.946 3.71045 32.3722 3.48 32.7775 3.59998C36.143 4.60043 38.9891 6.81582 40.7916 9.83785C42.3213 12.4026 42.9798 15.3498 42.7007 18.2809L44.3969 17.0347C44.7375 16.784 45.2168 16.8577 45.4672 17.1984C45.7176 17.5391 45.6443 18.0182 45.3035 18.2686L42.0934 20.6272C41.9612 20.7244 41.8022 20.7758 41.6401 20.7758C41.6016 20.7758 41.5629 20.7729 41.5244 20.767C41.3237 20.7363 41.1433 20.6272 41.0231 20.4635L38.6645 17.2533C38.4142 16.9126 38.4875 16.4333 38.8283 16.183C39.169 15.9323 39.6481 16.0059 39.8986 16.3467L41.1794 18.0899C41.6977 12.3057 38.0348 6.76015 32.3414 5.06757C31.9358 4.94737 31.7049 4.52103 31.8254 4.11568V4.11568ZM38.4166 27.0906C35.8608 29.5111 32.5114 30.8687 28.9854 30.9132C26.0044 30.9495 23.1341 30.0474 20.7408 28.344L20.9719 30.4359C21.0184 30.8561 20.7153 31.2346 20.2951 31.281C20.2666 31.2841 20.2381 31.2857 20.21 31.2857C19.8249 31.2857 19.4933 30.9959 19.45 30.6041L19.0125 26.6449C18.9902 26.4431 19.0489 26.2407 19.1759 26.0821C19.3029 25.9235 19.4875 25.822 19.6893 25.7997L23.6487 25.3622C24.0695 25.3163 24.4473 25.6189 24.4938 26.0391C24.5403 26.4595 24.2372 26.8378 23.8169 26.8843L21.6668 27.1218C26.418 30.4653 33.0458 30.0682 37.3636 25.979C37.6706 25.6882 38.1552 25.7014 38.446 26.0084C38.7367 26.3152 38.7235 26.7998 38.4166 27.0906V27.0906ZM15.2536 20.2288C14.4362 16.8093 14.9332 13.2335 16.6529 10.1599C18.1091 7.55706 20.3304 5.517 23.0058 4.29451L21.0787 3.44882C20.6915 3.27886 20.5154 2.82725 20.6853 2.43995C20.8551 2.05287 21.3066 1.87689 21.694 2.04653L25.3417 3.64734C25.7289 3.81731 25.905 4.26892 25.7351 4.65621L24.1343 8.30387C23.9644 8.69095 23.5128 8.86704 23.1255 8.69729C22.7383 8.52732 22.5622 8.0756 22.7321 7.68842L23.6014 5.70753C18.3316 8.15053 15.3611 14.0925 16.7427 19.873C16.8411 20.2843 16.5873 20.6973 16.1761 20.7957C16.1162 20.8099 16.0563 20.8168 15.9974 20.8168C15.6515 20.8167 15.3376 20.5803 15.2536 20.2288V20.2288ZM28.4026 14.4378C25.0881 14.6518 22.4567 17.4146 22.4567 20.7819C22.4567 21.5247 22.8468 22.5537 24.7058 23.238C25.8028 23.642 27.2625 23.8644 28.816 23.8644C31.7495 23.8644 35.1753 23.0571 35.1753 20.7819C35.1753 17.4146 32.5439 14.6518 29.2296 14.4378C30.8828 14.2333 32.167 12.8211 32.167 11.1134C32.167 9.26582 30.6638 7.76279 28.8161 7.76279C26.9683 7.76279 25.4652 9.26582 25.4652 11.1134C25.4652 12.8209 26.7493 14.2333 28.4026 14.4378V14.4378ZM33.6439 20.7819C33.6439 21.5156 31.6611 22.3332 28.8159 22.3332C25.9706 22.3332 23.9878 21.5156 23.9878 20.7819C23.9878 18.1198 26.1538 15.9541 28.8161 15.9541C31.4782 15.9541 33.6439 18.1198 33.6439 20.7819ZM28.8161 9.29404C29.8194 9.29404 30.6358 10.1102 30.6358 11.1134C30.6358 12.1168 29.8195 12.9331 28.8161 12.9331C27.8127 12.9331 26.9964 12.1168 26.9964 11.1134C26.9964 10.1102 27.8128 9.29404 28.8161 9.29404Z" fill="url(#paint0_linear_1_289)" stroke="url(#paint1_linear_1_289)" stroke-width="0.5"/>
</g>
<defs>
<linearGradient id="paint0_linear_1_289" x1="10.4014" y1="11.5142" x2="47.2223" y2="11.5602" gradientUnits="userSpaceOnUse">
<stop stop-color="#B3F1FF"/>
<stop offset="1" stop-color="#E1FFBB"/>
</linearGradient>
<linearGradient id="paint1_linear_1_289" x1="10.4014" y1="11.5142" x2="47.2223" y2="11.5602" gradientUnits="userSpaceOnUse">
<stop stop-color="#B3F1FF"/>
<stop offset="1" stop-color="#E1FFBB"/>
</linearGradient>
<clipPath id="clip0_1_289">
<rect width="56" height="56" fill="white" transform="translate(0.74707 0.71875)"/>
</clipPath>
</defs>
</svg>
