<svg width="57" height="57" viewBox="0 0 57 57" fill="none" xmlns="http://www.w3.org/2000/svg">
<g clip-path="url(#clip0_1_312)">
<path fill-rule="evenodd" clip-rule="evenodd" d="M14.3831 13.8713C12.3834 11.9766 4.38707 11.3629 1.98377 11.2206C1.65248 11.2043 1.34677 11.3139 1.11348 11.5356C0.88007 11.7549 0.74707 12.0629 0.74707 12.3849V33.3849C0.74707 34.0289 1.26977 34.5516 1.91377 34.5516H8.91377C9.41777 34.5516 9.86577 34.2273 10.0221 33.7466L10.0222 33.746C10.0462 33.6726 10.1438 33.3729 10.2957 32.8948C10.4866 33.092 10.6917 33.3061 10.905 33.5287L11.1584 33.7931L11.1781 33.8137L11.1781 33.8137C12.2127 34.8946 13.2793 36.0089 13.9981 36.6118C18.3428 40.2495 23.5648 44.1765 24.6054 44.8601C25.4641 45.4248 27.3144 46.2181 28.7471 46.2181C29.8974 46.2181 30.7818 45.9544 31.3954 45.4388C32.2167 45.7585 33.1501 45.7608 34.0484 45.4108C35.1101 45.0001 35.9827 44.1718 36.4774 43.1685C37.3967 43.3645 38.4491 43.2268 39.4057 42.7462C40.3414 42.2749 41.018 41.5539 41.354 40.7115C42.2827 40.7605 43.2393 40.4315 44.0303 39.7525C45.0972 38.84 45.5482 37.5234 45.2961 36.213L47.1425 34.9728C47.2726 35.3922 47.3786 35.7489 47.4558 36.0286C47.5958 36.5349 48.0555 36.8849 48.5805 36.8849H55.5805C56.2245 36.8849 56.7472 36.3622 56.7472 35.7182V14.7182C56.7472 14.0719 56.2245 13.5516 55.5805 13.5516C46.4198 13.5516 41.3378 15.8966 41.1255 15.9946C40.8222 16.1369 40.5958 16.4006 40.5025 16.7203C40.4208 17.0003 40.4464 17.2982 40.5716 17.5591C38.8082 16.8908 36.3477 15.9188 33.8898 14.8185C29.6798 12.9365 26.965 13.5106 23.9561 15.8849H14.623C14.6727 15.5122 14.7129 15.1557 14.7424 14.8186C14.7728 14.4639 14.6421 14.1139 14.3831 13.8713ZM41.9768 20.5665C40.7589 20.1304 36.8439 18.6991 32.9355 16.9512C28.8055 15.1055 26.8502 16.0552 23.0585 19.8492C21.4649 21.4429 20.2352 23.8276 20.4802 24.8519C20.5152 25.0012 20.5805 25.1576 20.9445 25.2789C22.0855 25.6615 23.7935 25.8715 25.4432 23.4052C25.6369 23.1159 25.9495 22.9292 26.2972 22.8942C27.081 22.8151 27.2783 22.7268 27.8572 22.4675L27.8629 22.4649L27.9146 22.4418C28.2893 22.2749 28.7659 22.0626 29.5172 21.7906C29.9395 21.6389 30.4178 21.7416 30.7375 22.0636C32.0138 23.3399 34.0158 24.9592 36.1345 26.6719L36.1367 26.6737C39.3482 29.2717 42.6544 31.9464 44.2632 34.0955L46.3949 32.6636C45.197 29.0711 43.3461 23.895 41.9768 20.5665ZM12.8454 32.1784C12.1501 31.4523 11.5038 30.7817 11.0757 30.3798C12.0506 27.1624 13.4593 22.2322 14.2347 18.2183H21.39C19.7961 19.8215 17.6498 23.0329 18.2074 25.3909C18.4477 26.3989 19.1571 27.1456 20.2117 27.4932C22.8554 28.3659 25.268 27.5305 27.0647 25.1459C27.8067 25.0316 28.2104 24.8636 28.817 24.5906C29.0363 24.4926 29.293 24.3783 29.6337 24.2406C30.9684 25.4936 32.7697 26.9519 34.6667 28.4849L34.6733 28.4902C38.1017 31.2632 41.9869 34.4058 42.8614 36.2246C43.2931 37.1229 42.8287 37.7086 42.5137 37.9769C42.0724 38.3558 41.4758 38.4877 41.1242 38.2893C40.26 37.5982 36.5547 33.8048 34.2583 31.411C33.8126 30.9443 33.073 30.928 32.6086 31.376C32.1419 31.8217 32.1279 32.5613 32.5736 33.0257C33.1149 33.5901 37.4765 38.1365 39.2256 39.7309C39.0906 40.2367 38.5989 40.5386 38.3604 40.6579C37.6334 41.0259 36.8755 40.9737 36.5668 40.7209C36.5386 40.6932 36.5088 40.6667 36.4774 40.6416C35.0797 39.5239 31.5681 35.7929 30.7747 34.9296C30.336 34.4536 29.601 34.4256 29.125 34.8596C28.6512 35.2959 28.6187 36.0356 29.055 36.5093L29.0801 36.5362L29.0801 36.5363C29.3973 36.8773 32.6037 40.3236 34.4543 41.9813C34.2345 42.5348 33.7714 43.013 33.2083 43.2315C32.8592 43.3638 32.3562 43.4448 31.9 43.0513C31.8789 43.0307 31.8569 43.0106 31.834 42.9913C30.1703 41.589 26.766 37.9653 26.101 37.2536C25.66 36.7823 24.9203 36.7566 24.4513 37.1976C23.98 37.6386 23.9566 38.3759 24.3953 38.8473C25.1844 39.6921 27.5386 42.1895 29.3042 43.8529C29.1551 43.8729 28.9721 43.8848 28.747 43.8848C27.97 43.8848 26.5723 43.3598 25.8887 42.9071C25.0697 42.3681 19.934 38.5368 15.4984 34.8221C14.8754 34.2971 13.7974 33.1724 12.8454 32.1784ZM8.06207 32.2183H3.08037V13.6356C6.83007 13.9319 10.8761 14.5759 12.3461 15.2899C11.7278 20.3999 8.93007 29.4789 8.06207 32.2183ZM49.4532 34.5516H54.4139V15.899C48.8629 16.0296 45.0385 17.068 43.2582 17.6723C45.0805 21.5549 48.3472 30.9489 49.4532 34.5516Z" fill="url(#paint0_linear_1_312)"/>
</g>
<defs>
<linearGradient id="paint0_linear_1_312" x1="9.73202" y1="17.458" x2="47.8964" y2="17.5335" gradientUnits="userSpaceOnUse">
<stop stop-color="#B3F1FF"/>
<stop offset="1" stop-color="#E1FFBB"/>
</linearGradient>
<clipPath id="clip0_1_312">
<rect width="56" height="56" fill="white" transform="translate(0.74707 0.718628)"/>
</clipPath>
</defs>
</svg>
