<svg width="57" height="57" viewBox="0 0 57 57" fill="none" xmlns="http://www.w3.org/2000/svg">
<g clip-path="url(#clip0_1_295)">
<path fill-rule="evenodd" clip-rule="evenodd" d="M0.24707 28.7186C0.24707 13.2578 12.7862 0.718628 28.2471 0.718628C43.7079 0.718628 56.2471 13.2578 56.2471 28.7186C56.2471 44.1795 43.7079 56.7186 28.2471 56.7186C12.7862 56.7186 0.24707 44.1795 0.24707 28.7186ZM2.68185 28.7186C2.68185 42.8404 14.1253 54.2838 28.2471 54.2838C42.3688 54.2838 53.8123 42.8404 53.8123 28.7186C53.8123 14.5969 42.3688 3.15341 28.2471 3.15341C14.1253 3.15341 2.68185 14.5969 2.68185 28.7186ZM28.2471 9.84906C28.9166 9.84906 29.4645 9.30123 29.4645 8.63167V8.02297C29.4645 7.35341 28.9166 6.80558 28.2471 6.80558C27.5775 6.80558 27.0297 7.35341 27.0297 8.02297V8.63167C27.0297 9.30123 27.5775 9.84906 28.2471 9.84906ZM28.2471 47.5882C27.5775 47.5882 27.0297 48.136 27.0297 48.8056V49.4143C27.0297 50.0838 27.5775 50.6317 28.2471 50.6317C28.9166 50.6317 29.4645 50.0838 29.4645 49.4143V48.8056C29.4645 48.136 28.9166 47.5882 28.2471 47.5882ZM7.55142 27.5012H8.16011C8.82968 27.5012 9.3775 28.0491 9.3775 28.7186C9.3775 29.3882 8.82968 29.936 8.16011 29.936H7.55142C6.88185 29.936 6.33403 29.3882 6.33403 28.7186C6.33403 28.0491 6.88185 27.5012 7.55142 27.5012ZM48.9427 27.5012H48.334C47.6645 27.5012 47.1166 28.0491 47.1166 28.7186C47.1166 29.3882 47.6645 29.936 48.334 29.936H48.9427C49.6123 29.936 50.1601 29.3882 50.1601 28.7186C50.1601 28.0491 49.6123 27.5012 48.9427 27.5012ZM12.7862 13.2578C13.2732 12.7708 14.0036 12.7708 14.4905 13.2578L14.9166 13.6838C15.4036 14.1708 15.4036 14.9012 14.9166 15.3882C14.6732 15.6317 14.3688 15.7534 14.0645 15.7534C13.7601 15.7534 13.4558 15.6317 13.2123 15.3882L12.7862 14.9621C12.2992 14.4751 12.2992 13.7447 12.7862 13.2578ZM13.2123 42.0491L12.7862 42.4751C12.2992 42.9621 12.2992 43.6925 12.7862 44.1795C13.0297 44.423 13.334 44.5447 13.6384 44.5447C13.9427 44.5447 14.2471 44.423 14.4905 44.1795L14.9166 43.7534C15.4036 43.2665 15.4036 42.536 14.9166 42.0491C14.4297 41.5621 13.6992 41.5621 13.2123 42.0491ZM41.5775 13.6838L42.0036 13.2578C42.4905 12.7708 43.221 12.7708 43.7079 13.2578C44.1949 13.7447 44.1949 14.4751 43.7079 14.9621L43.2818 15.3882C43.0384 15.6317 42.734 15.7534 42.4297 15.7534C42.1253 15.7534 41.821 15.6317 41.5775 15.3882C41.0905 14.9012 41.0905 14.1708 41.5775 13.6838ZM29.4645 28.2317V17.1534C29.4645 16.4838 28.9166 15.936 28.2471 15.936C27.5775 15.936 27.0297 16.4838 27.0297 17.1534V28.7186C27.0297 29.023 27.1514 29.3273 27.3949 29.5708L40.7253 42.9012C40.9688 43.1447 41.2732 43.2665 41.5775 43.2665C41.8818 43.2665 42.1862 43.1447 42.4297 42.9012C42.9166 42.4143 42.9166 41.6838 42.4297 41.1969L29.4645 28.2317Z" fill="url(#paint0_linear_1_295)"/>
</g>
<defs>
<linearGradient id="paint0_linear_1_295" x1="9.232" y1="10.7013" x2="47.3964" y2="10.7485" gradientUnits="userSpaceOnUse">
<stop stop-color="#B3F1FF"/>
<stop offset="1" stop-color="#E1FFBB"/>
</linearGradient>
<clipPath id="clip0_1_295">
<rect width="56" height="56" fill="white" transform="translate(0.24707 0.718628)"/>
</clipPath>
</defs>
</svg>
