<svg width="57" height="57" viewBox="0 0 57 57" fill="none" xmlns="http://www.w3.org/2000/svg">
<path fill-rule="evenodd" clip-rule="evenodd" d="M41.3054 10.1189L38.7914 8.21278C38.4204 7.93147 38.2679 7.44607 38.4119 7.00321C38.5558 6.56035 38.9643 6.25716 39.4298 6.24764L42.5842 6.18344L43.6202 3.2033C43.773 2.76339 44.1876 2.46863 44.6532 2.46863C45.1189 2.46863 45.5335 2.76339 45.6862 3.20341L46.7222 6.18355L49.8766 6.24775C50.3421 6.25727 50.7507 6.56046 50.8945 7.00332C51.0383 7.44618 50.8861 7.93158 50.515 8.21289L48.001 10.119L48.9146 13.1388C49.1269 13.8399 48.6006 14.5493 47.8678 14.5493C47.6495 14.5493 47.4309 14.484 47.243 14.3533L44.6532 12.5511L42.0634 14.3532C41.6812 14.6191 41.1724 14.6138 40.7957 14.3403C40.419 14.0665 40.2569 13.5844 40.3918 13.1387L41.3054 10.1189ZM44.4005 7.62052C44.2503 8.05266 43.8472 8.34568 43.3897 8.35497L42.6206 8.37061L43.2337 8.83546C43.5982 9.11185 43.7522 9.58599 43.6198 10.0238L43.397 10.7603L44.0286 10.3208C44.4042 10.0595 44.9025 10.0595 45.2781 10.3208L45.9097 10.7603L45.6869 10.0238C45.5545 9.58588 45.7085 9.11185 46.073 8.83546L46.6861 8.37061L45.9167 8.35497C45.4594 8.34557 45.0562 8.05266 44.906 7.62052L44.6532 6.89361L44.4005 7.62052ZM22.3852 20.244L24.8994 22.1501L23.9858 25.17C23.851 25.6157 24.0131 26.0978 24.3898 26.3716C24.7664 26.6453 25.2753 26.6505 25.6574 26.3845L28.2471 24.5824L30.8369 26.3846C31.0248 26.5153 31.2433 26.5806 31.4616 26.5806C32.1944 26.5806 32.7207 25.8712 32.5084 25.1701L31.5948 22.1502L34.1088 20.2441C34.4799 19.9628 34.6322 19.4774 34.4884 19.0346C34.3445 18.5917 33.9359 18.2885 33.4704 18.279L30.316 18.2148L29.28 15.2347C29.1273 14.7946 28.7127 14.4999 28.2471 14.4999C27.7815 14.4999 27.3668 14.7946 27.2139 15.2345L26.178 18.2147L23.0237 18.2789C22.5582 18.2884 22.1497 18.5916 22.0057 19.0345C21.8619 19.4773 22.0141 19.9627 22.3852 20.244ZM26.9836 20.3862C27.441 20.3769 27.8443 20.0839 27.9944 19.6518L28.2472 18.9249L28.5 19.6518C28.6501 20.0839 29.0534 20.3768 29.5107 20.3862L30.28 20.4019L29.667 20.8667C29.3024 21.1431 29.1484 21.6171 29.2809 22.0551L29.5037 22.7916L28.8721 22.352C28.4966 22.0908 27.9981 22.0907 27.6226 22.352L26.9909 22.7916L27.2137 22.0551C27.3462 21.6172 27.1922 21.1431 26.8276 20.8667L26.2145 20.4019L26.9836 20.3862ZM50.1221 18.8749H39.1846C38.5806 18.8749 38.0908 19.3645 38.0908 19.9686V53.8749C38.0908 54.4788 38.5806 54.9686 39.1846 54.9686H50.1221C50.726 54.9686 51.2158 54.4788 51.2158 53.8749V19.9686C51.2158 19.3645 50.726 18.8749 50.1221 18.8749ZM49.0283 52.7811H40.2783V21.0624H49.0283V52.7811ZM22.7783 30.9061H33.7158C34.3198 30.9061 34.8096 31.3959 34.8096 31.9999V53.8749C34.8096 54.4788 34.3198 54.9686 33.7158 54.9686H22.7783C22.1742 54.9686 21.6846 54.4788 21.6846 53.8749V31.9999C21.6846 31.3959 22.1742 30.9061 22.7783 30.9061ZM23.8721 52.7811H32.6221V33.0936H23.8721V52.7811ZM6.37207 38.5624H17.3096C17.9136 38.5624 18.4033 39.0522 18.4033 39.6561V53.8749C18.4033 54.4788 17.9136 54.9686 17.3096 54.9686H6.37207C5.76799 54.9686 5.27832 54.4788 5.27832 53.8749V39.6561C5.27832 39.0522 5.76799 38.5624 6.37207 38.5624ZM7.46582 52.7811H16.2158V40.7499H7.46582V52.7811ZM8.4932 29.8064L5.97899 27.9003C5.60788 27.619 5.45563 27.1336 5.59946 26.6907C5.7434 26.2478 6.15192 25.9447 6.61742 25.9351L9.77179 25.8709L10.8077 22.8908C10.9606 22.4509 11.3752 22.1561 11.8408 22.1561C12.3064 22.1561 12.7211 22.4509 12.8739 22.8909L13.9098 25.871L17.0641 25.9353C17.5296 25.9448 17.9382 26.248 18.0821 26.6908C18.226 27.1337 18.0738 27.6191 17.7027 27.9004L15.1885 29.8065L16.1021 32.8263C16.3142 33.5274 15.7881 34.2368 15.0552 34.2368C14.8368 34.2368 14.6184 34.1715 14.4305 34.0408L11.8408 32.2386L9.25117 34.0406C8.8689 34.3066 8.3602 34.3015 7.98351 34.0277C7.60682 33.754 7.44473 33.2718 7.57959 32.8262L8.4932 29.8064ZM11.5882 27.308C11.438 27.7402 11.0347 28.0332 10.5773 28.0425L9.80778 28.0581L10.421 28.5231C10.7856 28.7995 10.9396 29.2735 10.8071 29.7113L10.5843 30.4478L11.216 30.0083C11.5923 29.7464 12.0904 29.7474 12.4655 30.0083L13.0971 30.4478L12.8743 29.7113C12.7419 29.2735 12.8959 28.7995 13.2604 28.5231L13.8737 28.0581L13.1043 28.0425C12.647 28.0331 12.2438 27.7402 12.0935 27.308L11.8408 26.5811L11.5882 27.308Z" fill="url(#paint0_linear_1_342)"/>
<defs>
<linearGradient id="paint0_linear_1_342" x1="12.6488" y1="11.8274" x2="43.9555" y2="11.8612" gradientUnits="userSpaceOnUse">
<stop stop-color="#B3F1FF"/>
<stop offset="1" stop-color="#E1FFBB"/>
</linearGradient>
</defs>
</svg>
