<svg width="206" height="33" viewBox="0 0 206 33" fill="none" xmlns="http://www.w3.org/2000/svg">
<path fill-rule="evenodd" clip-rule="evenodd" d="M23.0688 3.31229C20.9278 -1.04292 14.7464 -1.12005 12.4974 3.1804L0.493189 26.1348C-0.997304 28.9849 1.07018 32.3992 4.2865 32.3992L20.9751 32.3992C28.5333 32.3992 33.4702 24.471 30.1358 17.6881L23.0688 3.31229ZM19.5771 29.5006C24.1393 29.5006 27.8378 25.8022 27.8378 21.2399C27.8378 16.6776 24.1393 12.9792 19.5771 12.9792C15.0148 12.9792 11.3163 16.6776 11.3163 21.2399C11.3163 25.8022 15.0148 29.5006 19.5771 29.5006Z" fill="url(#paint0_linear_276_19)"/>
<path d="M37.0661 26.3992L44.3204 9.78449H46.7073L53.9617 26.3992H51.1067L49.2112 22.0466H41.7697L39.8976 26.3992H37.0661ZM45.4905 13.4819L42.8228 19.6129H48.1582L45.4905 13.4819ZM59.6896 26.6332C58.3479 26.6332 57.2871 26.1886 56.5071 25.2994C55.727 24.3945 55.337 23.1933 55.337 21.6956V14.6987H57.9111V21.2744C57.9111 22.2104 58.1139 22.9515 58.5196 23.4975C58.9252 24.0279 59.5024 24.2931 60.2512 24.2931C61.1249 24.2931 61.8191 23.9655 62.3339 23.3103C62.8487 22.6395 63.1062 21.6878 63.1062 20.4554V14.6987H65.6803V26.3992H63.1062V24.808C62.4197 26.0248 61.2809 26.6332 59.6896 26.6332ZM74.2218 26.5162C73.0362 26.5162 72.0689 26.1886 71.3201 25.5334C70.5869 24.8626 70.2203 23.8953 70.2203 22.6317V16.992H67.7865V14.6987H70.2203V11.446H72.7944V14.6987H76.1407V16.992H72.7944V22.2104C72.7944 22.9281 72.9504 23.4429 73.2624 23.7549C73.5744 24.0513 74.0736 24.1995 74.7601 24.1995C75.3217 24.1995 75.7819 24.1215 76.1407 23.9655V26.2588C75.5791 26.4304 74.9395 26.5162 74.2218 26.5162ZM88.0632 24.8782C86.8931 26.0482 85.4423 26.6332 83.7106 26.6332C81.9789 26.6332 80.5202 26.0482 79.3346 24.8782C78.1645 23.6925 77.5795 22.2494 77.5795 20.549C77.5795 18.8485 78.1645 17.4132 79.3346 16.2432C80.5202 15.0575 81.9789 14.4647 83.7106 14.4647C85.4423 14.4647 86.8931 15.0575 88.0632 16.2432C89.2488 17.4132 89.8417 18.8485 89.8417 20.549C89.8417 22.2494 89.2488 23.6925 88.0632 24.8782ZM83.7106 24.2463C84.7246 24.2463 85.5593 23.8953 86.2145 23.1933C86.8853 22.4757 87.2207 21.5942 87.2207 20.549C87.2207 19.5037 86.8853 18.6301 86.2145 17.9281C85.5593 17.2104 84.7246 16.8516 83.7106 16.8516C82.6809 16.8516 81.8307 17.2104 81.1599 17.9281C80.5046 18.6301 80.177 19.5037 80.177 20.549C80.177 21.5942 80.5046 22.4757 81.1599 23.1933C81.8307 23.8953 82.6809 24.2463 83.7106 24.2463ZM95.0047 31.29H92.4306V14.6987H95.0047V16.2666C95.3635 15.7674 95.8783 15.3461 96.5492 15.0029C97.2356 14.6441 97.9766 14.4647 98.7723 14.4647C100.364 14.4647 101.697 15.0575 102.774 16.2432C103.866 17.4288 104.412 18.8641 104.412 20.549C104.412 22.2338 103.866 23.6691 102.774 24.8548C101.697 26.0404 100.364 26.6332 98.7723 26.6332C97.9766 26.6332 97.2356 26.4616 96.5492 26.1184C95.8783 25.7596 95.3635 25.3306 95.0047 24.8314V31.29ZM98.3042 24.2931C99.3183 24.2931 100.153 23.9343 100.808 23.2167C101.463 22.4991 101.791 21.6098 101.791 20.549C101.791 19.4881 101.463 18.5989 100.808 17.8813C100.153 17.1636 99.3183 16.8048 98.3042 16.8048C97.2746 16.8048 96.4322 17.1636 95.7769 17.8813C95.1217 18.5989 94.7941 19.4881 94.7941 20.549C94.7941 21.6098 95.1217 22.4991 95.7769 23.2167C96.4322 23.9343 97.2746 24.2931 98.3042 24.2931ZM108.32 12.148C107.852 12.148 107.447 11.9842 107.104 11.6566C106.76 11.3134 106.589 10.8999 106.589 10.4163C106.589 9.9483 106.76 9.55048 107.104 9.22287C107.447 8.87965 107.852 8.70805 108.32 8.70805C108.804 8.70805 109.21 8.87965 109.537 9.22287C109.865 9.55048 110.029 9.9483 110.029 10.4163C110.029 10.8999 109.865 11.3134 109.537 11.6566C109.21 11.9842 108.804 12.148 108.32 12.148ZM107.033 26.3992V14.6987H109.607V26.3992H107.033ZM113.066 26.3992V8.84845H115.641V26.3992H113.066ZM128.741 24.8782C127.571 26.0482 126.12 26.6332 124.388 26.6332C122.656 26.6332 121.198 26.0482 120.012 24.8782C118.842 23.6925 118.257 22.2494 118.257 20.549C118.257 18.8485 118.842 17.4132 120.012 16.2432C121.198 15.0575 122.656 14.4647 124.388 14.4647C126.12 14.4647 127.571 15.0575 128.741 16.2432C129.926 17.4132 130.519 18.8485 130.519 20.549C130.519 22.2494 129.926 23.6925 128.741 24.8782ZM124.388 24.2463C125.402 24.2463 126.237 23.8953 126.892 23.1933C127.563 22.4757 127.898 21.5942 127.898 20.549C127.898 19.5037 127.563 18.6301 126.892 17.9281C126.237 17.2104 125.402 16.8516 124.388 16.8516C123.359 16.8516 122.508 17.2104 121.837 17.9281C121.182 18.6301 120.855 19.5037 120.855 20.549C120.855 21.5942 121.182 22.4757 121.837 23.1933C122.508 23.8953 123.359 24.2463 124.388 24.2463ZM137.958 26.5162C136.772 26.5162 135.805 26.1886 135.056 25.5334C134.323 24.8626 133.956 23.8953 133.956 22.6317V16.992H131.522V14.6987H133.956V11.446H136.53V14.6987H139.877V16.992H136.53V22.2104C136.53 22.9281 136.686 23.4429 136.998 23.7549C137.31 24.0513 137.809 24.1995 138.496 24.1995C139.058 24.1995 139.518 24.1215 139.877 23.9655V26.2588C139.315 26.4304 138.675 26.5162 137.958 26.5162ZM155.758 26.68C153.278 26.68 151.211 25.861 149.557 24.2229C147.903 22.5693 147.076 20.5256 147.076 18.0919C147.076 15.6582 147.895 13.6223 149.533 11.9842C151.187 10.3305 153.254 9.50368 155.735 9.50368C157.56 9.50368 159.19 9.9951 160.626 10.9779C162.061 11.9608 163.051 13.201 163.598 14.6987H160.485C160.048 13.9343 159.401 13.3181 158.543 12.85C157.7 12.382 156.764 12.148 155.735 12.148C154.019 12.148 152.607 12.7174 151.499 13.8563C150.392 14.9951 149.838 16.407 149.838 18.0919C149.838 19.7767 150.392 21.1886 151.499 22.3275C152.607 23.4663 154.026 24.0357 155.758 24.0357C157.271 24.0357 158.512 23.5989 159.479 22.7253C160.446 21.8516 161.023 20.6972 161.211 19.2619H155.524V16.6878H164.019C164.315 19.7767 163.652 22.2182 162.03 24.0123C160.423 25.7908 158.332 26.68 155.758 26.68ZM171.964 26.6332C170.217 26.6332 168.782 26.0638 167.659 24.925C166.535 23.7705 165.974 22.3118 165.974 20.549C165.974 18.7861 166.528 17.3352 167.635 16.1964C168.743 15.0419 170.194 14.4647 171.988 14.4647C173.798 14.4647 175.256 15.0965 176.364 16.3602C177.472 17.6082 177.963 19.2151 177.838 21.1808H168.525C168.556 22.0856 168.899 22.8423 169.554 23.4507C170.209 24.0591 171.044 24.3633 172.058 24.3633C173.493 24.3633 174.476 23.8173 175.007 22.7253H177.698C177.339 23.8641 176.653 24.8002 175.638 25.5334C174.624 26.2666 173.4 26.6332 171.964 26.6332ZM171.918 16.6176C171.075 16.6176 170.35 16.8594 169.741 17.343C169.149 17.8111 168.766 18.4819 168.595 19.3555H175.077C174.89 18.4507 174.507 17.772 173.93 17.3196C173.353 16.8516 172.682 16.6176 171.918 16.6176ZM185.653 26.6332C183.906 26.6332 182.471 26.0638 181.347 24.925C180.224 23.7705 179.663 22.3118 179.663 20.549C179.663 18.7861 180.216 17.3352 181.324 16.1964C182.432 15.0419 183.883 14.4647 185.677 14.4647C187.486 14.4647 188.945 15.0965 190.053 16.3602C191.16 17.6082 191.652 19.2151 191.527 21.1808H182.213C182.244 22.0856 182.588 22.8423 183.243 23.4507C183.898 24.0591 184.733 24.3633 185.747 24.3633C187.182 24.3633 188.165 23.8173 188.695 22.7253H191.386C191.028 23.8641 190.341 24.8002 189.327 25.5334C188.313 26.2666 187.088 26.6332 185.653 26.6332ZM185.606 16.6176C184.764 16.6176 184.039 16.8594 183.43 17.343C182.837 17.8111 182.455 18.4819 182.283 19.3555H188.766C188.578 18.4507 188.196 17.772 187.619 17.3196C187.042 16.8516 186.371 16.6176 185.606 16.6176ZM202.337 26.3992L196.744 20.7596V26.3992H194.17V8.84845H196.744V19.1449L201.214 14.6987H204.467L199.248 19.9171L205.637 26.3992H202.337Z" fill="white"/>
<defs>
<linearGradient id="paint0_linear_276_19" x1="5.00522" y1="5.77554" x2="26.2654" y2="5.80085" gradientUnits="userSpaceOnUse">
<stop stop-color="#B3F1FF"/>
<stop offset="1" stop-color="#E1FFBB"/>
</linearGradient>
</defs>
</svg>
