<svg width="83" height="84" viewBox="0 0 83 84" fill="none" xmlns="http://www.w3.org/2000/svg">
<g filter="url(#filter0_bi_11_752)">
<rect x="1.75488" y="2.00012" width="80" height="80" rx="13.3264" fill="url(#paint0_radial_11_752)" fill-opacity="0.36"/>
<rect x="1.18435" y="1.42959" width="81.1411" height="81.1411" rx="13.8969" stroke="url(#paint1_linear_11_752)" stroke-opacity="0.12" stroke-width="1.14106"/>
</g>
<g clip-path="url(#clip0_11_752)">
<path d="M28.6447 27.016H36.1368L39.8828 36.3811L35.2003 39.1906C37.2062 43.2579 40.4981 46.5498 44.5654 48.5557L47.3749 43.8732L56.74 47.6192V55.1113C56.74 56.1048 56.3453 57.0576 55.6428 57.7601C54.9403 58.4626 53.9875 58.8573 52.994 58.8573C45.6878 58.4133 38.7968 55.3107 33.621 50.135C28.4453 44.9592 25.3427 38.0682 24.8987 30.762C24.8987 29.7685 25.2934 28.8157 25.9959 28.1132C26.6984 27.4107 27.6512 27.016 28.6447 27.016" stroke="url(#paint2_linear_11_752)" stroke-width="2.56871" stroke-linecap="round" stroke-linejoin="round"/>
<path d="M47.3748 32.635C48.3683 32.635 49.3211 33.0297 50.0236 33.7322C50.7261 34.4347 51.1208 35.3875 51.1208 36.381" stroke="url(#paint3_linear_11_752)" stroke-width="2.56871" stroke-linecap="round" stroke-linejoin="round"/>
<path d="M47.3748 25.1431C50.3553 25.1431 53.2137 26.3271 55.3213 28.4346C57.4289 30.5422 58.6129 33.4006 58.6129 36.3812" stroke="url(#paint4_linear_11_752)" stroke-width="2.56871" stroke-linecap="round" stroke-linejoin="round"/>
</g>
<defs>
<filter id="filter0_bi_11_752" x="-47.3106" y="-47.0654" width="178.131" height="178.131" filterUnits="userSpaceOnUse" color-interpolation-filters="sRGB">
<feFlood flood-opacity="0" result="BackgroundImageFix"/>
<feGaussianBlur in="BackgroundImageFix" stdDeviation="23.9622"/>
<feComposite in2="SourceAlpha" operator="in" result="effect1_backgroundBlur_11_752"/>
<feBlend mode="normal" in="SourceGraphic" in2="effect1_backgroundBlur_11_752" result="shape"/>
<feColorMatrix in="SourceAlpha" type="matrix" values="0 0 0 0 0 0 0 0 0 0 0 0 0 0 0 0 0 0 127 0" result="hardAlpha"/>
<feOffset dx="-5.70529" dy="-5.70529"/>
<feGaussianBlur stdDeviation="142.632"/>
<feComposite in2="hardAlpha" operator="arithmetic" k2="-1" k3="1"/>
<feColorMatrix type="matrix" values="0 0 0 0 1 0 0 0 0 1 0 0 0 0 1 0 0 0 0.02 0"/>
<feBlend mode="normal" in2="shape" result="effect2_innerShadow_11_752"/>
</filter>
<radialGradient id="paint0_radial_11_752" cx="0" cy="0" r="1" gradientUnits="userSpaceOnUse" gradientTransform="translate(1.75488 2.00012) rotate(45) scale(113.137 78.6121)">
<stop stop-color="white" stop-opacity="0.31"/>
<stop offset="1" stop-color="white" stop-opacity="0"/>
</radialGradient>
<linearGradient id="paint1_linear_11_752" x1="1.75488" y1="2.00012" x2="18.8105" y2="91.0051" gradientUnits="userSpaceOnUse">
<stop stop-color="white"/>
<stop offset="1" stop-color="#EEEDED" stop-opacity="0.24"/>
</linearGradient>
<linearGradient id="paint2_linear_11_752" x1="30.0075" y1="32.6921" x2="51.7076" y2="32.7189" gradientUnits="userSpaceOnUse">
<stop stop-color="#B3F1FF"/>
<stop offset="1" stop-color="#E1FFBB"/>
</linearGradient>
<linearGradient id="paint3_linear_11_752" x1="47.9758" y1="33.3028" x2="50.5287" y2="33.3059" gradientUnits="userSpaceOnUse">
<stop stop-color="#B3F1FF"/>
<stop offset="1" stop-color="#E1FFBB"/>
</linearGradient>
<linearGradient id="paint4_linear_11_752" x1="49.1779" y1="27.1464" x2="56.8367" y2="27.1559" gradientUnits="userSpaceOnUse">
<stop stop-color="#B3F1FF"/>
<stop offset="1" stop-color="#E1FFBB"/>
</linearGradient>
<clipPath id="clip0_11_752">
<rect width="44.9524" height="44.9524" fill="white" transform="translate(19.2788 19.5239)"/>
</clipPath>
</defs>
</svg>
