<svg width="22" height="21" viewBox="0 0 22 21" fill="none" xmlns="http://www.w3.org/2000/svg">
<path fill-rule="evenodd" clip-rule="evenodd" d="M11 0.504883C11.3459 0.504883 11.6777 0.642309 11.9223 0.886918C12.1669 1.13153 12.3043 1.4633 12.3043 1.80923V9.20053H19.6957C20.0416 9.20053 20.3734 9.33796 20.6179 9.58257C20.8626 9.82718 21 10.159 21 10.5049C21 10.8508 20.8626 11.1826 20.6179 11.4272C20.3734 11.6718 20.0416 11.8092 19.6957 11.8092H12.3043V19.2005C12.3043 19.5464 12.1669 19.8783 11.9223 20.1228C11.6777 20.3675 11.3459 20.5049 11 20.5049C10.6541 20.5049 10.3223 20.3675 10.0777 20.1228C9.83308 19.8783 9.69565 19.5464 9.69565 19.2005V11.8092H2.30435C1.95842 11.8092 1.62664 11.6718 1.38203 11.4272C1.13743 11.1826 1 10.8508 1 10.5049C1 10.159 1.13743 9.82718 1.38203 9.58257C1.62664 9.33796 1.95842 9.20053 2.30435 9.20053H9.69565V1.80923C9.69565 1.4633 9.83308 1.13153 10.0777 0.886918C10.3223 0.642309 10.6541 0.504883 11 0.504883Z" fill="url(#paint0_linear_42_804)" stroke="url(#paint1_linear_42_804)" stroke-width="0.5"/>
<defs>
<linearGradient id="paint0_linear_42_804" x1="4.2089" y1="4.07012" x2="17.839" y2="4.08697" gradientUnits="userSpaceOnUse">
<stop stop-color="#B3F1FF"/>
<stop offset="1" stop-color="#E1FFBB"/>
</linearGradient>
<linearGradient id="paint1_linear_42_804" x1="4.2089" y1="4.07012" x2="17.839" y2="4.08697" gradientUnits="userSpaceOnUse">
<stop stop-color="#B3F1FF"/>
<stop offset="1" stop-color="#E1FFBB"/>
</linearGradient>
</defs>
</svg>
