<svg width="27" height="27" viewBox="0 0 27 27" fill="none" xmlns="http://www.w3.org/2000/svg">
<g clip-path="url(#clip0_106_701)">
<path fill-rule="evenodd" clip-rule="evenodd" d="M7.72946 2.86456C8.06141 2.53261 8.5996 2.53261 8.93155 2.86456L13.6869 7.61987L17.3709 3.93579C18.0986 3.20814 19.0855 2.79935 20.1145 2.79935C21.1436 2.79935 22.1305 3.20814 22.8581 3.93579C23.5858 4.66343 23.9946 5.65033 23.9946 6.67938C23.9946 7.70842 23.5858 8.69532 22.8581 9.42297L21.2595 11.0216L21.2512 11.03L21.2428 11.0383L19.174 13.1071L23.9294 17.8624C24.2613 18.1944 24.2613 18.7326 23.9294 19.0645L19.6443 23.3496C19.3124 23.6816 18.7742 23.6816 18.4422 23.3496L13.6868 18.5943L8.93155 23.3496C8.77214 23.509 8.55594 23.5985 8.33051 23.5985H4.0454C3.57596 23.5985 3.1954 23.218 3.1954 22.7485V18.4634C3.1954 18.238 3.28496 18.0218 3.44436 17.8624L8.19968 13.1071L3.44436 8.35174C3.11242 8.0198 3.11242 7.48161 3.44436 7.14966L7.72946 2.86456ZM14.8889 17.3922L17.9719 14.3092L22.1263 18.4635L19.0433 21.5465L17.5671 20.0703L18.573 19.0644C18.905 18.7325 18.905 18.1943 18.573 17.8623C18.2411 17.5304 17.7029 17.5304 17.3709 17.8623L16.365 18.8683L14.8889 17.3922ZM14.2879 9.42302L14.2826 9.4283L10.0081 13.7028L10.0028 13.7081L9.99747 13.7134L4.8954 18.8155V21.8985H7.97843L19.448 10.4289L16.365 7.34588L14.2932 9.41769L14.2879 9.42302ZM8.3305 4.66768L12.4848 8.82195L9.40176 11.905L7.92563 10.4288L8.93155 9.42292C9.2635 9.09097 9.2635 8.55278 8.93155 8.22084C8.59961 7.88889 8.06142 7.88889 7.72947 8.22084L6.72355 9.22676L5.24749 7.7507L8.3305 4.66768ZM20.6501 9.22681L21.656 8.22089C22.0649 7.81206 22.2946 7.25756 22.2946 6.67938C22.2946 6.1012 22.0649 5.5467 21.656 5.13787C21.2472 4.72904 20.6927 4.49935 20.1145 4.49935C19.5364 4.49935 18.9819 4.72904 18.573 5.13787L17.5671 6.14379L20.6501 9.22681Z" fill="url(#paint0_linear_106_701)"/>
</g>
<defs>
<linearGradient id="paint0_linear_106_701" x1="6.56202" y1="6.35606" x2="20.862" y2="6.37374" gradientUnits="userSpaceOnUse">
<stop stop-color="#B3F1FF"/>
<stop offset="1" stop-color="#E1FFBB"/>
</linearGradient>
<clipPath id="clip0_106_701">
<rect width="26" height="26" fill="white" transform="translate(0.68689 0.107178)"/>
</clipPath>
</defs>
</svg>
