<svg width="69" height="69" viewBox="0 0 69 69" fill="none" xmlns="http://www.w3.org/2000/svg">
<path fill-rule="evenodd" clip-rule="evenodd" d="M63.0572 41.2849C62.754 40.6785 62.6323 40.6791 56.4995 40.7076C54.8121 40.7154 52.6698 40.7254 49.9435 40.7254C49.9435 31.8437 49.9567 26.063 49.9654 22.2837C49.9811 15.4655 49.9818 15.1615 49.8626 14.9157C49.857 14.9041 49.8512 14.8927 49.8451 14.8808L49.8417 14.8744C49.8339 14.8573 49.8291 14.8442 49.8248 14.8321L49.8206 14.8207C49.7735 14.6954 49.6696 14.5916 46.1193 11.0418L46.1182 11.0408L46.1166 11.0391L46.1076 11.0301L46.0987 11.0213C44.9591 9.88184 43.4663 8.38932 41.5096 6.43032C41.4944 6.41543 41.4809 6.4012 41.468 6.38759C41.4545 6.37341 41.4417 6.35991 41.4283 6.34707C41.1634 6.09367 40.6552 6.09468 30.1191 6.11561C25.9511 6.12389 20.2138 6.13529 12.3013 6.13529C12.0315 6.13529 11.7727 6.24248 11.582 6.43327C11.3912 6.62406 11.284 6.88283 11.284 7.15265V20.3783H7.21456C6.94474 20.3783 6.68597 20.4854 6.49518 20.6762C6.30439 20.867 6.1972 21.1258 6.1972 21.3956V35.6386C6.1972 35.9084 6.30439 36.1672 6.49518 36.358C6.68597 36.5488 6.94474 36.6559 7.21456 36.6559H11.284V58.0204C11.284 58.2902 11.3912 58.549 11.582 58.7398C11.7727 58.9306 12.0315 59.0378 12.3013 59.0378H28.579V62.0898C28.579 62.3596 28.6862 62.6184 28.877 62.8092C29.0678 63 29.3266 63.1072 29.5964 63.1072H62.1517C62.4216 63.1072 62.6803 63 62.8711 62.8092C63.0619 62.6184 63.1691 62.3596 63.1691 62.0898C63.1691 56.9977 63.172 53.1694 63.1742 50.2874V50.2813L63.1742 50.2718C63.1807 41.7568 63.1809 41.5157 63.0808 41.3283C63.0734 41.3146 63.0656 41.3012 63.0572 41.2849ZM57.8382 42.7601L45.8741 48.7421L33.91 42.7601H57.8382ZM46.4743 14.2741H41.8046V9.60447L46.4743 14.2741ZM8.23191 22.413H26.5443V34.6212H8.23191V22.413ZM13.3187 57.003V36.6559H27.5617C27.8315 36.6559 28.0903 36.5488 28.281 36.358C28.4718 36.1672 28.579 35.9084 28.579 35.6386V21.3956C28.579 21.1258 28.4718 20.867 28.281 20.6762C28.0903 20.4854 27.8315 20.3783 27.5617 20.3783H13.3187V8.17H39.7699V15.2915C39.7699 15.5613 39.8771 15.8201 40.0679 16.0109C40.2587 16.2017 40.5175 16.3088 40.7873 16.3088H47.9088V40.7254C43.6796 40.7254 40.4006 40.7133 37.8538 40.704H37.8525H37.8514H37.8505H37.8498H37.8492C29.1706 40.6721 28.9977 40.6714 28.6909 41.2849L28.6811 41.3035L28.6744 41.3158L28.6742 41.3161L28.6742 41.3162L28.668 41.3275L28.6609 41.3409C28.5635 41.529 28.5638 41.7677 28.5717 47.4769V47.477V47.4772V47.4773V47.4774V47.4776V47.4777V47.4778V47.4779C28.5748 49.7095 28.579 52.7767 28.579 57.003H13.3187ZM30.6137 61.0725V43.3908C34.5381 45.353 37.4352 46.8049 39.5777 47.8786L39.5786 47.879L39.5788 47.8791L39.5789 47.8792L39.5791 47.8793L39.5792 47.8793L39.5794 47.8794L39.5796 47.8795L39.5797 47.8796L39.5799 47.8797C45.4931 50.8431 45.656 50.9247 45.8059 50.9054L45.8187 50.9036C45.8339 50.9014 45.8505 50.8989 45.8741 50.8989C45.903 50.8989 45.922 50.9023 45.9412 50.9041C46.0973 50.9193 46.2629 50.8364 51.8123 48.0559L51.8126 48.0557C53.9863 46.9667 56.9859 45.4638 61.1344 43.3908V61.0725H30.6137ZM57.1768 39.291C57.2715 39.4206 57.3955 39.526 57.5388 39.5984C57.682 39.6709 57.8403 39.7085 58.0008 39.7081C58.1014 39.7081 58.1836 39.7081 58.2626 39.6924C58.617 39.6221 58.9089 39.2366 60.5089 37.1235C60.9003 36.6065 61.37 35.9863 61.938 35.2419C61.9573 35.2168 61.9751 35.1999 61.9913 35.1844C61.9979 35.1781 62.0043 35.1721 62.0104 35.1658C62.1717 35.0004 62.1713 34.6772 62.1605 25.8477V25.8473C62.1567 22.7877 62.1517 18.7067 62.1517 13.2569C62.1495 12.9018 62.0545 12.5534 61.876 12.2465C61.6975 11.9395 61.4418 11.6846 61.1343 11.507V9.18745C61.1343 8.37799 60.8127 7.60169 60.2404 7.02931C59.668 6.45694 58.8917 6.13538 58.0822 6.13538C57.2728 6.13538 56.4965 6.45694 55.9241 7.02931C55.3517 7.60169 55.0302 8.37799 55.0302 9.18745V11.507C54.7226 11.6846 54.4669 11.9395 54.2885 12.2465C54.11 12.5534 54.015 12.9018 54.0128 13.2569C54.0128 18.6952 54.0084 22.7712 54.0051 25.8292V25.8342C53.9955 34.7181 53.9952 35.006 54.139 35.1496C54.1437 35.1542 54.1485 35.1587 54.1535 35.1634L54.1538 35.1637L54.1539 35.1638C54.1697 35.1785 54.187 35.1947 54.2061 35.2216L57.1768 39.291ZM60.1169 34.2754L58.0212 36.9918L56.0475 34.2856V13.2569H60.1169V34.2754ZM57.0649 9.18745C57.0649 8.91763 57.1721 8.65886 57.3629 8.46807C57.5536 8.27728 57.8124 8.17009 58.0822 8.17009C58.3521 8.17009 58.6108 8.27728 58.8016 8.46807C58.9924 8.65886 59.0996 8.91763 59.0996 9.18745V11.2222H57.0649V9.18745ZM15.8564 25.804C16.1917 26.306 16.3707 26.896 16.3707 27.4997C16.3707 28.3091 16.0492 29.0854 15.4768 29.6578C14.9044 30.2302 14.1281 30.5517 13.3187 30.5517C12.715 30.5517 12.125 30.3727 11.623 30.0374C11.1211 29.702 10.7299 29.2253 10.4989 28.6677C10.2679 28.11 10.2075 27.4963 10.3253 26.9043C10.443 26.3122 10.7337 25.7684 11.1605 25.3415C11.5874 24.9147 12.1312 24.624 12.7233 24.5063C13.3153 24.3885 13.929 24.4489 14.4867 24.6799C15.0443 24.9109 15.521 25.3021 15.8564 25.804ZM12.5993 26.7803C12.4085 26.9711 12.3013 27.2299 12.3013 27.4997C12.3013 27.7695 12.4085 28.0283 12.5993 28.2191C12.7901 28.4099 13.0489 28.517 13.3187 28.517C13.5885 28.517 13.8473 28.4099 14.0381 28.2191C14.2289 28.0283 14.336 27.7695 14.336 27.4997C14.336 27.2299 14.2289 26.9711 14.0381 26.7803C13.8473 26.5895 13.5885 26.4823 13.3187 26.4823C13.0489 26.4823 12.7901 26.5895 12.5993 26.7803ZM19.4228 29.5345H23.4922C23.7621 29.5345 24.0208 29.4273 24.2116 29.2366C24.4024 29.0458 24.5096 28.787 24.5096 28.5172C24.5096 28.2474 24.4024 27.9886 24.2116 27.7978C24.0208 27.607 23.7621 27.4998 23.4922 27.4998H19.4228C19.153 27.4998 18.8942 27.607 18.7034 27.7978C18.5126 27.9886 18.4055 28.2474 18.4055 28.5172C18.4055 28.787 18.5126 29.0458 18.7034 29.2366C18.8942 29.4273 19.153 29.5345 19.4228 29.5345ZM23.4922 32.5865H19.4228C19.153 32.5865 18.8942 32.4793 18.7034 32.2885C18.5126 32.0977 18.4055 31.839 18.4055 31.5691C18.4055 31.2993 18.5126 31.0405 18.7034 30.8498C18.8942 30.659 19.153 30.5518 19.4228 30.5518H23.4922C23.7621 30.5518 24.0208 30.659 24.2116 30.8498C24.4024 31.0405 24.5096 31.2993 24.5096 31.5691C24.5096 31.839 24.4024 32.0977 24.2116 32.2885C24.0208 32.4793 23.7621 32.5865 23.4922 32.5865ZM20.4402 10.2046C19.6353 10.2046 18.8486 10.4432 18.1793 10.8904C17.5101 11.3375 16.9885 11.9731 16.6805 12.7167C16.3725 13.4603 16.292 14.2785 16.449 15.0679C16.606 15.8573 16.9936 16.5824 17.5627 17.1515C18.1318 17.7206 18.8569 18.1082 19.6463 18.2652C20.4357 18.4222 21.2539 18.3417 21.9975 18.0336C22.7411 17.7256 23.3766 17.2041 23.8238 16.5348C24.271 15.8656 24.5096 15.0788 24.5096 14.274C24.5096 13.1947 24.0809 12.1596 23.3177 11.3965C22.5545 10.6333 21.5195 10.2046 20.4402 10.2046ZM20.4402 16.3087C20.0378 16.3087 19.6444 16.1894 19.3098 15.9658C18.9752 15.7422 18.7144 15.4244 18.5604 15.0526C18.4064 14.6809 18.3661 14.2717 18.4446 13.877C18.5231 13.4823 18.7169 13.1198 19.0014 12.8352C19.286 12.5507 19.6486 12.3569 20.0432 12.2784C20.4379 12.1999 20.8471 12.2402 21.2188 12.3942C21.5906 12.5482 21.9084 12.809 22.132 13.1436C22.3556 13.4782 22.4749 13.8716 22.4749 14.274C22.4749 14.8136 22.2605 15.3312 21.879 15.7128C21.4974 16.0943 20.9798 16.3087 20.4402 16.3087ZM36.7179 13.2566H27.5617C27.2918 13.2566 27.0331 13.1495 26.8423 12.9587C26.6515 12.7679 26.5443 12.5091 26.5443 12.2393C26.5443 11.9695 26.6515 11.7107 26.8423 11.5199C27.0331 11.3291 27.2918 11.2219 27.5617 11.2219H36.7179C36.9877 11.2219 37.2465 11.3291 37.4372 11.5199C37.628 11.7107 37.7352 11.9695 37.7352 12.2393C37.7352 12.5091 37.628 12.7679 37.4372 12.9587C37.2465 13.1495 36.9877 13.2566 36.7179 13.2566ZM32.6484 15.2914H27.5617C27.2918 15.2914 27.0331 15.3986 26.8423 15.5894C26.6515 15.7801 26.5443 16.0389 26.5443 16.3087C26.5443 16.5785 26.6515 16.8373 26.8423 17.0281C27.0331 17.2189 27.2918 17.3261 27.5617 17.3261H32.6484C32.9183 17.3261 33.177 17.2189 33.3678 17.0281C33.5586 16.8373 33.6658 16.5785 33.6658 16.3087C33.6658 16.0389 33.5586 15.7801 33.3678 15.5894C33.177 15.3986 32.9183 15.2914 32.6484 15.2914ZM34.2309 52.5163C34.8165 52.125 35.5049 51.9162 36.2092 51.9162C37.1535 51.9162 38.0592 52.2914 38.727 52.9591C39.3947 53.6269 39.7699 54.5326 39.7699 55.477C39.7699 56.1812 39.5611 56.8696 39.1698 57.4552C38.7785 58.0408 38.2224 58.4972 37.5718 58.7667C36.9212 59.0362 36.2052 59.1067 35.5145 58.9693C34.8238 58.8319 34.1893 58.4928 33.6913 57.9948C33.1934 57.4968 32.8542 56.8623 32.7168 56.1716C32.5794 55.4809 32.65 54.765 32.9195 54.1143C33.189 53.4637 33.6454 52.9076 34.2309 52.5163ZM35.1301 56.556C35.4163 56.8422 35.8044 57.003 36.2092 57.003C36.6139 57.003 37.002 56.8422 37.2882 56.556C37.5744 56.2698 37.7352 55.8817 37.7352 55.477C37.7352 55.0722 37.5744 54.6841 37.2882 54.3979C37.002 54.1117 36.6139 53.9509 36.2092 53.9509C35.8044 53.9509 35.4163 54.1117 35.1301 54.3979C34.8439 54.6841 34.6831 55.0722 34.6831 55.477C34.6831 55.8817 34.8439 56.2698 35.1301 56.556ZM51.9782 52.9336H42.822C42.5522 52.9336 42.2934 53.0408 42.1026 53.2316C41.9118 53.4223 41.8046 53.6811 41.8046 53.9509C41.8046 54.2207 41.9118 54.4795 42.1026 54.6703C42.2934 54.8611 42.5522 54.9683 42.822 54.9683H51.9782C52.248 54.9683 52.5068 54.8611 52.6976 54.6703C52.8883 54.4795 52.9955 54.2207 52.9955 53.9509C52.9955 53.6811 52.8883 53.4223 52.6976 53.2316C52.5068 53.0408 52.248 52.9336 51.9782 52.9336ZM42.822 57.003H47.9088C48.1786 57.003 48.4373 57.1102 48.6281 57.301C48.8189 57.4918 48.9261 57.7506 48.9261 58.0204C48.9261 58.2902 48.8189 58.549 48.6281 58.7398C48.4373 58.9305 48.1786 59.0377 47.9088 59.0377H42.822C42.5522 59.0377 42.2934 58.9305 42.1026 58.7398C41.9118 58.549 41.8046 58.2902 41.8046 58.0204C41.8046 57.7506 41.9118 57.4918 42.1026 57.301C42.2934 57.1102 42.5522 57.003 42.822 57.003Z" fill="url(#paint0_linear_106_684)"/>
<defs>
<linearGradient id="paint0_linear_106_684" x1="15.3393" y1="16.2681" x2="54.1711" y2="16.3161" gradientUnits="userSpaceOnUse">
<stop stop-color="#B3F1FF"/>
<stop offset="1" stop-color="#E1FFBB"/>
</linearGradient>
</defs>
</svg>
