<svg width="27" height="27" viewBox="0 0 27 27" fill="none" xmlns="http://www.w3.org/2000/svg">
<g clip-path="url(#clip0_106_719)">
<path fill-rule="evenodd" clip-rule="evenodd" d="M6.35116 4.1762C5.47013 4.1762 4.75591 4.89041 4.75591 5.77145V16.3741H12.8369V4.1762H6.35116ZM14.5369 16.3741H22.6179V5.77145C22.6179 4.89041 21.9037 4.1762 21.0227 4.1762H14.5369V16.3741ZM24.3179 17.2241L24.3179 5.77145C24.3179 3.95153 22.8426 2.4762 21.0227 2.4762H13.6869H6.35116C4.53125 2.4762 3.05591 3.95153 3.05591 5.77145V17.2207C3.05591 17.2219 3.05591 17.223 3.05591 17.2241C3.05591 17.2253 3.05591 17.2264 3.05591 17.2276V20.4429C3.05591 22.2629 4.53125 23.7382 6.35116 23.7382H21.0227C22.8426 23.7382 24.3179 22.2629 24.3179 20.4429L24.3179 17.2241ZM22.6179 18.0741H4.75591V20.4429C4.75591 21.324 5.47013 22.0382 6.35116 22.0382H21.0227C21.9037 22.0382 22.6179 21.324 22.6179 20.4429V18.0741Z" fill="url(#paint0_linear_106_719)"/>
</g>
<defs>
<linearGradient id="paint0_linear_106_719" x1="6.46729" y1="6.26639" x2="20.9575" y2="6.28431" gradientUnits="userSpaceOnUse">
<stop stop-color="#B3F1FF"/>
<stop offset="1" stop-color="#E1FFBB"/>
</linearGradient>
<clipPath id="clip0_106_719">
<rect width="26" height="26" fill="white" transform="translate(0.68689 0.107178)"/>
</clipPath>
</defs>
</svg>
