<svg width="27" height="27" viewBox="0 0 27 27" fill="none" xmlns="http://www.w3.org/2000/svg">
<g clip-path="url(#clip0_106_727)">
<path d="M17.3141 19.8952C20.0406 19.8952 22.2509 17.6849 22.2509 14.9584C22.2509 12.2319 20.0406 10.0216 17.3141 10.0216C14.5876 10.0216 12.3773 12.2319 12.3773 14.9584C12.3773 17.6849 14.5876 19.8952 17.3141 19.8952Z" stroke="url(#paint0_linear_106_727)" stroke-width="1.7" stroke-linecap="round" stroke-linejoin="round"/>
<path d="M21.6338 19.2781L24.7193 22.3636" stroke="url(#paint1_linear_106_727)" stroke-width="1.7" stroke-linecap="round" stroke-linejoin="round"/>
<path d="M3.73785 3.85059H23.4851" stroke="url(#paint2_linear_106_727)" stroke-width="1.7" stroke-linecap="round" stroke-linejoin="round"/>
<path d="M3.73782 11.2557H8.67463" stroke="url(#paint3_linear_106_727)" stroke-width="1.7" stroke-linecap="round" stroke-linejoin="round"/>
<path d="M3.73782 18.6611H8.67463" stroke="url(#paint4_linear_106_727)" stroke-width="1.7" stroke-linecap="round" stroke-linejoin="round"/>
</g>
<defs>
<linearGradient id="paint0_linear_106_727" x1="13.9615" y1="11.7817" x2="20.6904" y2="11.79" gradientUnits="userSpaceOnUse">
<stop stop-color="#B3F1FF"/>
<stop offset="1" stop-color="#E1FFBB"/>
</linearGradient>
<linearGradient id="paint1_linear_106_727" x1="22.1289" y1="19.8281" x2="24.2317" y2="19.8307" gradientUnits="userSpaceOnUse">
<stop stop-color="#B3F1FF"/>
<stop offset="1" stop-color="#E1FFBB"/>
</linearGradient>
<linearGradient id="paint2_linear_106_727" x1="6.9062" y1="4.02885" x2="20.3561" y2="4.35721" gradientUnits="userSpaceOnUse">
<stop stop-color="#B3F1FF"/>
<stop offset="1" stop-color="#E1FFBB"/>
</linearGradient>
<linearGradient id="paint3_linear_106_727" x1="4.52991" y1="11.434" x2="7.89426" y2="11.4545" gradientUnits="userSpaceOnUse">
<stop stop-color="#B3F1FF"/>
<stop offset="1" stop-color="#E1FFBB"/>
</linearGradient>
<linearGradient id="paint4_linear_106_727" x1="4.52991" y1="18.8394" x2="7.89426" y2="18.8599" gradientUnits="userSpaceOnUse">
<stop stop-color="#B3F1FF"/>
<stop offset="1" stop-color="#E1FFBB"/>
</linearGradient>
<clipPath id="clip0_106_727">
<rect width="26" height="26" fill="white" transform="translate(0.68689 0.107178)"/>
</clipPath>
</defs>
</svg>
