<svg width="29" height="29" viewBox="0 0 29 29" fill="none" xmlns="http://www.w3.org/2000/svg">
<path d="M27.6593 16.6716C27.6593 13.1277 26.2303 9.91161 23.9188 7.56798C23.9008 7.54399 23.8816 7.52051 23.8597 7.49865C23.8379 7.47679 23.8145 7.45756 23.7905 7.43961C21.4469 5.12814 18.2308 3.69922 14.6869 3.69922C11.143 3.69922 7.92695 5.12823 5.58324 7.43961C5.55925 7.45765 5.53586 7.47687 5.51399 7.49865C5.49213 7.52051 5.47291 7.5439 5.45487 7.56798C3.14349 9.91161 1.71448 13.1277 1.71448 16.6716C1.71448 20.1363 3.06352 23.3933 5.51306 25.8434C5.5134 25.8438 5.51374 25.8442 5.51408 25.8445C5.51433 25.8447 5.5145 25.845 5.51476 25.8451C5.5151 25.8455 5.51544 25.8458 5.51578 25.8462C5.64032 25.9707 5.80356 26.0329 5.96679 26.0329C6.13012 26.0329 6.29345 25.9706 6.41798 25.846C6.42861 25.8354 6.43823 25.824 6.44792 25.8128L8.41395 23.8467C8.6631 23.5975 8.6631 23.1936 8.41395 22.9444C8.16479 22.6954 7.76082 22.6954 7.51175 22.9444L5.97751 24.4787C4.18851 22.4879 3.15063 19.9824 3.00789 17.3096H5.17765C5.52999 17.3096 5.81563 17.0241 5.81563 16.6716C5.81563 16.3192 5.52999 16.0337 5.17765 16.0337H3.00806C3.15642 13.2884 4.2558 10.7921 5.98168 8.86871L7.51175 10.3988C7.63628 10.5233 7.79961 10.5856 7.96285 10.5856C8.12609 10.5856 8.28941 10.5233 8.41395 10.3988C8.6631 10.1495 8.6631 9.74564 8.41395 9.49649L6.88397 7.96634C8.80746 6.24045 11.3037 5.14107 14.0489 4.9928V7.16247C14.0489 7.5149 14.3346 7.80046 14.6869 7.80046C15.0392 7.80046 15.3249 7.5149 15.3249 7.16247V4.9928C18.0701 5.14107 20.5663 6.24054 22.4898 7.96642L20.9598 9.49649C20.7106 9.74573 20.7106 10.1496 20.9598 10.3988C21.0843 10.5233 21.2476 10.5856 21.4109 10.5856C21.5741 10.5856 21.7374 10.5233 21.862 10.3988L23.392 8.86871C25.1179 10.7922 26.2174 13.2884 26.3657 16.0337H24.196C23.8436 16.0337 23.558 16.3192 23.558 16.6716C23.558 17.0241 23.8436 17.3096 24.196 17.3096H26.3657C26.223 19.9824 25.1852 22.488 23.3962 24.4787L21.862 22.9444C21.6129 22.6954 21.2089 22.6954 20.9598 22.9444C20.7106 23.1937 20.7106 23.5976 20.9598 23.8467L22.9575 25.8445C23.0821 25.969 23.2454 26.0313 23.4086 26.0313C23.4902 26.0313 23.5719 26.0157 23.6487 25.9846C23.7255 25.9534 23.7975 25.9067 23.8598 25.8445C26.3099 23.3942 27.6593 20.1366 27.6593 16.6716Z" fill="url(#paint0_linear_106_1032)" stroke="url(#paint1_linear_106_1032)" stroke-width="0.571849"/>
<path d="M17.6179 9.35553C17.2906 9.22444 16.9194 9.38334 16.7884 9.7105L14.9448 14.3125C14.8589 14.3033 14.773 14.297 14.687 14.297C13.789 14.297 12.9779 14.7944 12.57 15.5951C12.1437 16.432 12.2529 17.432 12.862 18.2699C12.9243 18.3556 13.0025 18.4339 13.0888 18.4966C13.5836 18.8564 14.1363 19.0465 14.687 19.0465C15.5849 19.0465 16.3961 18.5491 16.8039 17.7485C17.2303 16.9115 17.121 15.9116 16.5124 15.0743C16.4501 14.9884 16.3717 14.9098 16.2852 14.8468C16.2387 14.813 16.1911 14.7821 16.1435 14.7513L17.9729 10.1849C18.1039 9.85792 17.945 9.48653 17.6179 9.35553ZM15.6668 17.1693C15.4779 17.5401 15.1024 17.7704 14.6869 17.7704C14.4143 17.7704 14.14 17.6752 13.8712 17.4874C13.565 17.0477 13.5048 16.571 13.707 16.1742C13.8959 15.8034 14.2714 15.573 14.687 15.573C14.8195 15.573 14.9524 15.596 15.0849 15.6406C15.0893 15.6424 15.0932 15.6447 15.0977 15.6465C15.1116 15.652 15.1257 15.6566 15.1397 15.6611C15.2613 15.7078 15.3825 15.7721 15.5026 15.8559C15.8087 16.2956 15.869 16.7724 15.6668 17.1693Z" fill="url(#paint2_linear_106_1032)" stroke="url(#paint3_linear_106_1032)" stroke-width="0.571849"/>
<defs>
<linearGradient id="paint0_linear_106_1032" x1="5.8772" y1="7.68045" x2="23.5588" y2="7.70585" gradientUnits="userSpaceOnUse">
<stop stop-color="#B3F1FF"/>
<stop offset="1" stop-color="#E1FFBB"/>
</linearGradient>
<linearGradient id="paint1_linear_106_1032" x1="5.8772" y1="7.68045" x2="23.5588" y2="7.70585" gradientUnits="userSpaceOnUse">
<stop stop-color="#B3F1FF"/>
<stop offset="1" stop-color="#E1FFBB"/>
</linearGradient>
<linearGradient id="paint2_linear_106_1032" x1="13.2286" y1="11.0453" x2="17.117" y2="11.0481" gradientUnits="userSpaceOnUse">
<stop stop-color="#B3F1FF"/>
<stop offset="1" stop-color="#E1FFBB"/>
</linearGradient>
<linearGradient id="paint3_linear_106_1032" x1="13.2286" y1="11.0453" x2="17.117" y2="11.0481" gradientUnits="userSpaceOnUse">
<stop stop-color="#B3F1FF"/>
<stop offset="1" stop-color="#E1FFBB"/>
</linearGradient>
</defs>
</svg>
