<svg width="29" height="29" viewBox="0 0 29 29" fill="none" xmlns="http://www.w3.org/2000/svg">
<g clip-path="url(#clip0_106_1044)">
<path d="M6.03967 19.2555H1.92195C1.69455 19.2555 1.51018 19.4399 1.51018 19.6673V27.6311C1.51018 27.8585 1.69455 28.0429 1.92195 28.0429H6.03967C6.26707 28.0429 6.45144 27.8585 6.45144 27.6311V19.6673C6.45144 19.4399 6.26707 19.2555 6.03967 19.2555ZM5.6279 27.2193H2.33372V20.079H5.6279V27.2193ZM12.8271 14.7158H8.70934C8.48194 14.7158 8.29757 14.9001 8.29757 15.1275V27.6311C8.29757 27.8585 8.48194 28.0429 8.70934 28.0429H12.8271C13.0545 28.0429 13.2388 27.8585 13.2388 27.6311V15.1275C13.2388 14.9001 13.0545 14.7158 12.8271 14.7158ZM12.4153 27.2193H9.12111V15.5393H12.4153V27.2193ZM19.6144 10.1759H15.4967C15.2693 10.1759 15.0849 10.3603 15.0849 10.5877V27.6311C15.0849 27.8585 15.2693 28.0429 15.4967 28.0429H19.6144C19.8418 28.0429 20.0262 27.8585 20.0262 27.6311V10.5877C20.0262 10.3603 19.8419 10.1759 19.6144 10.1759ZM19.2026 27.2193H15.9085V10.9995H19.2026V27.2193ZM27.7735 5.73547L24.6646 1.84418C24.5865 1.74638 24.4681 1.68945 24.3429 1.68945C24.2178 1.68945 24.0994 1.74638 24.0212 1.84418L20.9124 5.73547C20.8136 5.85911 20.7944 6.0284 20.863 6.17097C20.9317 6.3136 21.0759 6.40424 21.2341 6.40424H21.8724V27.6311C21.8724 27.8585 22.0567 28.0429 22.2841 28.0429H26.4018C26.6292 28.0429 26.8136 27.8585 26.8136 27.6311V6.40429H27.4518C27.61 6.40429 27.7543 6.3136 27.8229 6.17102C27.8915 6.0284 27.8723 5.85911 27.7735 5.73547ZM26.4018 5.58075C26.1744 5.58075 25.99 5.76512 25.99 5.99252V27.2193H22.6958V5.99252C22.6958 5.76512 22.5115 5.58075 22.2841 5.58075H22.0901L24.3429 2.76088L26.5958 5.5807H26.4018V5.58075ZM7.3506 6.31777L8.95105 4.85814C9.07052 4.74918 9.11514 4.5804 9.06522 4.42666C9.01529 4.27291 8.87992 4.16261 8.71922 4.14464L6.56648 3.90453L5.67288 1.93137C5.60618 1.78406 5.45943 1.68945 5.29776 1.68945C5.13609 1.68945 4.98934 1.78406 4.92264 1.93137L4.02904 3.90458L1.8763 4.14469C1.7156 4.16261 1.58028 4.27291 1.53031 4.42671C1.48033 4.5805 1.525 4.74928 1.64447 4.85819L3.24497 6.31777L2.80808 8.43937C2.77545 8.5977 2.83856 8.7605 2.96934 8.85552C3.10013 8.95048 3.27442 8.96026 3.41498 8.88028L5.29776 7.80915L7.18059 8.88028C7.24395 8.91631 7.31416 8.93412 7.38416 8.93412C7.46944 8.93412 7.55442 8.90766 7.62623 8.85547C7.75707 8.7604 7.82012 8.59765 7.78749 8.43932L7.3506 6.31777ZM6.49674 6.25441L6.79748 7.71491L5.50138 6.97758C5.43828 6.94165 5.36802 6.92374 5.29776 6.92374C5.2275 6.92374 5.15729 6.94171 5.09414 6.97758L3.79809 7.71491L4.09883 6.25441C4.12812 6.11214 4.08031 5.96498 3.97299 5.86714L2.87124 4.86236L4.35316 4.69709C4.49753 4.68098 4.62271 4.59003 4.68262 4.45774L5.29776 3.09941L5.91295 4.45774C5.97286 4.59003 6.09804 4.68098 6.24242 4.69709L7.72433 4.86236L6.62258 5.86714C6.51527 5.96503 6.46745 6.11219 6.49674 6.25441ZM16.6135 8.93422C16.6987 8.93422 16.7837 8.90776 16.8555 8.85557C16.9864 8.76055 17.0494 8.59775 17.0168 8.43942L16.5799 6.31782L18.1804 4.85819C18.2998 4.74923 18.3444 4.58045 18.2945 4.42671C18.2446 4.27296 18.1092 4.16266 17.9485 4.14469L15.7958 3.90458L14.9022 1.93137C14.8355 1.78411 14.6888 1.68945 14.5271 1.68945C14.3654 1.68945 14.2187 1.78406 14.152 1.93137L13.2584 3.90458L11.1056 4.14469C10.945 4.16261 10.8096 4.27291 10.7597 4.42671C10.7097 4.5805 10.7544 4.74928 10.8738 4.85819L12.4743 6.31782L12.0374 8.43942C12.0048 8.59775 12.0679 8.76055 12.1986 8.85557C12.3294 8.95053 12.5037 8.96031 12.6443 8.88033L14.5271 7.80921L16.4098 8.88033C16.4733 8.91641 16.5435 8.93422 16.6135 8.93422ZM14.7307 6.97758C14.6676 6.94165 14.5974 6.92374 14.5271 6.92374C14.4569 6.92374 14.3866 6.94171 14.3235 6.97758L13.0274 7.71491L13.3281 6.25441C13.3574 6.11214 13.3096 5.96498 13.2023 5.86714L12.1005 4.86236L13.5825 4.69709C13.7268 4.68098 13.852 4.59003 13.9119 4.45774L14.5271 3.09941L15.1422 4.45774C15.2021 4.59003 15.3273 4.68098 15.4717 4.69709L16.9536 4.86236L15.8518 5.86714C15.7445 5.96503 15.6967 6.11219 15.726 6.25441L16.0267 7.71491L14.7307 6.97758Z" fill="url(#paint0_linear_106_1044)" stroke="url(#paint1_linear_106_1044)" stroke-width="0.470361"/>
</g>
<defs>
<linearGradient id="paint0_linear_106_1044" x1="5.73842" y1="6.38725" x2="23.6985" y2="6.40946" gradientUnits="userSpaceOnUse">
<stop stop-color="#B3F1FF"/>
<stop offset="1" stop-color="#E1FFBB"/>
</linearGradient>
<linearGradient id="paint1_linear_106_1044" x1="5.73842" y1="6.38725" x2="23.6985" y2="6.40946" gradientUnits="userSpaceOnUse">
<stop stop-color="#B3F1FF"/>
<stop offset="1" stop-color="#E1FFBB"/>
</linearGradient>
<clipPath id="clip0_106_1044">
<rect width="28" height="28" fill="white" transform="translate(0.68689 0.866211)"/>
</clipPath>
</defs>
</svg>
