<svg width="69" height="69" viewBox="0 0 69 69" fill="none" xmlns="http://www.w3.org/2000/svg">
<path d="M16.4992 5.87756C14.9243 5.87756 13.6282 7.17357 13.6282 8.74855V42.4563C13.6282 43.7343 15.5453 43.7343 15.5453 42.4563V15.4574H53.8439V43.2224C53.8149 44.5281 55.7884 44.5281 55.7591 43.2224V8.74855C55.7591 7.17357 54.465 5.87756 52.89 5.87756H16.4992ZM16.4992 7.79468H52.89C53.4371 7.79468 53.8439 8.20145 53.8439 8.74855V13.5403H15.5453V8.74855C15.5453 8.20145 15.9521 7.79468 16.4992 7.79468ZM18.4163 9.70804C17.8874 9.70804 17.4587 10.1368 17.4587 10.6657C17.4587 11.1946 17.8874 11.6232 18.4163 11.6232C18.9451 11.6232 19.3739 11.1946 19.3739 10.6657C19.3739 10.1368 18.9451 9.70804 18.4163 9.70804ZM22.2467 9.70804C21.7178 9.70804 21.2891 10.1368 21.2891 10.6657C21.2891 11.1946 21.7178 11.6232 22.2467 11.6232C22.7756 11.6232 23.2043 11.1946 23.2043 10.6657C23.2043 10.1368 22.7756 9.70804 22.2467 9.70804ZM26.0771 9.70804C25.5483 9.70804 25.1195 10.1368 25.1195 10.6657C25.1195 11.1946 25.5483 11.6232 26.0771 11.6232C26.606 11.6232 27.0347 11.1946 27.0347 10.6657C27.0347 10.1368 26.606 9.70804 26.0771 9.70804ZM39.435 9.70992C38.142 9.79787 38.2303 11.6568 39.4799 11.6252H50.9748C52.2236 11.5962 52.2236 9.73761 50.9748 9.70992H39.435ZM8.84397 11.6252C7.26899 11.6252 5.96741 12.9193 5.96741 14.4943V48.9698C5.96741 50.5448 7.26899 51.8408 8.84397 51.8408H60.5527C62.1277 51.8408 63.4237 50.5448 63.4237 48.9698V14.4942C63.4237 12.9192 62.1277 11.625 60.5527 11.625H55.5732C54.2678 11.5961 54.2678 13.5692 55.5732 13.5403H60.5527C61.0998 13.5403 61.5066 13.9471 61.5066 14.4942V42.2684H7.88262V14.4942C7.88262 13.9471 8.29691 13.5403 8.84397 13.5403H13.816C15.1215 13.5692 15.1215 11.5961 13.816 11.625L8.84397 11.6252ZM37.5796 19.2691C37.1586 19.2662 36.7852 19.5388 36.6594 19.9407L30.9119 37.1756C30.5067 38.3876 32.3246 38.9954 32.7299 37.7834L38.4773 20.5428C38.6941 19.9227 38.2364 19.2735 37.5796 19.2691ZM41.7429 24.8053L46.6058 28.862L41.7429 32.9131C40.7039 33.7266 41.9869 35.2615 42.9717 34.3833L48.7117 29.597C49.1701 29.2142 49.1701 28.5099 48.7117 28.127L42.9717 23.3334C42.8001 23.1865 42.5822 23.105 42.3078 23.1053C41.4026 23.1846 41.0744 24.2643 41.7429 24.8053ZM27.0104 23.1071C26.7947 23.1143 26.5878 23.194 26.4231 23.3333L20.6775 28.1269C20.2191 28.5098 20.2191 29.2141 20.6775 29.5969L26.4231 34.3832C27.4113 35.3035 28.731 33.7174 27.6463 32.913L22.7835 28.8619L27.6463 24.8052C28.3539 24.2258 27.9245 23.0792 27.0104 23.1071ZM7.88262 44.1856H61.5066V48.9698C61.5066 49.5169 61.0998 49.9237 60.5527 49.9237H8.84397C8.29691 49.9237 7.88262 49.5169 7.88262 48.9698V44.1856ZM36.6631 46.0989L32.7336 46.1008C31.5129 46.2467 31.5949 47.9758 32.7785 48.0085H36.6108C37.9259 48.1247 38.0354 46.1253 36.6631 46.0989ZM29.324 50.6168C28.9396 50.6096 28.5876 50.831 28.43 51.1816C28.0847 52.4671 27.1427 56.39 25.7161 57.5864H24.1619C22.5869 57.5864 21.2928 58.8899 21.2928 60.4649V62.3726C21.2909 62.9015 21.7178 63.3318 22.2467 63.3339H47.1425C47.6743 63.3358 48.1059 62.9044 48.1039 62.3726V60.4649C48.1039 58.8899 46.8023 57.5864 45.2273 57.5864H43.675C42.2486 56.3901 41.437 52.5938 40.9611 51.1816C40.799 50.8219 40.433 50.5985 40.0391 50.6187C39.3549 50.6549 38.9277 51.3747 39.2255 51.9916C39.4355 53.0499 40.1688 56.7154 40.9368 57.5864H28.4543C29.2223 56.7154 29.985 52.8978 30.1656 51.9916C30.4697 51.3636 30.0216 50.6317 29.324 50.6168ZM24.1619 59.5035H45.2273C45.7744 59.5035 46.1887 59.9178 46.1887 60.4649V61.4187H23.208V60.4649C23.208 59.9178 23.6148 59.5035 24.1619 59.5035Z" fill="url(#paint0_linear_106_771)"/>
<defs>
<linearGradient id="paint0_linear_106_771" x1="15.186" y1="16.1198" x2="54.3429" y2="16.1682" gradientUnits="userSpaceOnUse">
<stop stop-color="#B3F1FF"/>
<stop offset="1" stop-color="#E1FFBB"/>
</linearGradient>
</defs>
</svg>
