<svg width="27" height="27" viewBox="0 0 27 27" fill="none" xmlns="http://www.w3.org/2000/svg">
<g clip-path="url(#clip0_106_788)">
<path fill-rule="evenodd" clip-rule="evenodd" d="M14.1123 1.87051C13.8536 1.72497 13.5376 1.72497 13.2789 1.87051L3.96243 7.11101C3.82541 7.18473 3.70698 7.29691 3.62506 7.44256C3.54814 7.57929 3.51314 7.72821 3.5159 7.8745V18.3552C3.5159 18.6623 3.68153 18.9455 3.94918 19.0961L13.2686 24.3383C13.3704 24.3975 13.4855 24.4362 13.6084 24.4487C13.6654 24.4546 13.7228 24.4547 13.7798 24.449C13.9041 24.4368 14.0205 24.3978 14.1233 24.3379L23.442 19.0961C23.7097 18.9455 23.8753 18.6623 23.8753 18.3552V7.87514C23.8782 7.72865 23.8432 7.57949 23.7661 7.44256C23.6842 7.29681 23.5656 7.18456 23.4285 7.11085L14.1123 1.87051ZM5.2159 9.31265V17.8581L12.8456 22.1498V13.6044L5.2159 9.31265ZM13.6956 12.132L21.2915 7.8593L13.6956 3.5866L6.09969 7.85929L13.6956 12.132ZM22.1753 17.8581L14.5456 22.1498V13.6044L22.1753 9.31265V17.8581Z" fill="url(#paint0_linear_106_788)"/>
</g>
<defs>
<linearGradient id="paint0_linear_106_788" x1="6.78237" y1="5.80643" x2="20.6577" y2="5.82183" gradientUnits="userSpaceOnUse">
<stop stop-color="#B3F1FF"/>
<stop offset="1" stop-color="#E1FFBB"/>
</linearGradient>
<clipPath id="clip0_106_788">
<rect width="26" height="26" fill="white" transform="translate(0.695557 0.107178)"/>
</clipPath>
</defs>
</svg>
