<svg width="68" height="69" viewBox="0 0 68 69" fill="none" xmlns="http://www.w3.org/2000/svg">
<path fill-rule="evenodd" clip-rule="evenodd" d="M62.3702 40.9255C62.0671 40.3192 61.9453 40.3197 55.8125 40.3482C54.1252 40.356 51.9828 40.366 49.2565 40.366C49.2565 31.4843 49.2698 25.7036 49.2785 21.9243C49.2941 15.1062 49.2948 14.8022 49.1757 14.5563C49.1701 14.5448 49.1642 14.5334 49.1581 14.5214L49.1548 14.515C49.1469 14.498 49.1422 14.4848 49.1378 14.4728L49.1337 14.4613C49.0866 14.3361 48.9827 14.2322 45.4323 10.6824L45.4313 10.6814L45.4296 10.6797L45.4206 10.6707L45.4118 10.6619C44.2722 9.52246 42.7794 8.02995 40.8227 6.07095C40.8074 6.05606 40.7939 6.04182 40.781 6.02821C40.7676 6.01403 40.7548 6.00053 40.7413 5.98769C40.4765 5.73429 39.9682 5.7353 29.4322 5.75624C25.2642 5.76452 19.5268 5.77592 11.6144 5.77592C11.3446 5.77592 11.0858 5.8831 10.895 6.07389C10.7042 6.26468 10.597 6.52345 10.597 6.79327V20.0189H6.52761C6.25779 20.0189 5.99902 20.1261 5.80823 20.3169C5.61744 20.5077 5.51025 20.7664 5.51025 21.0362V35.2792C5.51025 35.549 5.61744 35.8078 5.80823 35.9986C5.99902 36.1894 6.25779 36.2966 6.52761 36.2966H10.597V57.661C10.597 57.9308 10.7042 58.1896 10.895 58.3804C11.0858 58.5712 11.3446 58.6784 11.6144 58.6784H27.8921V61.7304C27.8921 62.0003 27.9993 62.259 28.19 62.4498C28.3808 62.6406 28.6396 62.7478 28.9094 62.7478H61.4648C61.7346 62.7478 61.9934 62.6406 62.1842 62.4498C62.375 62.259 62.4821 62.0003 62.4821 61.7304C62.4821 56.6383 62.4851 52.8101 62.4873 49.928V49.9219L62.4873 49.9125C62.4938 41.3974 62.494 41.1564 62.3938 40.9689C62.3865 40.9552 62.3787 40.9418 62.3702 40.9255ZM57.1512 42.4007L45.1871 48.3827L33.223 42.4007H57.1512ZM45.7873 13.9148H41.1177V9.2451L45.7873 13.9148ZM7.54496 22.0536H25.8574V34.2619H7.54496V22.0536ZM12.6317 56.6437V36.2966H26.8747C27.1445 36.2966 27.4033 36.1894 27.5941 35.9986C27.7849 35.8078 27.8921 35.549 27.8921 35.2792V21.0362C27.8921 20.7664 27.7849 20.5077 27.5941 20.3169C27.4033 20.1261 27.1445 20.0189 26.8747 20.0189H12.6317V7.81063H39.083V14.9321C39.083 15.2019 39.1902 15.4607 39.381 15.6515C39.5717 15.8423 39.8305 15.9495 40.1003 15.9495H47.2218V40.366C42.9926 40.366 39.7137 40.3539 37.1668 40.3446H37.1655H37.1645H37.1636H37.1629H37.1623C28.4837 40.3127 28.3107 40.3121 28.004 40.9255L27.9942 40.9441L27.9874 40.9565L27.9873 40.9567L27.9872 40.9569L27.9811 40.9681L27.974 40.9815C27.8766 41.1696 27.8769 41.4083 27.8848 47.1175V47.1177V47.1178V47.1179V47.118V47.1182V47.1183V47.1184V47.1186C27.8878 49.3501 27.8921 52.4173 27.8921 56.6437H12.6317ZM29.9268 60.7131V43.0315C33.8512 44.9936 36.7482 46.4455 38.8907 47.5192L38.8916 47.5197L38.8918 47.5197L38.892 47.5198L38.8921 47.5199L38.8923 47.52L38.8924 47.5201L38.8926 47.5201L38.8928 47.5202L38.8929 47.5203C44.8062 50.4837 44.969 50.5653 45.1189 50.546L45.1317 50.5442C45.1469 50.542 45.1635 50.5395 45.1871 50.5395C45.216 50.5395 45.2351 50.5429 45.2543 50.5448C45.4103 50.56 45.5759 50.477 51.1253 47.6966L51.1257 47.6964C53.2994 46.6073 56.299 45.1044 60.4474 43.0315V60.7131H29.9268ZM56.4898 38.9316C56.5845 39.0612 56.7086 39.1666 56.8518 39.2391C56.995 39.3116 57.1534 39.3491 57.3139 39.3487C57.4144 39.3487 57.4966 39.3487 57.5757 39.333C57.9301 39.2627 58.222 38.8772 59.822 36.7641C60.2134 36.2472 60.6831 35.6269 61.2511 34.8825C61.2704 34.8574 61.2881 34.8405 61.3044 34.825C61.311 34.8188 61.3173 34.8127 61.3235 34.8064C61.4848 34.641 61.4844 34.3179 61.4735 25.4883V25.488C61.4697 22.4283 61.4647 18.3473 61.4647 12.8975C61.4626 12.5424 61.3675 12.1941 61.1891 11.8871C61.0106 11.5801 60.7549 11.3252 60.4473 11.1476V8.82807C60.4473 8.01862 60.1258 7.24231 59.5534 6.66994C58.981 6.09756 58.2047 5.77601 57.3953 5.77601C56.5858 5.77601 55.8095 6.09756 55.2371 6.66994C54.6648 7.24231 54.3432 8.01862 54.3432 8.82807V11.1476C54.0357 11.3252 53.78 11.5801 53.6015 11.8871C53.423 12.1941 53.328 12.5424 53.3259 12.8975C53.3259 18.3358 53.3215 22.4118 53.3182 25.4698V25.4749C53.3086 34.3588 53.3083 34.6466 53.452 34.7902C53.4567 34.7948 53.4615 34.7994 53.4665 34.804L53.4668 34.8043L53.467 34.8044C53.4827 34.8192 53.5001 34.8354 53.5192 34.8622L56.4898 38.9316ZM59.43 33.9161L57.3342 36.6324L55.3606 33.9262V12.8975H59.43V33.9161ZM56.3779 8.82807C56.3779 8.55825 56.4851 8.29949 56.6759 8.10869C56.8667 7.9179 57.1255 7.81072 57.3953 7.81072C57.6651 7.81072 57.9239 7.9179 58.1147 8.10869C58.3055 8.29949 58.4126 8.55825 58.4126 8.82807V10.8628H56.3779V8.82807ZM15.1694 25.4447C15.5048 25.9466 15.6838 26.5367 15.6838 27.1403C15.6838 27.9498 15.3622 28.7261 14.7899 29.2984C14.2175 29.8708 13.4412 30.1924 12.6317 30.1924C12.0281 30.1924 11.438 30.0134 10.9361 29.678C10.4342 29.3426 10.043 28.866 9.81199 28.3083C9.58099 27.7506 9.52054 27.1369 9.63831 26.5449C9.75607 25.9528 10.0468 25.409 10.4736 24.9822C10.9004 24.5553 11.4443 24.2647 12.0363 24.1469C12.6283 24.0291 13.242 24.0896 13.7997 24.3206C14.3574 24.5516 14.8341 24.9428 15.1694 25.4447ZM11.9124 26.4209C11.7216 26.6117 11.6144 26.8705 11.6144 27.1403C11.6144 27.4101 11.7216 27.6689 11.9124 27.8597C12.1031 28.0505 12.3619 28.1577 12.6317 28.1577C12.9015 28.1577 13.1603 28.0505 13.3511 27.8597C13.5419 27.6689 13.6491 27.4101 13.6491 27.1403C13.6491 26.8705 13.5419 26.6117 13.3511 26.4209C13.1603 26.2301 12.9015 26.123 12.6317 26.123C12.3619 26.123 12.1031 26.2301 11.9124 26.4209ZM18.7359 29.1752H22.8053C23.0751 29.1752 23.3339 29.068 23.5247 28.8772C23.7155 28.6864 23.8226 28.4276 23.8226 28.1578C23.8226 27.888 23.7155 27.6292 23.5247 27.4384C23.3339 27.2476 23.0751 27.1404 22.8053 27.1404H18.7359C18.466 27.1404 18.2073 27.2476 18.0165 27.4384C17.8257 27.6292 17.7185 27.888 17.7185 28.1578C17.7185 28.4276 17.8257 28.6864 18.0165 28.8772C18.2073 29.068 18.466 29.1752 18.7359 29.1752ZM22.8053 32.2271H18.7359C18.466 32.2271 18.2073 32.1199 18.0165 31.9291C17.8257 31.7383 17.7185 31.4796 17.7185 31.2098C17.7185 30.9399 17.8257 30.6812 18.0165 30.4904C18.2073 30.2996 18.466 30.1924 18.7359 30.1924H22.8053C23.0751 30.1924 23.3339 30.2996 23.5247 30.4904C23.7155 30.6812 23.8226 30.9399 23.8226 31.2098C23.8226 31.4796 23.7155 31.7383 23.5247 31.9291C23.3339 32.1199 23.0751 32.2271 22.8053 32.2271ZM19.7532 9.8452C18.9484 9.8452 18.1616 10.0839 17.4924 10.531C16.8232 10.9782 16.3016 11.6137 15.9936 12.3573C15.6856 13.1009 15.605 13.9191 15.762 14.7085C15.919 15.4979 16.3066 16.223 16.8757 16.7921C17.4449 17.3613 18.17 17.7488 18.9593 17.9058C19.7487 18.0629 20.567 17.9823 21.3105 17.6743C22.0541 17.3663 22.6897 16.8447 23.1368 16.1755C23.584 15.5063 23.8227 14.7195 23.8227 13.9146C23.8227 12.8353 23.3939 11.8003 22.6308 11.0371C21.8676 10.2739 20.8325 9.8452 19.7532 9.8452ZM19.7532 15.9493C19.3508 15.9493 18.9574 15.83 18.6228 15.6064C18.2882 15.3828 18.0274 15.0651 17.8734 14.6933C17.7194 14.3215 17.6791 13.9124 17.7576 13.5177C17.8361 13.123 18.0299 12.7604 18.3145 12.4759C18.599 12.1913 18.9616 11.9975 19.3563 11.919C19.751 11.8405 20.1601 11.8808 20.5319 12.0348C20.9037 12.1888 21.2215 12.4496 21.445 12.7842C21.6686 13.1188 21.788 13.5122 21.788 13.9146C21.788 14.4543 21.5736 14.9718 21.192 15.3534C20.8104 15.735 20.2929 15.9493 19.7532 15.9493ZM36.0309 12.8973H26.8747C26.6049 12.8973 26.3461 12.7901 26.1553 12.5993C25.9645 12.4085 25.8574 12.1497 25.8574 11.8799C25.8574 11.6101 25.9645 11.3513 26.1553 11.1605C26.3461 10.9697 26.6049 10.8626 26.8747 10.8626H36.0309C36.3007 10.8626 36.5595 10.9697 36.7503 11.1605C36.9411 11.3513 37.0483 11.6101 37.0483 11.8799C37.0483 12.1497 36.9411 12.4085 36.7503 12.5993C36.5595 12.7901 36.3007 12.8973 36.0309 12.8973ZM31.9615 14.932H26.8747C26.6049 14.932 26.3461 15.0392 26.1553 15.23C25.9645 15.4208 25.8574 15.6795 25.8574 15.9494C25.8574 16.2192 25.9645 16.4779 26.1553 16.6687C26.3461 16.8595 26.6049 16.9667 26.8747 16.9667H31.9615C32.2313 16.9667 32.4901 16.8595 32.6809 16.6687C32.8717 16.4779 32.9788 16.2192 32.9788 15.9494C32.9788 15.6795 32.8717 15.4208 32.6809 15.23C32.4901 15.0392 32.2313 14.932 31.9615 14.932ZM33.544 52.1569C34.1295 51.7657 34.818 51.5568 35.5222 51.5568C36.4666 51.5568 37.3723 51.932 38.04 52.5998C38.7078 53.2675 39.083 54.1732 39.083 55.1176C39.083 55.8218 38.8741 56.5103 38.4829 57.0958C38.0916 57.6814 37.5355 58.1378 36.8848 58.4073C36.2342 58.6768 35.5183 58.7473 34.8275 58.6099C34.1368 58.4725 33.5024 58.1334 33.0044 57.6354C32.5064 57.1374 32.1673 56.503 32.0299 55.8123C31.8925 55.1215 31.963 54.4056 32.2325 53.7549C32.502 53.1043 32.9584 52.5482 33.544 52.1569ZM34.4431 56.1967C34.7293 56.4828 35.1175 56.6436 35.5222 56.6436C35.9269 56.6436 36.3151 56.4828 36.6013 56.1967C36.8875 55.9105 37.0482 55.5223 37.0482 55.1176C37.0482 54.7129 36.8875 54.3247 36.6013 54.0385C36.3151 53.7523 35.9269 53.5916 35.5222 53.5916C35.1175 53.5916 34.7293 53.7523 34.4431 54.0385C34.1569 54.3247 33.9962 54.7129 33.9962 55.1176C33.9962 55.5223 34.1569 55.9105 34.4431 56.1967ZM51.2912 52.5742H42.135C41.8652 52.5742 41.6064 52.6814 41.4156 52.8722C41.2249 53.063 41.1177 53.3217 41.1177 53.5916C41.1177 53.8614 41.2249 54.1201 41.4156 54.3109C41.6064 54.5017 41.8652 54.6089 42.135 54.6089H51.2912C51.561 54.6089 51.8198 54.5017 52.0106 54.3109C52.2014 54.1201 52.3086 53.8614 52.3086 53.5916C52.3086 53.3217 52.2014 53.063 52.0106 52.8722C51.8198 52.6814 51.561 52.5742 51.2912 52.5742ZM42.135 56.6436H47.2218C47.4916 56.6436 47.7504 56.7508 47.9412 56.9416C48.132 57.1324 48.2392 57.3912 48.2392 57.661C48.2392 57.9308 48.132 58.1896 47.9412 58.3804C47.7504 58.5712 47.4916 58.6784 47.2218 58.6784H42.135C41.8652 58.6784 41.6064 58.5712 41.4156 58.3804C41.2249 58.1896 41.1177 57.9308 41.1177 57.661C41.1177 57.3912 41.2249 57.1324 41.4156 56.9416C41.6064 56.7508 41.8652 56.6436 42.135 56.6436Z" fill="url(#paint0_linear_42_856)"/>
<defs>
<linearGradient id="paint0_linear_42_856" x1="14.6523" y1="15.9087" x2="53.4842" y2="15.9567" gradientUnits="userSpaceOnUse">
<stop stop-color="#B3F1FF"/>
<stop offset="1" stop-color="#E1FFBB"/>
</linearGradient>
</defs>
</svg>
