<svg width="26" height="27" viewBox="0 0 26 27" fill="none" xmlns="http://www.w3.org/2000/svg">
<g clip-path="url(#clip0_42_891)">
<path fill-rule="evenodd" clip-rule="evenodd" d="M5.6644 4.81682C4.78336 4.81682 4.06915 5.53104 4.06915 6.41207V17.0148H12.1501V4.81682H5.6644ZM13.8501 17.0148H21.9311V6.41207C21.9311 5.53104 21.2169 4.81682 20.3359 4.81682H13.8501V17.0148ZM23.6311 17.8648L23.6311 6.41207C23.6311 4.59215 22.1558 3.11682 20.3359 3.11682H13.0001H5.6644C3.84448 3.11682 2.36915 4.59215 2.36915 6.41207V17.8613C2.36914 17.8625 2.36914 17.8636 2.36914 17.8648C2.36914 17.8659 2.36914 17.867 2.36915 17.8682V21.0836C2.36915 22.9035 3.84448 24.3788 5.6644 24.3788H20.3359C22.1558 24.3788 23.6311 22.9035 23.6311 21.0836L23.6311 17.8648ZM21.9311 18.7148H4.06915V21.0836C4.06915 21.9646 4.78336 22.6788 5.6644 22.6788H20.3359C21.2169 22.6788 21.9311 21.9646 21.9311 21.0836V18.7148Z" fill="url(#paint0_linear_42_891)"/>
</g>
<defs>
<linearGradient id="paint0_linear_42_891" x1="5.78053" y1="6.90702" x2="20.2707" y2="6.92493" gradientUnits="userSpaceOnUse">
<stop stop-color="#B3F1FF"/>
<stop offset="1" stop-color="#E1FFBB"/>
</linearGradient>
<clipPath id="clip0_42_891">
<rect width="26" height="26" fill="white" transform="translate(0 0.747803)"/>
</clipPath>
</defs>
</svg>
