<svg width="26" height="27" viewBox="0 0 26 27" fill="none" xmlns="http://www.w3.org/2000/svg">
<g clip-path="url(#clip0_42_873)">
<path fill-rule="evenodd" clip-rule="evenodd" d="M7.04236 3.50518C7.37431 3.17324 7.9125 3.17324 8.24444 3.50518L12.9998 8.2605L16.6838 4.57641C17.4115 3.84877 18.3984 3.43998 19.4274 3.43998C20.4565 3.43998 21.4434 3.84877 22.171 4.57641C22.8987 5.30406 23.3075 6.29096 23.3075 7.32C23.3075 8.34905 22.8987 9.33595 22.171 10.0636L20.5724 11.6622L20.5641 11.6706L20.5557 11.6789L18.4869 13.7477L23.2423 18.5031C23.5742 18.835 23.5742 19.3732 23.2423 19.7051L18.9572 23.9902C18.6252 24.3222 18.0871 24.3222 17.7551 23.9902L12.9997 19.2349L8.24444 23.9902C8.08504 24.1496 7.86884 24.2391 7.6434 24.2391H3.3583C2.88886 24.2391 2.5083 23.8586 2.5083 23.3891V19.104C2.5083 18.8786 2.59785 18.6624 2.75726 18.503L7.51257 13.7477L2.75726 8.99237C2.42531 8.66042 2.42531 8.12223 2.75726 7.79029L7.04236 3.50518ZM14.2018 18.0328L17.2848 14.9498L21.4392 19.1041L18.3562 22.1871L16.88 20.711L17.8859 19.705C18.2179 19.3731 18.2179 18.8349 17.8859 18.503C17.554 18.171 17.0158 18.171 16.6838 18.503L15.6779 19.5089L14.2018 18.0328ZM13.6008 10.0636L13.5955 10.0689L9.32102 14.3434L9.31572 14.3487L9.31037 14.354L4.2083 19.4561V22.5391H7.29132L18.7609 11.0695L15.6779 7.9865L13.6061 10.0583L13.6008 10.0636ZM7.6434 5.30831L11.7977 9.46258L8.71465 12.5456L7.23853 11.0695L8.24445 10.0635C8.5764 9.7316 8.5764 9.19341 8.24445 8.86146C7.9125 8.52952 7.37431 8.52952 7.04237 8.86146L6.03644 9.86739L4.56038 8.39133L7.6434 5.30831ZM19.963 9.86744L20.9689 8.86151C21.3778 8.45268 21.6075 7.89818 21.6075 7.32C21.6075 6.74182 21.3778 6.18733 20.9689 5.77849C20.5601 5.36966 20.0056 5.13998 19.4274 5.13998C18.8493 5.13998 18.2948 5.36966 17.8859 5.77849L16.88 6.78442L19.963 9.86744Z" fill="url(#paint0_linear_42_873)"/>
</g>
<defs>
<linearGradient id="paint0_linear_42_873" x1="5.87491" y1="6.99669" x2="20.1749" y2="7.01437" gradientUnits="userSpaceOnUse">
<stop stop-color="#B3F1FF"/>
<stop offset="1" stop-color="#E1FFBB"/>
</linearGradient>
<clipPath id="clip0_42_873">
<rect width="26" height="26" fill="white" transform="translate(0 0.747803)"/>
</clipPath>
</defs>
</svg>
