<svg width="26" height="25" viewBox="0 0 26 25" fill="none" xmlns="http://www.w3.org/2000/svg">
<g clip-path="url(#clip0_42_522)">
<path d="M20.8553 12.6947L20.8512 16.6777C20.8526 18.2256 20.292 19.7198 19.2725 20.8844C18.6402 21.6073 18.3363 22.423 18.3437 23.3782L18.3505 24.2375C18.3522 24.4491 18.182 24.622 17.9704 24.6236C17.9694 24.6236 17.9684 24.6236 17.9673 24.6236C17.7572 24.6236 17.5859 24.4541 17.5842 24.2435L17.5774 23.3842C17.5686 22.249 17.9449 21.2382 18.6958 20.3798C19.5928 19.355 20.0861 18.0403 20.0849 16.6777L20.089 12.6938C20.0896 12.2866 19.9313 11.9707 19.6433 11.8039C19.373 11.6474 19.0262 11.6455 18.7597 11.799C18.4769 11.9619 18.3209 12.2795 18.3207 12.6931C18.3205 12.9046 18.149 13.0759 17.9375 13.076C17.9374 13.076 17.9373 13.076 17.9372 13.076C17.7257 13.0758 17.5544 12.9043 17.5544 12.6928L17.5544 11.3135C17.5549 10.6713 17.0833 10.3834 16.6158 10.3828C16.6154 10.3828 16.6149 10.3828 16.6145 10.3828C16.1472 10.3828 15.6757 10.6698 15.6747 11.3114V12.6928C15.6747 12.9044 15.5031 13.076 15.2915 13.076C15.0799 13.076 14.9084 12.9044 14.9084 12.6928V11.2592C14.9091 10.8024 14.6803 10.5741 14.4883 10.4629C14.179 10.2838 13.763 10.2835 13.4531 10.462C13.2604 10.5731 13.0305 10.8013 13.0301 11.2581C13.0301 11.2714 13.0294 11.2845 13.0281 11.2974L13.0274 12.693C13.0273 12.9045 12.8558 13.076 12.6442 13.076C12.6442 13.076 12.6441 13.076 12.6441 13.076C12.4325 13.0759 12.261 12.9042 12.2611 12.6926L12.2652 4.37872C12.2656 4.12899 12.1681 3.89373 11.9904 3.71574C11.8127 3.53776 11.5778 3.43975 11.3288 3.43975C11.3282 3.43975 11.3276 3.43975 11.327 3.43975C11.0787 3.43975 10.8444 3.53757 10.6663 3.71532C10.4879 3.8934 10.3896 4.12812 10.3896 4.3762L10.3828 14.5082C10.3827 14.6726 10.2776 14.8186 10.1218 14.8711C9.96595 14.9234 9.79398 14.8706 9.69454 14.7397L8.06004 12.5879C7.61866 12.0056 7.02523 11.8533 6.61743 11.9045C6.29939 11.9445 6.05267 12.1035 5.95749 12.3296C5.83724 12.6153 5.94973 13.0082 6.27422 13.436C7.74719 15.3771 8.2619 16.8419 8.6755 18.019C9.00135 18.9463 9.25873 19.6787 9.87541 20.3839C10.636 21.2551 11.0013 22.2368 10.9923 23.3855L10.9856 24.2435C10.9839 24.4541 10.8126 24.6236 10.6025 24.6236C10.6014 24.6236 10.6004 24.6236 10.5994 24.6236C10.3878 24.622 10.2176 24.4491 10.2193 24.2374L10.226 23.3795C10.2335 22.4266 9.93003 21.6116 9.29835 20.8881C8.58471 20.072 8.29174 19.2384 7.95256 18.273C7.53611 17.0878 7.06409 15.7445 5.66373 13.8992C4.99322 13.0152 5.11744 12.3501 5.25116 12.0324C5.45381 11.5508 5.92882 11.2188 6.52179 11.1442C7.31372 11.0445 8.1366 11.4204 8.67045 12.1247L9.61724 13.3711L9.62332 4.37593C9.62332 3.92314 9.80147 3.49584 10.1249 3.17295C10.4477 2.85075 10.8743 2.67344 11.3262 2.67344H11.3295C11.7827 2.67344 12.2104 2.85135 12.5328 3.17438C12.8552 3.49743 13.0323 3.92545 13.0315 4.37962L13.0288 9.82398C13.0428 9.81535 13.0563 9.80623 13.0707 9.79797C13.6185 9.48253 14.3257 9.4832 14.8723 9.79977C15.0457 9.9002 15.1933 10.0284 15.3134 10.1779C15.6426 9.80703 16.1302 9.61652 16.6146 9.61652H16.6167C17.4277 9.61747 18.2472 10.1521 18.3155 11.1735C18.3359 11.1605 18.3561 11.1472 18.3772 11.135C18.8843 10.8429 19.5165 10.8451 20.0272 11.1407C20.5545 11.446 20.8563 12.0124 20.8553 12.6947ZM6.41636 6.37109C6.26669 6.22147 6.02413 6.22147 5.87447 6.37109C5.72485 6.52071 5.72485 6.76331 5.87447 6.91293L7.09225 8.13069C7.16708 8.2055 7.26516 8.24292 7.36319 8.24292C7.46122 8.24292 7.5593 8.2055 7.63413 8.13069L8.85191 6.91293C9.00153 6.76331 9.00153 6.52071 8.85191 6.37109C8.70234 6.22147 8.45978 6.22145 8.31002 6.37109L7.74634 6.93477V1.41031L8.31002 1.97401C8.38485 2.04882 8.48289 2.08624 8.58096 2.08624C8.67904 2.08624 8.77707 2.04882 8.85191 1.97401C9.00153 1.82439 9.00153 1.58179 8.85191 1.43217L7.63414 0.214387C7.48447 0.064768 7.24191 0.064768 7.09225 0.214387L5.87447 1.43217C5.72485 1.58179 5.72485 1.82439 5.87447 1.97401C6.02413 2.12363 6.26669 2.12363 6.41636 1.97401L6.98004 1.41031V6.93478L6.41636 6.37109Z" fill="url(#paint0_linear_42_522)"/>
</g>
<defs>
<linearGradient id="paint0_linear_42_522" x1="7.66606" y1="4.47341" x2="18.3724" y2="4.48189" gradientUnits="userSpaceOnUse">
<stop stop-color="#B3F1FF"/>
<stop offset="1" stop-color="#E1FFBB"/>
</linearGradient>
<clipPath id="clip0_42_522">
<rect width="24.5215" height="24.5215" fill="white" transform="translate(0.739258 0.102173)"/>
</clipPath>
</defs>
</svg>
