<svg width="61" height="61" viewBox="0 0 61 61" fill="none" xmlns="http://www.w3.org/2000/svg">
<circle cx="30.9292" cy="30.8081" r="29.5" stroke="url(#paint0_linear_42_1019)"/>
<path d="M30.8652 42.1381C28.8652 42.1381 27.1152 41.5181 25.6152 40.2781C24.1352 39.0381 23.3552 37.4881 23.2752 35.6281H27.5352C27.7152 36.3481 28.1052 36.9381 28.7052 37.3981C29.3252 37.8581 30.0452 38.0881 30.8652 38.0881C31.9052 38.0881 32.7152 37.7781 33.2952 37.1581C33.8952 36.5181 34.1952 35.7281 34.1952 34.7881C34.1952 33.8281 33.8852 33.0381 33.2652 32.4181C32.6652 31.7981 31.8852 31.4881 30.9252 31.4881C30.1052 31.4881 29.4052 31.6881 28.8252 32.0881C28.2452 32.4881 27.8352 33.0281 27.5952 33.7081L23.9652 32.5981L26.3652 20.5081H36.7452V24.4981H29.5452L28.7352 28.4881C29.4952 28.0081 30.4752 27.7681 31.6752 27.7681C33.6752 27.7681 35.2752 28.4481 36.4752 29.8081C37.6952 31.1681 38.3052 32.9381 38.3052 35.1181C38.3052 37.2381 37.6152 38.9381 36.2352 40.2181C34.8752 41.4981 33.0852 42.1381 30.8652 42.1381Z" fill="url(#paint1_linear_42_1019)"/>
<defs>
<linearGradient id="paint0_linear_42_1019" x1="10.5559" y1="11.5038" x2="51.4463" y2="11.5544" gradientUnits="userSpaceOnUse">
<stop stop-color="#B3F1FF"/>
<stop offset="1" stop-color="#E1FFBB"/>
</linearGradient>
<linearGradient id="paint1_linear_42_1019" x1="24.8172" y1="18.582" x2="37.0844" y2="18.5892" gradientUnits="userSpaceOnUse">
<stop stop-color="#B3F1FF"/>
<stop offset="1" stop-color="#E1FFBB"/>
</linearGradient>
</defs>
</svg>
