<svg width="61" height="61" viewBox="0 0 61 61" fill="none" xmlns="http://www.w3.org/2000/svg">
<circle cx="30.313" cy="30.8081" r="29.5" stroke="url(#paint0_linear_42_1004)"/>
<path d="M37.063 37.7581V41.8081H22.543V40.3981C22.543 39.8181 22.603 39.2581 22.723 38.7181C22.843 38.1781 22.983 37.7081 23.143 37.3081C23.323 36.8881 23.583 36.4581 23.923 36.0181C24.263 35.5781 24.553 35.2181 24.793 34.9381C25.033 34.6581 25.393 34.3181 25.873 33.9181C26.373 33.5181 26.753 33.2281 27.013 33.0481C27.273 32.8481 27.683 32.5581 28.243 32.1781C28.803 31.7781 29.193 31.4981 29.413 31.3381C31.653 29.7781 32.773 28.3181 32.773 26.9581C32.773 26.1581 32.523 25.4981 32.023 24.9781C31.523 24.4581 30.833 24.1981 29.953 24.1981C29.013 24.1981 28.233 24.4881 27.613 25.0681C27.013 25.6281 26.723 26.3381 26.743 27.1981H22.603C22.603 25.1181 23.303 23.4281 24.703 22.1281C26.123 20.8081 27.903 20.1481 30.043 20.1481C31.943 20.1481 33.553 20.7281 34.873 21.8881C36.213 23.0481 36.883 24.6581 36.883 26.7181C36.883 28.4181 36.513 29.8181 35.773 30.9181C35.053 31.9981 33.923 33.0981 32.383 34.2181C32.243 34.3181 31.883 34.5681 31.303 34.9681C30.723 35.3481 30.283 35.6481 29.983 35.8681C29.683 36.0881 29.343 36.3781 28.963 36.7381C28.603 37.0981 28.363 37.4381 28.243 37.7581H37.063Z" fill="url(#paint1_linear_42_1004)"/>
<defs>
<linearGradient id="paint0_linear_42_1004" x1="9.9397" y1="11.5038" x2="50.8301" y2="11.5544" gradientUnits="userSpaceOnUse">
<stop stop-color="#B3F1FF"/>
<stop offset="1" stop-color="#E1FFBB"/>
</linearGradient>
<linearGradient id="paint1_linear_42_1004" x1="24.201" y1="18.582" x2="36.4681" y2="18.5892" gradientUnits="userSpaceOnUse">
<stop stop-color="#B3F1FF"/>
<stop offset="1" stop-color="#E1FFBB"/>
</linearGradient>
</defs>
</svg>
