<svg width="61" height="61" viewBox="0 0 61 61" fill="none" xmlns="http://www.w3.org/2000/svg">
<circle cx="30.1851" cy="30.8081" r="29.5" stroke="url(#paint0_linear_42_1009)"/>
<path d="M30.1551 42.1381C28.0151 42.1381 26.1751 41.4981 24.6351 40.2181C23.1151 38.9181 22.3151 37.1481 22.2351 34.9081H26.3151C26.4151 35.9281 26.8051 36.7181 27.4851 37.2781C28.1851 37.8181 29.0751 38.0881 30.1551 38.0881C31.1151 38.0881 31.8851 37.8481 32.4651 37.3681C33.0651 36.8881 33.3751 36.2381 33.3951 35.4181C33.3951 34.5181 33.0851 33.8181 32.4651 33.3181C31.8451 32.8181 30.9951 32.5681 29.9151 32.5681H28.1151V29.2081H29.7351C30.7151 29.2081 31.4651 28.9781 31.9851 28.5181C32.5051 28.0581 32.7751 27.4381 32.7951 26.6581C32.8151 25.9381 32.5551 25.3481 32.0151 24.8881C31.4951 24.4281 30.8351 24.1981 30.0351 24.1981C29.0751 24.1981 28.2851 24.4781 27.6651 25.0381C27.0451 25.5981 26.7451 26.3181 26.7651 27.1981H22.6251C22.6251 25.0781 23.3651 23.3781 24.8451 22.0981C26.3251 20.7981 28.0551 20.1481 30.0351 20.1481C32.1551 20.1481 33.8351 20.7481 35.0751 21.9481C36.3151 23.1281 36.9351 24.5881 36.9351 26.3281C36.9351 27.3081 36.7051 28.2081 36.2451 29.0281C35.7851 29.8281 35.2251 30.4581 34.5651 30.9181C35.4251 31.3181 36.1351 31.9381 36.6951 32.7781C37.2551 33.6181 37.5351 34.6081 37.5351 35.7481C37.5351 37.6281 36.8551 39.1681 35.4951 40.3681C34.1351 41.5481 32.3551 42.1381 30.1551 42.1381Z" fill="url(#paint1_linear_42_1009)"/>
<defs>
<linearGradient id="paint0_linear_42_1009" x1="9.81177" y1="11.5038" x2="50.7022" y2="11.5544" gradientUnits="userSpaceOnUse">
<stop stop-color="#B3F1FF"/>
<stop offset="1" stop-color="#E1FFBB"/>
</linearGradient>
<linearGradient id="paint1_linear_42_1009" x1="24.0731" y1="18.582" x2="36.3402" y2="18.5892" gradientUnits="userSpaceOnUse">
<stop stop-color="#B3F1FF"/>
<stop offset="1" stop-color="#E1FFBB"/>
</linearGradient>
</defs>
</svg>
