<svg width="61" height="61" viewBox="0 0 61 61" fill="none" xmlns="http://www.w3.org/2000/svg">
<circle cx="30.8022" cy="30.8081" r="29.5" stroke="url(#paint0_linear_42_1024)"/>
<path d="M30.7222 42.1381C28.5022 42.1381 26.7122 41.4481 25.3522 40.0681C23.9922 38.6681 23.3122 36.9081 23.3122 34.7881C23.3122 33.7881 23.4922 32.9181 23.8522 32.1781C24.2122 31.4181 24.8522 30.3981 25.7722 29.1181L32.1322 20.5081H37.2022L31.7122 27.9781C33.3922 28.0581 34.8822 28.7181 36.1822 29.9581C37.5022 31.1981 38.1622 32.8081 38.1622 34.7881C38.1622 36.9081 37.4822 38.6681 36.1222 40.0681C34.7622 41.4481 32.9622 42.1381 30.7222 42.1381ZM30.7222 38.1781C31.6822 38.1781 32.4722 37.8581 33.0922 37.2181C33.7122 36.5781 34.0222 35.7881 34.0222 34.8481C34.0222 33.9281 33.7022 33.1381 33.0622 32.4781C32.4422 31.8181 31.6622 31.4881 30.7222 31.4881C29.7822 31.4881 29.0022 31.8181 28.3822 32.4781C27.7622 33.1181 27.4522 33.9081 27.4522 34.8481C27.4522 35.7881 27.7622 36.5781 28.3822 37.2181C29.0022 37.8581 29.7822 38.1781 30.7222 38.1781Z" fill="url(#paint1_linear_42_1024)"/>
<defs>
<linearGradient id="paint0_linear_42_1024" x1="10.429" y1="11.5038" x2="51.3194" y2="11.5544" gradientUnits="userSpaceOnUse">
<stop stop-color="#B3F1FF"/>
<stop offset="1" stop-color="#E1FFBB"/>
</linearGradient>
<linearGradient id="paint1_linear_42_1024" x1="24.6903" y1="18.582" x2="36.9574" y2="18.5892" gradientUnits="userSpaceOnUse">
<stop stop-color="#B3F1FF"/>
<stop offset="1" stop-color="#E1FFBB"/>
</linearGradient>
</defs>
</svg>
