<svg width="69" height="69" viewBox="0 0 69 69" fill="none" xmlns="http://www.w3.org/2000/svg">
<path fill-rule="evenodd" clip-rule="evenodd" d="M63.5693 25.3923H64.1006C65.0865 25.3934 66.0318 25.7856 66.7289 26.4827C67.4261 27.1799 67.8182 28.1251 67.8193 29.1111V53.5486C67.8182 54.5345 67.4261 55.4798 66.7289 56.1769C66.0318 56.8741 65.0865 57.2662 64.1006 57.2673H50.2881C49.3021 57.2662 48.3569 56.8741 47.6597 56.1769C46.9626 55.4798 46.5704 54.5345 46.5693 53.5486V49.8298H41.5557L42.0869 51.9548H44.4443C44.7261 51.9548 44.9964 52.0668 45.1956 52.266C45.3949 52.4653 45.5068 52.7355 45.5068 53.0173V56.2048C45.5068 56.4866 45.3949 56.7569 45.1956 56.9561C44.9964 57.1554 44.7261 57.2673 44.4443 57.2673H25.3193C25.0375 57.2673 24.7673 57.1554 24.568 56.9561C24.3688 56.7569 24.2568 56.4866 24.2568 56.2048V53.0173C24.2568 52.7355 24.3688 52.4653 24.568 52.266C24.7673 52.0668 25.0375 51.9548 25.3193 51.9548H27.6768L28.208 49.8298H18.9443V53.5486C18.9432 54.5345 18.5511 55.4798 17.8539 56.1769C17.1568 56.8741 16.2115 57.2662 15.2256 57.2673H5.66309C4.67715 57.2662 3.7319 56.8741 3.03474 56.1769C2.33757 55.4798 1.94543 54.5345 1.94434 53.5486V35.4861C1.94543 34.5001 2.33757 33.5549 3.03474 32.8577C3.7319 32.1606 4.67715 31.7684 5.66309 31.7673H6.19434V15.2986C6.19543 14.3126 6.58757 13.3674 7.28474 12.6702C7.9819 11.9731 8.92715 11.5809 9.91309 11.5798H59.8506C60.8365 11.5809 61.7818 11.9731 62.4789 12.6702C63.1761 13.3674 63.5682 14.3126 63.5693 15.2986V25.3923ZM16.3521 54.6751C16.651 54.3763 16.819 53.9712 16.8193 53.5486V35.4861C16.819 35.0635 16.651 34.6583 16.3521 34.3595C16.0533 34.0607 15.6482 33.8927 15.2256 33.8923H14.3982L13.5774 36.3533C13.5069 36.5649 13.3715 36.7489 13.1906 36.8793C13.0097 37.0097 12.7923 37.0799 12.5693 37.0798H8.31934C8.09633 37.0799 7.87897 37.0097 7.69804 36.8793C7.51712 36.7489 7.38182 36.5649 7.31129 36.3533L6.49051 33.8923H5.66309C5.2405 33.8927 4.83533 34.0607 4.53652 34.3595C4.23771 34.6583 4.06969 35.0635 4.06934 35.4861V53.5486C4.06969 53.9712 4.23771 54.3763 4.53652 54.6751C4.83533 54.974 5.2405 55.142 5.66309 55.1423H15.2256C15.6482 55.142 16.0533 54.974 16.3521 54.6751ZM12.1576 33.8923H8.73105L9.08566 34.9548H11.803L12.1576 33.8923ZM43.3818 55.1423V54.0798H26.3818V55.1423H43.3818ZM30.3994 49.8298L29.8682 51.9548H39.8955L39.3643 49.8298H30.3994ZM18.9443 43.4548V47.7048H46.5693V43.4548H18.9443ZM46.5693 41.3298V29.1111C46.5704 28.1251 46.9626 27.1799 47.6597 26.4827C48.3569 25.7856 49.3021 25.3934 50.2881 25.3923H61.4443V15.2986C61.444 14.876 61.276 14.4708 60.9771 14.172C60.6783 13.8732 60.2732 13.7052 59.8506 13.7048H9.91309C9.49051 13.7052 9.08533 13.8732 8.78652 14.172C8.48771 14.4708 8.31969 14.876 8.31934 15.2986V31.7673H15.2256C16.2115 31.7684 17.1568 32.1606 17.8539 32.8577C18.5511 33.5549 18.9432 34.5001 18.9443 35.4861V41.3298H46.5693ZM58.553 28.5798L58.9076 27.5173H55.4811L55.8357 28.5798H58.553ZM65.2271 54.6751C65.526 54.3763 65.694 53.9712 65.6943 53.5486V29.1111C65.694 28.6885 65.526 28.2833 65.2271 27.9845C64.9283 27.6857 64.5232 27.5177 64.1006 27.5173H61.1482L60.3274 29.9783C60.2569 30.1899 60.1215 30.3739 59.9406 30.5043C59.7597 30.6347 59.5423 30.7049 59.3193 30.7048H55.0693C54.8463 30.7049 54.629 30.6347 54.448 30.5043C54.2671 30.3739 54.1318 30.1899 54.0613 29.9783L53.2405 27.5173H50.2881C49.8655 27.5177 49.4603 27.6857 49.1615 27.9845C48.8627 28.2833 48.6947 28.6885 48.6943 29.1111V53.5486C48.6947 53.9712 48.8627 54.3763 49.1615 54.6751C49.4603 54.974 49.8655 55.142 50.2881 55.1423H64.1006C64.5232 55.142 64.9283 54.974 65.2271 54.6751ZM55.0693 51.9548H59.3193C59.6011 51.9548 59.8714 52.0668 60.0706 52.266C60.2699 52.4653 60.3818 52.7355 60.3818 53.0173C60.3818 53.2991 60.2699 53.5694 60.0706 53.7686C59.8714 53.9679 59.6011 54.0798 59.3193 54.0798H55.0693C54.7875 54.0798 54.5173 53.9679 54.318 53.7686C54.1188 53.5694 54.0068 53.2991 54.0068 53.0173C54.0068 52.7355 54.1188 52.4653 54.318 52.266C54.5173 52.0668 54.7875 51.9548 55.0693 51.9548ZM12.5693 51.9548H8.31934C8.03754 51.9548 7.76729 52.0668 7.56804 52.266C7.36878 52.4653 7.25684 52.7355 7.25684 53.0173C7.25684 53.2991 7.36878 53.5694 7.56804 53.7686C7.76729 53.9679 8.03754 54.0798 8.31934 54.0798H12.5693C12.8511 54.0798 13.1214 53.9679 13.3206 53.7686C13.5199 53.5694 13.6318 53.2991 13.6318 53.0173C13.6318 52.7355 13.5199 52.4653 13.3206 52.266C13.1214 52.0668 12.8511 51.9548 12.5693 51.9548ZM33.8193 44.5173H35.9443C36.2261 44.5173 36.4964 44.6293 36.6956 44.8285C36.8949 45.0278 37.0068 45.298 37.0068 45.5798C37.0068 45.8616 36.8949 46.1319 36.6956 46.3311C36.4964 46.5304 36.2261 46.6423 35.9443 46.6423H33.8193C33.5375 46.6423 33.2673 46.5304 33.068 46.3311C32.8688 46.1319 32.7568 45.8616 32.7568 45.5798C32.7568 45.298 32.8688 45.0278 33.068 44.8285C33.2673 44.6293 33.5375 44.5173 33.8193 44.5173Z" fill="url(#paint0_linear_42_966)"/>
<defs>
<linearGradient id="paint0_linear_42_966" x1="12.5137" y1="19.7242" x2="57.4079" y2="19.8042" gradientUnits="userSpaceOnUse">
<stop stop-color="#B3F1FF"/>
<stop offset="1" stop-color="#E1FFBB"/>
</linearGradient>
</defs>
</svg>
