<svg width="27" height="27" viewBox="0 0 27 27" fill="none" xmlns="http://www.w3.org/2000/svg">
<g clip-path="url(#clip0_42_976)">
<path fill-rule="evenodd" clip-rule="evenodd" d="M2.61789 3.4155C3.00696 3.02644 3.53465 2.80786 4.08487 2.80786H20.0048C20.5551 2.80786 21.0827 3.02644 21.4718 3.4155C21.8609 3.80457 22.0795 4.33225 22.0795 4.88247V7.70627H23.6787C24.8244 7.70627 25.7533 8.6351 25.7533 9.78088V22.027C25.7533 23.1728 24.8244 24.1016 23.6787 24.1016H16.331C15.1852 24.1016 14.2564 23.1728 14.2564 22.027V21.6524H4.08487C3.53465 21.6524 3.00696 21.4339 2.61789 21.0448C2.22883 20.6557 2.01025 20.1281 2.01025 19.5778V4.88247C2.01025 4.33225 2.22883 3.80457 2.61789 3.4155ZM21.2295 9.40631L21.2206 9.40627H16.331C16.1241 9.40627 15.9564 9.57399 15.9564 9.78088V20.7976L15.9564 20.8024L15.9564 20.8073V22.027C15.9564 22.2339 16.1241 22.4016 16.331 22.4016H23.6787C23.8856 22.4016 24.0533 22.2339 24.0533 22.027V9.78088C24.0533 9.57399 23.8856 9.40627 23.6787 9.40627H21.2383L21.2295 9.40631ZM20.3794 4.88247V7.70627H16.331C15.1852 7.70627 14.2564 8.6351 14.2564 9.78088V19.9524H4.08487C3.98551 19.9524 3.89023 19.913 3.81998 19.8427C3.74972 19.7725 3.71025 19.6772 3.71025 19.5778V4.88247C3.71025 4.78312 3.74972 4.68784 3.81998 4.61758C3.89023 4.54733 3.98551 4.50786 4.08487 4.50786H20.0048C20.1042 4.50786 20.1995 4.54733 20.2697 4.61758C20.34 4.68784 20.3794 4.78312 20.3794 4.88247ZM18.9236 9.77233C18.4542 9.77233 18.0736 10.1529 18.0736 10.6223C18.0736 11.0918 18.4542 11.4723 18.9236 11.4723H21.0859C21.5554 11.4723 21.9359 11.0918 21.9359 10.6223C21.9359 10.1529 21.5554 9.77233 21.0859 9.77233H18.9236Z" fill="url(#paint0_linear_42_976)"/>
</g>
<defs>
<linearGradient id="paint0_linear_42_976" x1="5.81971" y1="6.60372" x2="22.0007" y2="6.62603" gradientUnits="userSpaceOnUse">
<stop stop-color="#B3F1FF"/>
<stop offset="1" stop-color="#E1FFBB"/>
</linearGradient>
<clipPath id="clip0_42_976">
<rect width="26" height="26" fill="white" transform="translate(0.881836 0.454834)"/>
</clipPath>
</defs>
</svg>
