<svg width="27" height="27" viewBox="0 0 27 27" fill="none" xmlns="http://www.w3.org/2000/svg">
<path d="M5.21533 6.95475C5.21533 6.38012 5.44361 5.82902 5.84993 5.42269C6.25626 5.01636 6.80736 4.78809 7.382 4.78809H9.54867C10.1233 4.78809 10.6744 5.01636 11.0807 5.42269C11.4871 5.82902 11.7153 6.38012 11.7153 6.95475V9.12142C11.7153 9.69606 11.4871 10.2472 11.0807 10.6535C10.6744 11.0598 10.1233 11.2881 9.54867 11.2881H7.382C6.80736 11.2881 6.25626 11.0598 5.84993 10.6535C5.44361 10.2472 5.21533 9.69606 5.21533 9.12142V6.95475ZM16.0487 6.95475C16.0487 6.38012 16.2769 5.82902 16.6833 5.42269C17.0896 5.01636 17.6407 4.78809 18.2153 4.78809H20.382C20.9566 4.78809 21.5077 5.01636 21.9141 5.42269C22.3204 5.82902 22.5487 6.38012 22.5487 6.95475V9.12142C22.5487 9.69606 22.3204 10.2472 21.9141 10.6535C21.5077 11.0598 20.9566 11.2881 20.382 11.2881H18.2153C17.6407 11.2881 17.0896 11.0598 16.6833 10.6535C16.2769 10.2472 16.0487 9.69606 16.0487 9.12142V6.95475ZM5.21533 17.7881C5.21533 17.2135 5.44361 16.6624 5.84993 16.256C6.25626 15.8497 6.80736 15.6214 7.382 15.6214H9.54867C10.1233 15.6214 10.6744 15.8497 11.0807 16.256C11.4871 16.6624 11.7153 17.2135 11.7153 17.7881V19.9548C11.7153 20.5294 11.4871 21.0805 11.0807 21.4868C10.6744 21.8932 10.1233 22.1214 9.54867 22.1214H7.382C6.80736 22.1214 6.25626 21.8932 5.84993 21.4868C5.44361 21.0805 5.21533 20.5294 5.21533 19.9548V17.7881ZM16.0487 17.7881C16.0487 17.2135 16.2769 16.6624 16.6833 16.256C17.0896 15.8497 17.6407 15.6214 18.2153 15.6214H20.382C20.9566 15.6214 21.5077 15.8497 21.9141 16.256C22.3204 16.6624 22.5487 17.2135 22.5487 17.7881V19.9548C22.5487 20.5294 22.3204 21.0805 21.9141 21.4868C21.5077 21.8932 20.9566 22.1214 20.382 22.1214H18.2153C17.6407 22.1214 17.0896 21.8932 16.6833 21.4868C16.2769 21.0805 16.0487 20.5294 16.0487 19.9548V17.7881Z" stroke="url(#paint0_linear_42_988)" stroke-width="1.7" stroke-linecap="round" stroke-linejoin="round"/>
<defs>
<linearGradient id="paint0_linear_42_988" x1="7.99638" y1="7.87796" x2="19.8092" y2="7.89256" gradientUnits="userSpaceOnUse">
<stop stop-color="#B3F1FF"/>
<stop offset="1" stop-color="#E1FFBB"/>
</linearGradient>
</defs>
</svg>
