<svg width="27" height="27" viewBox="0 0 27 27" fill="none" xmlns="http://www.w3.org/2000/svg">
<path d="M11.3501 18.8715H16.4125M13.8818 3.70483V4.78817M20.7762 6.5605L20.0103 7.32642M23.6318 13.4548H22.5485M5.21517 13.4548H4.13184M7.75342 7.32642L6.9875 6.5605M10.0512 17.2855C9.29378 16.5279 8.77803 15.5627 8.56914 14.5121C8.36026 13.4614 8.46761 12.3723 8.87763 11.3826C9.28764 10.393 9.98191 9.54708 10.8726 8.95195C11.7634 8.35682 12.8106 8.03918 13.8818 8.03918C14.9531 8.03918 16.0003 8.35682 16.891 8.95195C17.7818 9.54708 18.476 10.393 18.886 11.3826C19.2961 12.3723 19.4034 13.4614 19.1945 14.5121C18.9856 15.5627 18.4699 16.5279 17.7125 17.2855L17.1188 17.8781C16.7794 18.2175 16.5102 18.6205 16.3266 19.064C16.1429 19.5076 16.0484 19.9829 16.0485 20.4629V21.0382C16.0485 21.6128 15.8202 22.1639 15.4139 22.5702C15.0076 22.9766 14.4565 23.2048 13.8818 23.2048C13.3072 23.2048 12.7561 22.9766 12.3498 22.5702C11.9434 22.1639 11.7152 21.6128 11.7152 21.0382V20.4629C11.7152 19.4933 11.3295 18.5628 10.6448 17.8781L10.0512 17.2855Z" stroke="url(#paint0_linear_42_992)" stroke-width="1.7" stroke-linecap="round" stroke-linejoin="round"/>
<defs>
<linearGradient id="paint0_linear_42_992" x1="7.26052" y1="7.18094" x2="20.5499" y2="7.19737" gradientUnits="userSpaceOnUse">
<stop stop-color="#B3F1FF"/>
<stop offset="1" stop-color="#E1FFBB"/>
</linearGradient>
</defs>
</svg>
