<svg width="26" height="27" viewBox="0 0 26 27" fill="none" xmlns="http://www.w3.org/2000/svg">
<path fill-rule="evenodd" clip-rule="evenodd" d="M25.1868 13.2154H23.5514V11.746C23.5514 11.4723 23.3296 11.2506 23.056 11.2506H21.9291C21.7261 10.5121 21.4326 9.80421 21.0529 9.13735L21.8504 8.33986C21.9433 8.24697 21.9955 8.1208 21.9955 7.98959C21.9955 7.85819 21.9433 7.73221 21.8504 7.63913L19.0714 4.86021C18.8781 4.66688 18.5644 4.66688 18.3709 4.86021L17.5732 5.65789C16.9064 5.27801 16.1983 4.98444 15.4602 4.78144V3.65459C15.4602 3.38095 15.2384 3.15918 14.9648 3.15918H11.0348C10.7612 3.15918 10.5394 3.38095 10.5394 3.65459V4.78144C9.80114 4.98444 9.09305 5.27801 8.42619 5.65789L7.6287 4.86021C7.43518 4.66688 7.12149 4.66688 6.92797 4.86021L4.14905 7.63913C4.05616 7.73202 4.00391 7.858 4.00391 7.9894C4.00391 8.1208 4.05616 8.24678 4.14905 8.33967L4.94673 9.13735C4.56666 9.8046 4.27309 10.5127 4.07028 11.2504H2.94362C2.66999 11.2504 2.44821 11.4723 2.44821 11.7458V13.2154H0.81279C0.539155 13.2154 0.317383 13.4373 0.317383 13.7108C0.317383 13.9844 0.539155 14.2062 0.81279 14.2062H14.9567L14.9588 14.2061C14.9603 14.2062 14.9618 14.2062 14.9633 14.2062C14.9666 14.2062 14.9699 14.2061 14.9731 14.2061L14.9814 14.2062H25.1868C25.4604 14.2062 25.6822 13.9844 25.6822 13.7108C25.6822 13.4373 25.4604 13.2154 25.1868 13.2154ZM14.9735 13.2155L14.9814 13.2154H17.1177C16.8719 11.1608 15.1196 9.56231 12.9998 9.56231C10.88 9.56231 9.12769 11.1608 8.88192 13.2154H14.9567L14.9582 13.2154C14.9599 13.2154 14.9616 13.2154 14.9633 13.2154C14.9667 13.2154 14.9701 13.2154 14.9735 13.2155ZM12.9998 8.5715C10.3331 8.5715 8.13436 10.6133 7.88434 13.2154H3.43903V12.2414H4.45635C4.68741 12.2414 4.88771 12.0817 4.93938 11.8565C5.1447 10.9593 5.49826 10.1071 5.98979 9.32332C6.11248 9.12767 6.08384 8.873 5.92051 8.70967L5.20004 7.9894L7.27843 5.9112L7.99871 6.63148C8.16223 6.79481 8.41671 6.82345 8.61235 6.70076C9.39533 6.20942 10.2476 5.85605 11.1455 5.65015C11.3706 5.59867 11.5302 5.39838 11.5302 5.16732V4.14999H14.4694V5.16732C14.4694 5.39838 14.629 5.59867 14.8541 5.65034C15.7518 5.85605 16.6043 6.20961 17.3874 6.70076C17.5831 6.82364 17.8376 6.79481 18.0009 6.63148L18.7212 5.9112L20.7996 7.98959L20.0793 8.70967C19.916 8.8732 19.8871 9.12767 20.01 9.32332C20.5012 10.1063 20.8545 10.9585 21.0604 11.8567C21.1119 12.0817 21.3122 12.2414 21.5433 12.2414H22.5608V13.2156H18.1153C17.8652 10.6133 15.6665 8.5715 12.9998 8.5715ZM19.0759 18.1466C19.0759 18.886 19.6773 19.4875 20.4166 19.4875C21.7021 19.4875 22.7481 20.5332 22.7481 21.8188C22.7481 23.1045 21.7021 24.1505 20.4166 24.1505C19.5473 24.1505 18.756 23.6721 18.3516 22.9021C18.2242 22.6598 18.3175 22.3605 18.5598 22.2331C18.8019 22.106 19.1014 22.1991 19.2286 22.4413C19.4614 22.8843 19.9165 23.1597 20.4166 23.1597C21.1558 23.1597 21.7573 22.5582 21.7573 21.8188C21.7573 21.0796 21.1558 20.4783 20.4166 20.4783C19.131 20.4783 18.0851 19.4323 18.0851 18.1466C18.0851 16.861 19.131 15.8151 20.4166 15.8151C21.1682 15.8151 21.8778 16.1806 22.315 16.7929C22.4741 17.0157 22.4224 17.3249 22.1997 17.484C21.9771 17.6429 21.6677 17.5914 21.5088 17.3686C21.257 17.0162 20.8489 16.8059 20.4166 16.8059C19.6773 16.8059 19.0759 17.4073 19.0759 18.1466ZM5.30571 17.0242H6.3507C6.93707 17.0242 7.41389 17.5012 7.41389 18.0876C7.41389 18.361 7.63586 18.583 7.9093 18.583C8.18294 18.583 8.40471 18.361 8.40471 18.0876C8.40471 16.9549 7.48337 16.0334 6.3507 16.0334H5.30571C4.17304 16.0334 3.25151 16.9549 3.25151 18.0876V21.878C3.25151 23.0107 4.17304 23.9322 5.30571 23.9322H6.3507C7.48337 23.9322 8.40471 23.0107 8.40471 21.878C8.40471 21.6046 8.18294 21.3826 7.9093 21.3826C7.63586 21.3826 7.41389 21.6046 7.41389 21.878C7.41389 22.4644 6.93707 22.9414 6.3507 22.9414H5.30571C4.71935 22.9414 4.24232 22.4644 4.24232 21.878V18.0876C4.24232 17.5012 4.71935 17.0242 5.30571 17.0242ZM16.4125 16.1327C16.1946 16.0758 15.9655 16.1729 15.8554 16.3695L13.2773 20.965L10.6993 16.3695C10.589 16.1729 10.3598 16.0756 10.1419 16.1327C9.92383 16.1896 9.77172 16.3866 9.77172 16.612V23.3536C9.77172 23.6273 9.99349 23.849 10.2671 23.849C10.5408 23.849 10.7625 23.6273 10.7625 23.3536V18.5075L12.8452 22.22C12.9328 22.3762 13.0979 22.4729 13.2771 22.4729C13.4563 22.4729 13.6216 22.3762 13.7092 22.22L15.7919 18.5075V23.3536C15.7919 23.6273 16.0137 23.849 16.2873 23.849C16.5609 23.849 16.7827 23.6273 16.7827 23.3536V16.612C16.7827 16.3866 16.6306 16.1896 16.4125 16.1327Z" fill="url(#paint0_linear_42_1087)"/>
<path d="M23.5514 13.2154H23.3514V13.4154H23.5514V13.2154ZM21.9291 11.2506L21.7363 11.3036L21.7767 11.4506H21.9291V11.2506ZM21.0529 9.13735L20.9115 8.99593L20.8036 9.10377L20.8791 9.2363L21.0529 9.13735ZM21.8504 8.33986L21.7089 8.19844L21.7089 8.19844L21.8504 8.33986ZM21.8504 7.63913L21.9919 7.49785L21.9918 7.49771L21.8504 7.63913ZM19.0714 4.86021L19.2129 4.71878L19.2129 4.71878L19.0714 4.86021ZM18.3709 4.86021L18.2296 4.71871L18.2295 4.71878L18.3709 4.86021ZM17.5732 5.65789L17.4742 5.83167L17.6068 5.90718L17.7146 5.79931L17.5732 5.65789ZM15.4602 4.78144H15.2602V4.93386L15.4072 4.97428L15.4602 4.78144ZM10.5394 4.78144L10.5924 4.97429L10.7394 4.93387V4.78144H10.5394ZM8.42619 5.65789L8.28475 5.79929L8.39262 5.90719L8.52518 5.83167L8.42619 5.65789ZM7.6287 4.86021L7.77014 4.7188L7.77005 4.71871L7.6287 4.86021ZM6.92797 4.86021L6.78662 4.71871L6.78655 4.71878L6.92797 4.86021ZM4.14905 7.63913L4.00762 7.49771L4.14905 7.63913ZM4.14905 8.33967L4.00762 8.48109L4.14905 8.33967ZM4.94673 9.13735L5.12051 9.23634L5.19601 9.10379L5.08815 8.99593L4.94673 9.13735ZM4.07028 11.2504V11.4504H4.22272L4.26313 11.3034L4.07028 11.2504ZM2.44821 13.2154V13.4154H2.64821V13.2154H2.44821ZM14.9567 14.2062V14.4062L14.9591 14.4062L14.9567 14.2062ZM14.9588 14.2061L14.9606 14.0061L14.9564 14.0062L14.9588 14.2061ZM14.9731 14.2061L14.9756 14.006L14.9692 14.0061L14.9731 14.2061ZM14.9814 14.2062L14.979 14.4062H14.9814V14.2062ZM14.9735 13.2155L14.9695 13.4155L14.976 13.4154L14.9735 13.2155ZM14.9814 13.2154V13.0153L14.979 13.0154L14.9814 13.2154ZM17.1177 13.2154V13.4154H17.343L17.3163 13.1916L17.1177 13.2154ZM8.88192 13.2154L8.68334 13.1916L8.65658 13.4154H8.88192V13.2154ZM14.9567 13.2154L14.9591 13.0154H14.9567V13.2154ZM14.9582 13.2154L14.9558 13.4154L14.9603 13.4154L14.9582 13.2154ZM7.88434 13.2154V13.4154H8.06604L8.08342 13.2345L7.88434 13.2154ZM3.43903 13.2154H3.23903V13.4154H3.43903V13.2154ZM3.43903 12.2414V12.0414H3.23903V12.2414H3.43903ZM4.93938 11.8565L5.13431 11.9012L5.13434 11.9011L4.93938 11.8565ZM5.98979 9.32332L6.15923 9.42958L6.15923 9.42957L5.98979 9.32332ZM5.92051 8.70967L6.06193 8.56825L6.06192 8.56823L5.92051 8.70967ZM5.20004 7.9894L5.05863 7.84797L4.91718 7.98941L5.05864 8.13084L5.20004 7.9894ZM7.27843 5.9112L7.41985 5.76978L7.27844 5.62837L7.13702 5.76978L7.27843 5.9112ZM7.99871 6.63148L7.85729 6.7729L7.85737 6.77298L7.99871 6.63148ZM8.61235 6.70076L8.71861 6.8702L8.71866 6.87016L8.61235 6.70076ZM11.1455 5.65015L11.1009 5.45518L11.1008 5.45521L11.1455 5.65015ZM11.5302 4.14999V3.94999H11.3302V4.14999H11.5302ZM14.4694 4.14999H14.6694V3.94999H14.4694V4.14999ZM14.8541 5.65034L14.8093 5.84527L14.8094 5.84529L14.8541 5.65034ZM17.3874 6.70076L17.4938 6.53139L17.4937 6.53132L17.3874 6.70076ZM18.0009 6.63148L17.8595 6.49006L17.8595 6.49006L18.0009 6.63148ZM18.7212 5.9112L18.8626 5.76978L18.7212 5.62836L18.5798 5.76978L18.7212 5.9112ZM20.7996 7.98959L20.941 8.13103L21.0824 7.98961L20.941 7.84817L20.7996 7.98959ZM20.0793 8.70967L19.9379 8.56823L19.9378 8.56833L20.0793 8.70967ZM20.01 9.32332L20.1794 9.21704L20.1794 9.21694L20.01 9.32332ZM21.0604 11.8567L21.2554 11.8121L21.2554 11.812L21.0604 11.8567ZM22.5608 12.2414H22.7608V12.0414H22.5608V12.2414ZM22.5608 13.2156V13.4156H22.7608V13.2156H22.5608ZM18.1153 13.2156L17.9162 13.2347L17.9336 13.4156H18.1153V13.2156ZM18.3516 22.9021L18.5286 22.8091L18.5286 22.8091L18.3516 22.9021ZM18.5598 22.2331L18.4668 22.056L18.4667 22.0561L18.5598 22.2331ZM19.2286 22.4413L19.0515 22.5343L19.0515 22.5344L19.2286 22.4413ZM22.315 16.7929L22.1522 16.9091L22.1522 16.9092L22.315 16.7929ZM22.1997 17.484L22.3159 17.6468L22.3159 17.6467L22.1997 17.484ZM21.5088 17.3686L21.6716 17.2525L21.6715 17.2524L21.5088 17.3686ZM15.8554 16.3695L16.0298 16.4674L16.0299 16.4673L15.8554 16.3695ZM16.4125 16.1327L16.362 16.3262L16.362 16.3262L16.4125 16.1327ZM13.2773 20.965L13.1029 21.0629L13.2773 21.3738L13.4517 21.0629L13.2773 20.965ZM10.6993 16.3695L10.8737 16.2717L10.8737 16.2717L10.6993 16.3695ZM10.1419 16.1327L10.1924 16.3262L10.1926 16.3261L10.1419 16.1327ZM10.7625 18.5075L10.937 18.4097L10.5625 17.7422V18.5075H10.7625ZM12.8452 22.22L12.6708 22.3178L12.6708 22.3179L12.8452 22.22ZM13.7092 22.22L13.8836 22.3179L13.8837 22.3178L13.7092 22.22ZM15.7919 18.5075H15.9919V17.7422L15.6175 18.4097L15.7919 18.5075ZM23.5514 13.4154H25.1868V13.0154H23.5514V13.4154ZM23.3514 11.746V13.2154H23.7514V11.746H23.3514ZM23.056 11.4506C23.2192 11.4506 23.3514 11.5828 23.3514 11.746H23.7514C23.7514 11.3619 23.4401 11.0506 23.056 11.0506V11.4506ZM21.9291 11.4506H23.056V11.0506H21.9291V11.4506ZM20.8791 9.2363C21.2505 9.88874 21.5377 10.5812 21.7363 11.3036L22.122 11.1976C21.9145 10.443 21.6146 9.71968 21.2267 9.03839L20.8791 9.2363ZM21.7089 8.19844L20.9115 8.99593L21.1943 9.27877L21.9918 8.48128L21.7089 8.19844ZM21.7955 7.98959C21.7955 8.06773 21.7643 8.14304 21.7089 8.19844L21.9918 8.48128C22.1222 8.3509 22.1955 8.17386 22.1955 7.98959H21.7955ZM21.7088 7.7804C21.7644 7.83611 21.7955 7.91133 21.7955 7.98959H22.1955C22.1955 7.80505 22.1221 7.62831 21.9919 7.49785L21.7088 7.7804ZM18.93 5.00163L21.7089 7.78055L21.9918 7.49771L19.2129 4.71878L18.93 5.00163ZM18.5123 5.0017C18.6277 4.88634 18.8148 4.88645 18.93 5.00163L19.2129 4.71878C18.9414 4.44732 18.5011 4.44742 18.2296 4.71871L18.5123 5.0017ZM17.7146 5.79931L18.5123 5.00163L18.2295 4.71878L17.4318 5.51647L17.7146 5.79931ZM15.4072 4.97428C16.1292 5.17287 16.8218 5.46003 17.4742 5.83167L17.6722 5.48411C16.9909 5.096 16.2674 4.79602 15.5132 4.5886L15.4072 4.97428ZM15.2602 3.65459V4.78144H15.6602V3.65459H15.2602ZM14.9648 3.35918C15.128 3.35918 15.2602 3.49141 15.2602 3.65459H15.6602C15.6602 3.27049 15.3489 2.95918 14.9648 2.95918V3.35918ZM11.0348 3.35918H14.9648V2.95918H11.0348V3.35918ZM10.7394 3.65459C10.7394 3.49141 10.8716 3.35918 11.0348 3.35918V2.95918C10.6507 2.95918 10.3394 3.27049 10.3394 3.65459H10.7394ZM10.7394 4.78144V3.65459H10.3394V4.78144H10.7394ZM8.52518 5.83167C9.17759 5.46003 9.87023 5.17287 10.5924 4.97429L10.4864 4.5886C9.73204 4.79602 9.00852 5.09599 8.3272 5.48411L8.52518 5.83167ZM7.48726 5.00161L8.28475 5.79929L8.56763 5.51648L7.77014 4.7188L7.48726 5.00161ZM7.06932 5.0017C7.18475 4.88638 7.37192 4.88638 7.48735 5.0017L7.77005 4.71871C7.49844 4.44738 7.05823 4.44738 6.78662 4.71871L7.06932 5.0017ZM4.29047 7.78055L7.06939 5.00163L6.78655 4.71878L4.00762 7.49771L4.29047 7.78055ZM4.20391 7.9894C4.20391 7.9111 4.23504 7.83598 4.29047 7.78055L4.00762 7.49771C3.87727 7.62806 3.80391 7.80489 3.80391 7.9894H4.20391ZM4.29047 8.19824C4.23504 8.14282 4.20391 8.06769 4.20391 7.9894H3.80391C3.80391 8.1739 3.87727 8.35073 4.00762 8.48109L4.29047 8.19824ZM5.08815 8.99593L4.29047 8.19824L4.00762 8.48109L4.80531 9.27877L5.08815 8.99593ZM4.26313 11.3034C4.46151 10.5818 4.74867 9.88914 5.12051 9.23634L4.77294 9.03836C4.38465 9.72005 4.08467 10.4436 3.87744 11.1974L4.26313 11.3034ZM2.94362 11.4504H4.07028V11.0504H2.94362V11.4504ZM2.64821 11.7458C2.64821 11.5827 2.78049 11.4504 2.94362 11.4504V11.0504C2.55948 11.0504 2.24821 11.3619 2.24821 11.7458H2.64821ZM2.64821 13.2154V11.7458H2.24821V13.2154H2.64821ZM0.81279 13.4154H2.44821V13.0154H0.81279V13.4154ZM0.517383 13.7108C0.517383 13.5477 0.649662 13.4154 0.81279 13.4154V13.0154C0.428647 13.0154 0.117383 13.3269 0.117383 13.7108H0.517383ZM0.81279 14.0062C0.649612 14.0062 0.517383 13.8739 0.517383 13.7108H0.117383C0.117383 14.0949 0.428698 14.4062 0.81279 14.4062V14.0062ZM14.9567 14.0062H0.81279V14.4062H14.9567V14.0062ZM14.9564 14.0062L14.9543 14.0062L14.9591 14.4062L14.9612 14.4061L14.9564 14.0062ZM14.957 14.4061C14.9591 14.4062 14.9612 14.4062 14.9633 14.4062V14.0062C14.9624 14.0062 14.9615 14.0062 14.9606 14.0062L14.957 14.4061ZM14.9633 14.4062C14.9679 14.4062 14.9725 14.4061 14.9771 14.406L14.9692 14.0061C14.9673 14.0061 14.9653 14.0062 14.9633 14.0062V14.4062ZM14.9839 14.0062L14.9756 14.0061L14.9707 14.4061L14.979 14.4062L14.9839 14.0062ZM25.1868 14.0062H14.9814V14.4062H25.1868V14.0062ZM25.4822 13.7108C25.4822 13.8739 25.35 14.0062 25.1868 14.0062V14.4062C25.5709 14.4062 25.8822 14.0949 25.8822 13.7108H25.4822ZM25.1868 13.4154C25.3499 13.4154 25.4822 13.5477 25.4822 13.7108H25.8822C25.8822 13.3269 25.571 13.0154 25.1868 13.0154V13.4154ZM14.976 13.4154L14.9839 13.4153L14.979 13.0154L14.9711 13.0155L14.976 13.4154ZM14.9814 13.4154H17.1177V13.0154H14.9814V13.4154ZM17.3163 13.1916C17.0586 11.0379 15.2223 9.36231 12.9998 9.36231V9.76231C15.0169 9.76231 16.6852 11.2837 16.9191 13.2391L17.3163 13.1916ZM12.9998 9.36231C10.7773 9.36231 8.94097 11.0379 8.68334 13.1916L9.08051 13.2391C9.31442 11.2837 10.9827 9.76231 12.9998 9.76231V9.36231ZM8.88192 13.4154H14.9567V13.0154H8.88192V13.4154ZM14.9542 13.4153L14.9558 13.4154L14.9607 13.0154L14.9591 13.0154L14.9542 13.4153ZM14.9633 13.0154C14.961 13.0154 14.9586 13.0154 14.9562 13.0154L14.9603 13.4154C14.9613 13.4154 14.9623 13.4154 14.9633 13.4154V13.0154ZM14.9776 13.0155C14.9729 13.0154 14.9681 13.0154 14.9633 13.0154V13.4154C14.9654 13.4154 14.9674 13.4154 14.9695 13.4154L14.9776 13.0155ZM8.08342 13.2345C8.32369 10.7339 10.4373 8.7715 12.9998 8.7715V8.3715C10.229 8.3715 7.94503 10.4927 7.68525 13.1962L8.08342 13.2345ZM3.43903 13.4154H7.88434V13.0154H3.43903V13.4154ZM3.23903 12.2414V13.2154H3.63903V12.2414H3.23903ZM4.45635 12.0414H3.43903V12.4414H4.45635V12.0414ZM4.74444 11.8118C4.7136 11.9462 4.59411 12.0414 4.45635 12.0414V12.4414C4.78072 12.4414 5.06182 12.2172 5.13431 11.9012L4.74444 11.8118ZM5.82036 9.21706C5.317 10.0197 4.95477 10.8927 4.74442 11.8119L5.13434 11.9011C5.33463 11.0259 5.67951 10.1945 6.15923 9.42958L5.82036 9.21706ZM5.77909 8.85109C5.8764 8.94841 5.89357 9.10031 5.82035 9.21706L6.15923 9.42957C6.3314 9.15503 6.29128 8.7976 6.06193 8.56825L5.77909 8.85109ZM5.05864 8.13084L5.77911 8.85111L6.06192 8.56823L5.34145 7.84796L5.05864 8.13084ZM7.13702 5.76978L5.05863 7.84797L5.34146 8.13083L7.41985 6.05263L7.13702 5.76978ZM8.14013 6.49006L7.41985 5.76978L7.13701 6.05262L7.85729 6.7729L8.14013 6.49006ZM8.5061 6.53132C8.3894 6.6045 8.23762 6.58743 8.14004 6.48997L7.85737 6.77298C8.08684 7.00218 8.44401 7.0424 8.71861 6.8702L8.5061 6.53132ZM11.1008 5.45521C10.181 5.66613 9.30793 6.02814 8.50605 6.53135L8.71866 6.87016C9.48272 6.39069 10.3142 6.04598 11.1902 5.84509L11.1008 5.45521ZM11.3302 5.16732C11.3302 5.30515 11.235 5.42451 11.1009 5.45518L11.1901 5.84511C11.5061 5.77283 11.7302 5.49161 11.7302 5.16732H11.3302ZM11.3302 4.14999V5.16732H11.7302V4.14999H11.3302ZM14.4694 3.94999H11.5302V4.34999H14.4694V3.94999ZM14.6694 5.16732V4.14999H14.2694V5.16732H14.6694ZM14.8988 5.45541C14.7646 5.42459 14.6694 5.30512 14.6694 5.16732H14.2694C14.2694 5.49164 14.4935 5.77275 14.8093 5.84527L14.8988 5.45541ZM17.4937 6.53132C16.6917 6.02834 15.8184 5.66613 14.8988 5.45539L14.8094 5.84529C15.6852 6.04598 16.5169 6.39088 17.2812 6.8702L17.4937 6.53132ZM17.8595 6.49006C17.7621 6.58748 17.6104 6.60461 17.4938 6.53139L17.2811 6.87012C17.5558 7.04268 17.9131 7.00213 18.1423 6.7729L17.8595 6.49006ZM18.5798 5.76978L17.8595 6.49006L18.1423 6.7729L18.8626 6.05262L18.5798 5.76978ZM20.941 7.84817L18.8626 5.76978L18.5798 6.05262L20.6581 8.13101L20.941 7.84817ZM20.2207 8.85111L20.941 8.13103L20.6582 7.84815L19.9379 8.56823L20.2207 8.85111ZM20.1794 9.21694C20.1062 9.10042 20.1232 8.94869 20.2208 8.85101L19.9378 8.56833C19.7087 8.7977 19.6681 9.15492 19.8406 9.4297L20.1794 9.21694ZM21.2554 11.812C21.0444 10.892 20.6824 10.0189 20.1794 9.21704L19.8406 9.4296C20.3199 10.1937 20.6646 11.0251 20.8655 11.9014L21.2554 11.812ZM21.5433 12.0414C21.4054 12.0414 21.2861 11.9462 21.2554 11.8121L20.8655 11.9013C20.9377 12.2173 21.219 12.4414 21.5433 12.4414V12.0414ZM22.5608 12.0414H21.5433V12.4414H22.5608V12.0414ZM22.7608 13.2156V12.2414H22.3608V13.2156H22.7608ZM18.1153 13.4156H22.5608V13.0156H18.1153V13.4156ZM12.9998 8.7715C15.5623 8.7715 17.6759 10.7339 17.9162 13.2347L18.3144 13.1964C18.0546 10.4927 15.7706 8.3715 12.9998 8.3715V8.7715ZM20.4166 19.2875C19.7878 19.2875 19.2759 18.7756 19.2759 18.1466H18.8759C18.8759 18.9965 19.5669 19.6875 20.4166 19.6875V19.2875ZM22.9481 21.8188C22.9481 20.4228 21.8126 19.2875 20.4166 19.2875V19.6875C21.5917 19.6875 22.5481 20.6437 22.5481 21.8188H22.9481ZM20.4166 24.3505C21.8126 24.3505 22.9481 23.215 22.9481 21.8188H22.5481C22.5481 22.9941 21.5917 23.9505 20.4166 23.9505V24.3505ZM18.1745 22.9951C18.6135 23.8309 19.4729 24.3505 20.4166 24.3505V23.9505C19.6217 23.9505 18.8985 23.5134 18.5286 22.8091L18.1745 22.9951ZM18.4667 22.0561C18.1268 22.2347 17.9957 22.655 18.1745 22.9952L18.5286 22.8091C18.4527 22.6647 18.5082 22.4862 18.6528 22.4102L18.4667 22.0561ZM19.4057 22.3484C19.2271 22.0082 18.8066 21.8776 18.4668 22.056L18.6528 22.4102C18.7972 22.3344 18.9757 22.3899 19.0515 22.5343L19.4057 22.3484ZM20.4166 22.9597C19.991 22.9597 19.6039 22.7256 19.4056 22.3483L19.0515 22.5344C19.3188 23.043 19.8421 23.3597 20.4166 23.3597V22.9597ZM21.5573 21.8188C21.5573 22.4478 21.0454 22.9597 20.4166 22.9597V23.3597C21.2663 23.3597 21.9573 22.6687 21.9573 21.8188H21.5573ZM20.4166 20.6783C21.0454 20.6783 21.5573 21.19 21.5573 21.8188H21.9573C21.9573 20.9691 21.2662 20.2783 20.4166 20.2783V20.6783ZM17.8851 18.1466C17.8851 19.5428 19.0206 20.6783 20.4166 20.6783V20.2783C19.2415 20.2783 18.2851 19.3219 18.2851 18.1466H17.8851ZM20.4166 15.6151C19.0206 15.6151 17.8851 16.7506 17.8851 18.1466H18.2851C18.2851 16.9715 19.2415 16.0151 20.4166 16.0151V15.6151ZM22.4778 16.6767C22.0031 16.0119 21.2329 15.6151 20.4166 15.6151V16.0151C21.1035 16.0151 21.7526 16.3494 22.1522 16.9091L22.4778 16.6767ZM22.3159 17.6467C22.6285 17.4235 22.7011 16.9894 22.4778 16.6767L22.1522 16.9092C22.2471 17.042 22.2163 17.2263 22.0834 17.3212L22.3159 17.6467ZM21.346 17.4848C21.5691 17.7976 22.0035 17.8698 22.3159 17.6468L22.0835 17.3212C21.9507 17.416 21.7663 17.3852 21.6716 17.2525L21.346 17.4848ZM20.4166 17.0059C20.7842 17.0059 21.1317 17.1849 21.3461 17.4849L21.6715 17.2524C21.3823 16.8476 20.9137 16.6059 20.4166 16.6059V17.0059ZM19.2759 18.1466C19.2759 17.5178 19.7878 17.0059 20.4166 17.0059V16.6059C19.5669 16.6059 18.8759 17.2969 18.8759 18.1466H19.2759ZM6.3507 16.8242H5.30571V17.2242H6.3507V16.8242ZM7.61389 18.0876C7.61389 17.3908 7.04757 16.8242 6.3507 16.8242V17.2242C6.82656 17.2242 7.21389 17.6116 7.21389 18.0876H7.61389ZM7.9093 18.383C7.74632 18.383 7.61389 18.2505 7.61389 18.0876H7.21389C7.21389 18.4715 7.5254 18.783 7.9093 18.783V18.383ZM8.20471 18.0876C8.20471 18.2506 8.07243 18.383 7.9093 18.383V18.783C8.29344 18.783 8.60471 18.4714 8.60471 18.0876H8.20471ZM6.3507 16.2334C7.37289 16.2334 8.20471 17.0653 8.20471 18.0876H8.60471C8.60471 16.8445 7.59385 15.8334 6.3507 15.8334V16.2334ZM5.30571 16.2334H6.3507V15.8334H5.30571V16.2334ZM3.45151 18.0876C3.45151 17.0654 4.2835 16.2334 5.30571 16.2334V15.8334C4.06259 15.8334 3.05151 16.8444 3.05151 18.0876H3.45151ZM3.45151 21.878V18.0876H3.05151V21.878H3.45151ZM5.30571 23.7322C4.2835 23.7322 3.45151 22.9002 3.45151 21.878H3.05151C3.05151 23.1211 4.06259 24.1322 5.30571 24.1322V23.7322ZM6.3507 23.7322H5.30571V24.1322H6.3507V23.7322ZM8.20471 21.878C8.20471 22.9002 7.37289 23.7322 6.3507 23.7322V24.1322C7.59385 24.1322 8.60471 23.1211 8.60471 21.878H8.20471ZM7.9093 21.5826C8.07243 21.5826 8.20471 21.715 8.20471 21.878H8.60471C8.60471 21.4942 8.29344 21.1826 7.9093 21.1826V21.5826ZM7.61389 21.878C7.61389 21.715 7.74632 21.5826 7.9093 21.5826V21.1826C7.5254 21.1826 7.21389 21.4941 7.21389 21.878H7.61389ZM6.3507 23.1414C7.04757 23.1414 7.61389 22.5748 7.61389 21.878H7.21389C7.21389 22.354 6.82656 22.7414 6.3507 22.7414V23.1414ZM5.30571 23.1414H6.3507V22.7414H5.30571V23.1414ZM4.04232 21.878C4.04232 22.5748 4.60889 23.1414 5.30571 23.1414V22.7414C4.8298 22.7414 4.44232 22.3539 4.44232 21.878H4.04232ZM4.04232 18.0876V21.878H4.44232V18.0876H4.04232ZM5.30571 16.8242C4.60889 16.8242 4.04232 17.3907 4.04232 18.0876H4.44232C4.44232 17.6117 4.8298 17.2242 5.30571 17.2242V16.8242ZM16.0299 16.4673C16.0954 16.3503 16.2319 16.2922 16.362 16.3262L16.463 15.9392C16.1573 15.8593 15.8356 15.9956 15.6809 16.2718L16.0299 16.4673ZM13.4517 21.0629L16.0298 16.4674L15.6809 16.2717L13.1029 20.8672L13.4517 21.0629ZM10.5248 16.4674L13.1029 21.0629L13.4517 20.8672L10.8737 16.2717L10.5248 16.4674ZM10.1926 16.3261C10.3224 16.2921 10.459 16.3501 10.5248 16.4674L10.8737 16.2717C10.7189 15.9957 10.3972 15.859 10.0912 15.9392L10.1926 16.3261ZM9.97172 16.612C9.97172 16.4775 10.0624 16.3601 10.1924 16.3262L10.0914 15.9392C9.7852 16.019 9.57172 16.2956 9.57172 16.612H9.97172ZM9.97172 23.3536V16.612H9.57172V23.3536H9.97172ZM10.2671 23.649C10.104 23.649 9.97172 23.5168 9.97172 23.3536H9.57172C9.57172 23.7377 9.88304 24.049 10.2671 24.049V23.649ZM10.5625 23.3536C10.5625 23.5168 10.4303 23.649 10.2671 23.649V24.049C10.6512 24.049 10.9625 23.7377 10.9625 23.3536H10.5625ZM10.5625 18.5075V23.3536H10.9625V18.5075H10.5625ZM13.0196 22.1221L10.937 18.4097L10.5881 18.6054L12.6708 22.3178L13.0196 22.1221ZM13.2771 22.2729C13.1703 22.2729 13.0719 22.2153 13.0196 22.1221L12.6708 22.3179C12.7938 22.5371 13.0255 22.6729 13.2771 22.6729V22.2729ZM13.5348 22.1221C13.4826 22.2152 13.384 22.2729 13.2771 22.2729V22.6729C13.5286 22.6729 13.7606 22.5371 13.8836 22.3179L13.5348 22.1221ZM15.6175 18.4097L13.5348 22.1221L13.8837 22.3178L15.9663 18.6054L15.6175 18.4097ZM15.9919 23.3536V18.5075H15.5919V23.3536H15.9919ZM16.2873 23.649C16.1241 23.649 15.9919 23.5168 15.9919 23.3536H15.5919C15.5919 23.7377 15.9032 24.049 16.2873 24.049V23.649ZM16.5827 23.3536C16.5827 23.5168 16.4505 23.649 16.2873 23.649V24.049C16.6714 24.049 16.9827 23.7377 16.9827 23.3536H16.5827ZM16.5827 16.612V23.3536H16.9827V16.612H16.5827ZM16.362 16.3262C16.492 16.3601 16.5827 16.4775 16.5827 16.612H16.9827C16.9827 16.2956 16.7692 16.019 16.463 15.9392L16.362 16.3262Z" fill="url(#paint1_linear_42_1087)"/>
<defs>
<linearGradient id="paint0_linear_42_1087" x1="4.38705" y1="6.90113" x2="21.6734" y2="6.92695" gradientUnits="userSpaceOnUse">
<stop stop-color="#B3F1FF"/>
<stop offset="1" stop-color="#E1FFBB"/>
</linearGradient>
<linearGradient id="paint1_linear_42_1087" x1="4.38705" y1="6.90113" x2="21.6734" y2="6.92695" gradientUnits="userSpaceOnUse">
<stop stop-color="#B3F1FF"/>
<stop offset="1" stop-color="#E1FFBB"/>
</linearGradient>
</defs>
</svg>
