<svg width="58" height="58" viewBox="0 0 58 58" fill="none" xmlns="http://www.w3.org/2000/svg">
<path d="M10.8038 0.432129C9.22882 0.432129 7.93281 1.72814 7.93281 3.30311V37.0108C7.93281 38.2889 9.84989 38.2889 9.84989 37.0108V10.012H48.1485V37.7769C48.1195 39.0827 50.093 39.0827 50.0637 37.7769V3.30311C50.0637 1.72814 48.7696 0.432129 47.1946 0.432129H10.8038ZM10.8038 2.34925H47.1946C47.7417 2.34925 48.1485 2.75602 48.1485 3.30311V8.09485H9.84989V3.30311C9.84989 2.75602 10.2567 2.34925 10.8038 2.34925ZM12.7208 4.26261C12.192 4.26261 11.7632 4.69138 11.7632 5.22023C11.7632 5.74912 12.192 6.17774 12.7208 6.17774C13.2497 6.17774 13.6784 5.74912 13.6784 5.22023C13.6784 4.69138 13.2497 4.26261 12.7208 4.26261ZM16.5513 4.26261C16.0224 4.26261 15.5937 4.69138 15.5937 5.22023C15.5937 5.74912 16.0224 6.17774 16.5513 6.17774C17.0801 6.17774 17.5089 5.74912 17.5089 5.22023C17.5089 4.69138 17.0801 4.26261 16.5513 4.26261ZM20.3817 4.26261C19.8528 4.26261 19.4241 4.69138 19.4241 5.22023C19.4241 5.74912 19.8528 6.17774 20.3817 6.17774C20.9106 6.17774 21.3393 5.74912 21.3393 5.22023C21.3393 4.69138 20.9106 4.26261 20.3817 4.26261ZM33.7395 4.26449C32.4466 4.35243 32.5348 6.21139 33.7844 6.17973H45.2794C46.5282 6.15077 46.5282 4.29217 45.2794 4.26449H33.7395ZM3.14853 6.17973C1.57356 6.17973 0.271973 7.47386 0.271973 9.04883V43.5244C0.271973 45.0994 1.57356 46.3953 3.14853 46.3953H54.8573C56.4323 46.3953 57.7283 45.0994 57.7283 43.5244V9.04872C57.7283 7.47375 56.4323 6.17961 54.8573 6.17961H49.8778C48.5723 6.15066 48.5723 8.12381 49.8778 8.09485H54.8573C55.4044 8.09485 55.8112 8.50163 55.8112 9.04872V36.823H2.18718V9.04872C2.18718 8.50163 2.60147 8.09485 3.14853 8.09485H8.12059C9.42603 8.12381 9.42603 6.15066 8.12059 6.17961L3.14853 6.17973ZM31.8842 13.8237C31.4632 13.8208 31.0898 14.0934 30.964 14.4952L25.2165 31.7302C24.8112 32.9422 26.6292 33.55 27.0344 32.338L32.7819 15.0974C32.9987 14.4773 32.541 13.828 31.8842 13.8237ZM36.0475 19.3599L40.9103 23.4165L36.0475 27.4677C35.0085 28.2811 36.2914 29.8161 37.2763 28.9378L43.0163 24.1516C43.4747 23.7688 43.4747 23.0645 43.0163 22.6816L37.2763 17.888C37.1047 17.741 36.8868 17.6595 36.6123 17.6599C35.7071 17.7392 35.379 18.8188 36.0475 19.3599ZM21.315 17.6617C21.0993 17.6689 20.8924 17.7485 20.7277 17.8879L14.9821 22.6815C14.5237 23.0643 14.5237 23.7687 14.9821 24.1515L20.7277 28.9377C21.7159 29.8581 23.0356 28.272 21.9509 27.4676L17.088 23.4164L21.9509 19.3598C22.6584 18.7804 22.229 17.6338 21.315 17.6617ZM2.18718 38.7401H55.8112V43.5244C55.8112 44.0714 55.4044 44.4782 54.8573 44.4782H3.14853C2.60147 44.4782 2.18718 44.0714 2.18718 43.5244V38.7401ZM30.9677 40.6535L27.0382 40.6554C25.8175 40.8012 25.8995 42.5304 27.0831 42.5631H30.9153C32.2304 42.6793 32.3399 40.6799 30.9677 40.6535ZM23.6286 45.1714C23.2442 45.1641 22.8922 45.3856 22.7345 45.7362C22.3893 47.0217 21.4473 50.9446 20.0207 52.1409H18.4665C16.8915 52.1409 15.5974 53.4445 15.5974 55.0194V56.9272C15.5955 57.456 16.0224 57.8863 16.5513 57.8884H41.4471C41.9789 57.8903 42.4105 57.459 42.4085 56.9272V55.0194C42.4085 53.4445 41.1069 52.1409 39.5319 52.1409H37.9795C36.5531 50.9447 35.7416 47.1484 35.2657 45.7362C35.1036 45.3764 34.7376 45.1531 34.3436 45.1732C33.6595 45.2094 33.2322 45.9292 33.53 46.5462C33.74 47.6044 34.4734 51.27 35.2414 52.1409H22.7589C23.5268 51.27 24.2895 47.4524 24.4702 46.5462C24.7742 45.9181 24.3262 45.1862 23.6286 45.1714ZM18.4665 54.0581H39.5319C40.0789 54.0581 40.4932 54.4723 40.4932 55.0194V55.9733H17.5126V55.0194C17.5126 54.4723 17.9194 54.0581 18.4665 54.0581Z" fill="url(#paint0_linear_42_1062)"/>
<defs>
<linearGradient id="paint0_linear_42_1062" x1="9.49056" y1="10.6744" x2="48.6474" y2="10.7228" gradientUnits="userSpaceOnUse">
<stop stop-color="#B3F1FF"/>
<stop offset="1" stop-color="#E1FFBB"/>
</linearGradient>
</defs>
</svg>
