<svg width="26" height="27" viewBox="0 0 26 27" fill="none" xmlns="http://www.w3.org/2000/svg">
<g clip-path="url(#clip0_42_1078)">
<path fill-rule="evenodd" clip-rule="evenodd" d="M13.4169 2.42508C13.1581 2.27953 12.8422 2.27953 12.5834 2.42508L3.267 7.66558C3.12998 7.73929 3.01155 7.85148 2.92962 7.99712C2.85271 8.13386 2.81771 8.28278 2.82046 8.42906V18.9098C2.82046 19.2169 2.9861 19.5001 3.25374 19.6506L12.5732 24.8928C12.675 24.952 12.7901 24.9907 12.913 25.0033C12.97 25.0091 13.0274 25.0092 13.0844 25.0036C13.2087 24.9913 13.3251 24.9523 13.4278 24.8924L22.7466 19.6506C23.0142 19.5001 23.1799 19.2169 23.1799 18.9098V8.42965C23.1827 8.28318 23.1477 8.13404 23.0707 7.99712C22.9887 7.85138 22.8702 7.73913 22.733 7.66542L13.4169 2.42508ZM4.52046 9.86721V18.4127L12.1502 22.7044V14.1589L4.52046 9.86721ZM13.0002 12.6866L20.5961 8.41386L13.0002 4.14116L5.40426 8.41386L13.0002 12.6866ZM21.4799 18.4127L13.8502 22.7044V14.1589L21.4799 9.86722V18.4127Z" fill="url(#paint0_linear_42_1078)"/>
</g>
<defs>
<linearGradient id="paint0_linear_42_1078" x1="6.08693" y1="6.361" x2="19.9622" y2="6.37639" gradientUnits="userSpaceOnUse">
<stop stop-color="#B3F1FF"/>
<stop offset="1" stop-color="#E1FFBB"/>
</linearGradient>
<clipPath id="clip0_42_1078">
<rect width="26" height="26" fill="white" transform="translate(0 0.661865)"/>
</clipPath>
</defs>
</svg>
